<svg xmlns="http://www.w3.org/2000/svg" xmlns:xlink="http://www.w3.org/1999/xlink" width="546.48" height="415.37" viewBox="0 0 546.48 415.37"><defs><linearGradient id="a" x1="118.3" y1="142.39" x2="135.01" y2="167.75" gradientUnits="userSpaceOnUse"><stop offset="0" stop-color="#19181f"/><stop offset="1" stop-color="#19181f" stop-opacity="0"/></linearGradient><linearGradient id="b" x1="22.36" y1="173.6" x2="8.6" y2="270.79" gradientUnits="userSpaceOnUse"><stop offset="0.1" stop-color="#39b54a" stop-opacity="0"/><stop offset="1" stop-color="#15d5ee" stop-opacity="0.8"/></linearGradient><linearGradient id="c" x1="477.96" y1="289.91" x2="503.46" y2="141.37" gradientUnits="userSpaceOnUse"><stop offset="0.45" stop-color="#15d5ee" stop-opacity="0.8"/><stop offset="0.71" stop-color="#39b54a" stop-opacity="0"/><stop offset="1" stop-color="#15d5ee" stop-opacity="0.3"/></linearGradient><linearGradient id="d" x1="436.51" y1="350.81" x2="463.63" y2="192.83" gradientUnits="userSpaceOnUse"><stop offset="0" stop-color="#15d5ee" stop-opacity="0.8"/><stop offset="0.57" stop-color="#39b54a" stop-opacity="0"/><stop offset="1" stop-color="#15d5ee" stop-opacity="0.4"/></linearGradient><linearGradient id="e" x1="285.82" y1="220.46" x2="302.31" y2="124.41" gradientUnits="userSpaceOnUse"><stop offset="0" stop-color="#15d5ee" stop-opacity="0.8"/><stop offset="0.9" stop-color="#39b54a" stop-opacity="0"/></linearGradient><linearGradient id="f" x1="287.35" y1="220.59" x2="301.68" y2="124.19" gradientUnits="userSpaceOnUse"><stop offset="0" stop-color="#e6e6e6" stop-opacity="0.9"/><stop offset="0.24" stop-color="#f2f2f2" stop-opacity="0"/><stop offset="0.55" stop-color="#f2f2f2" stop-opacity="0"/><stop offset="0.8" stop-color="#e6e6e6" stop-opacity="0.3"/><stop offset="0.81" stop-color="#e7e7e7" stop-opacity="0.28"/><stop offset="0.86" stop-color="#ececec" stop-opacity="0.16"/><stop offset="0.91" stop-color="#efefef" stop-opacity="0.07"/><stop offset="0.95" stop-color="#f1f1f1" stop-opacity="0.02"/><stop offset="1" stop-color="#f2f2f2" stop-opacity="0"/></linearGradient><linearGradient id="g" x1="201.49" y1="288.4" x2="243.85" y2="184.43" gradientUnits="userSpaceOnUse"><stop offset="0" stop-color="#15d5ee" stop-opacity="0.3"/><stop offset="0.14" stop-color="#39b54a" stop-opacity="0"/><stop offset="0.9" stop-color="#15d5ee" stop-opacity="0.8"/></linearGradient><linearGradient id="h" x1="-973.36" y1="176.35" x2="-586.73" y2="176.35" gradientTransform="translate(1023.41 65.99)" gradientUnits="userSpaceOnUse"><stop offset="0" stop-color="#e6e6e6" stop-opacity="0.3"/><stop offset="1" stop-color="#e6e6e6" stop-opacity="0"/></linearGradient><linearGradient id="r" x1="199.42" y1="303.28" x2="226.2" y2="162.02" xlink:href="#f"/><linearGradient id="s" x1="220.34" y1="337.7" x2="217.88" y2="197.47" gradientUnits="userSpaceOnUse"><stop offset="0" stop-color="#15d5ee" stop-opacity="0.8"/><stop offset="0.07" stop-color="#1ad1d9" stop-opacity="0.7"/><stop offset="0.24" stop-color="#23c9ae" stop-opacity="0.49"/><stop offset="0.41" stop-color="#2bc28a" stop-opacity="0.31"/><stop offset="0.57" stop-color="#31bc6e" stop-opacity="0.18"/><stop offset="0.73" stop-color="#35b85a" stop-opacity="0.08"/><stop offset="0.87" stop-color="#38b64e" stop-opacity="0.02"/><stop offset="1" stop-color="#39b54a" stop-opacity="0"/></linearGradient><linearGradient id="t" x1="128.54" y1="15.13" x2="145.04" y2="85.63" gradientUnits="userSpaceOnUse"><stop offset="0" stop-color="#dce2aa" stop-opacity="0.8"/><stop offset="0.11" stop-color="#dce2aa" stop-opacity="0.76"/><stop offset="0.29" stop-color="#dce2aa" stop-opacity="0.65"/><stop offset="0.51" stop-color="#dce2aa" stop-opacity="0.48"/><stop offset="0.77" stop-color="#dce2aa" stop-opacity="0.24"/><stop offset="1" stop-color="#dce2aa" stop-opacity="0"/></linearGradient><linearGradient id="u" x1="270.06" y1="84.8" x2="337.56" y2="176.3" xlink:href="#t"/></defs><title>chiller-water-off</title><g style="opacity:0.75"><g style="opacity:0.75"><path d="M3.87,291.6,66,258.14l70-37.71A22.44,22.44,0,0,1,151,218.15l345.64,66.94,33.86,6.56" style="fill:none;stroke:#0970b7;stroke-linecap:round;stroke-linejoin:round;stroke-dasharray:0,3"/><path d="M531.24,284.37l-30.33-5.77L150.57,212a22.55,22.55,0,0,0-14.72,2.21L26.54,272,3.26,284.26" style="fill:none;stroke:#0970b7;stroke-linecap:round;stroke-linejoin:round;stroke-dasharray:0,3"/><path d="M532,277.05l-26.76-5L150.16,205.78a22.49,22.49,0,0,0-14.48,2.15L16.45,269.73l-13.8,7.15" style="fill:none;stroke:#0970b7;stroke-linecap:round;stroke-linejoin:round;stroke-dasharray:0,3"/><path d="M2,269.46l10.46-5.32,123-62.51a22.52,22.52,0,0,1,14.25-2.07l358.18,65.58,24.84,4.55" style="fill:none;stroke:#0970b7;stroke-linecap:round;stroke-linejoin:round;stroke-dasharray:0,3"/></g><path d="M2,269.46a2.81,2.81,0,0,0,.6,5.24L457.88,387.37a11.23,11.23,0,0,0,12.4-5.23l64-109.1a2.25,2.25,0,0,0-1.54-3.35" style="fill:none;stroke:#0970b7;stroke-linecap:round;stroke-linejoin:round"/><path d="M3.26,284.26a2.81,2.81,0,0,0,.61,5.21L456.13,405.53a11.25,11.25,0,0,0,12.57-5.33l64.07-112.5a2.25,2.25,0,0,0-1.53-3.33" style="fill:none;stroke:#0970b7;stroke-linecap:round;stroke-linejoin:round"/><path d="M3.87,291.6a2.81,2.81,0,0,0,.62,5.19L455.27,414.51a11.25,11.25,0,0,0,12.65-5.38L532,295a2.24,2.24,0,0,0-1.53-3.31" style="fill:none;stroke:#0970b7;stroke-linecap:round;stroke-linejoin:round"/><path d="M532,277.05a2.24,2.24,0,0,1,1.53,3.34l-64,110.82A11.24,11.24,0,0,1,457,396.48L3.25,282.11a2.82,2.82,0,0,1-.6-5.23" style="fill:none;stroke:#0970b7;stroke-linecap:round;stroke-linejoin:round"/></g><path d="M85.49,241.38a15.61,15.61,0,0,0,8.28-14.76l-5.19-83-.13-1.44a29.25,29.25,0,0,0-1.3-4.88c-1.24-2.45-2.89-4.57-5.76-5.37l-.83-.11-4.36-.66-.91-.11a9.19,9.19,0,0,0-1.58.13l-1,.28L40.75,143l-27.11,9.77-1.14.49C6,157,3.27,164.65,3.27,171.85l.1,1.63,8.32,86.91.19,1.47c.74,3.41,2.22,7,5.69,8.44a36.61,36.61,0,0,0,5.56,1.44,9.14,9.14,0,0,0,5.33-.24l1.08-.5Z" style="fill:#19181f"/><polygon points="158.25 169.73 155.89 106.15 155.81 104.83 155.65 103.57 155.43 102.37 155.14 101.25 154.8 100.2 154.39 99.23 153.94 98.35 153.44 97.55 152.88 96.86 152.29 96.26 151.66 95.76 150.99 95.38 150.29 95.12 149.56 94.97 148.96 94.94 144.68 94.37 143.92 94.36 143.41 94.41 142.62 94.62 95.11 110.85 94.2 111.23 93.32 111.74 92.48 112.38 91.67 113.12 90.91 113.98 90.2 114.93 89.53 115.97 88.93 117.09 88.38 118.29 87.9 119.55 87.49 120.87 87.15 122.24 86.88 123.64 86.7 125.08 86.6 126.54 86.58 127.52 86.63 129 91.04 199.19 158.25 169.73" style="fill:url(#a)"/><path d="M46.2,143.82l-27.11,9.87-1.13.5c-6.5,3.77-9.22,11.45-9.22,18.66l.1,1.63L17,261.65l.2,1.48c.82,3.87,2.51,7.37,6.48,8.74l-.55-.13a36.61,36.61,0,0,1-5.56-1.44c-3.47-1.41-5-5-5.69-8.44l-.19-1.47L3.37,173.48l-.1-1.63c0-7.2,2.73-14.85,9.23-18.59l1.14-.49L40.75,143Z" style="fill-opacity:0.75;fill:url(#b)"/><path d="M545.63,189.25l-16.12-2.45c.58-5.1.43-8.91-.54-8.91l-9.22-1.39-.66-3.61-.32-5L520.24,153c.66-7.67.18-12.66-1.26-12.75h0l-7.18-.88-.33.05-.24.12-.39.32-13.13,13.38-1.89,1.93-8.83,9-.47.57-.48.71-.47.86-.48,1-.47,1.12-.46,1.23-.45,1.34-.43,1.43-.41,1.51-.4,1.59-.36,1.65-.34,1.7-.31,1.74-.28,1.77-.24,1.79-.14,1.2-.18,1.79-9.86,115.08c-.31,4.45.46,6,1.75,6.3l6.76,1.45h0c.41.23.85-.07,1.17-.54l24.43-36.86c2.71-4.08,3.28-9.2,4.86-13.64l.48-1.77.67.95.13,0c1.07,0,2.48-3.23,3.69-8.4l16.49,2.79c.51,0,1.39-2.45,2-5.5s.62-5.54.11-5.55l-16.73-2.84a44.47,44.47,0,0,0,.16-5.6h0c1-3.56,1.86-7.39,2.63-11.48A155.57,155.57,0,0,0,521.48,206h0l2.28.34c1,0,2.4-3.35,3.68-8.46l16.16,2.45c.5,0,1.36-2.48,1.92-5.55S546.13,189.25,545.63,189.25Z" style="fill:#19181f"/><path d="M479.26,310c-.64-.36-1.19-2-1-6.25l7.29-82.38,3.25-36c.47-5.33,3.28-17.25,7-21.13l22.27-23.43a1.42,1.42,0,0,1,.86-.51l-7.11-.87-.33.05-.24.12-.39.32-13.13,13.38-1.89,1.93-8.83,9-.47.57-.48.71-.47.86-.48,1-.47,1.12-.46,1.23-.45,1.34-.43,1.43-.41,1.51-.4,1.59-.36,1.65-.34,1.7-.31,1.74-.28,1.77-.24,1.79-.14,1.2-.18,1.79-9.86,115.08c-.31,4.45.46,6,1.75,6.3Z" style="fill-opacity:0.75;fill:url(#c)"/><path d="M511.56,248.68l-18-3.19c.56-6,.08-10.3-1.35-10.3l-1.8-.39-2.08-.35-3.08-.53-.75-.12-.54-.1-1.15-.19,2.38-27.89.14-1.74.08-1.64,0-1.54,0-1.42-.05-1.32-.1-1.2-.14-1.06-.18-.94-.23-.81-.26-.66-.3-.51-.33-.35-.37-.19-.37,0-2.83-.44-4.8-.72-.41,0-.45.15-.32.2-.5.45-14.36,15.34-17.08,18.22-.63.77-.63.93-.63,1.09-.61,1.24-.6,1.37-.59,1.5-.56,1.61-.54,1.71-.52,1.79-.47,1.87-.45,1.92-.4,2-.36,2-.31,2-.27,2-.14,1.36-.17,2-.63,9L427,358.87l-.09,1.78,0,1.64,0,1.49.09,1.35.14,1.2.19,1.05.25.88.29.73.33.56.38.39.43.22,7.38,1.79.61.09.34.14.44,0,.48-.13.51-.32.55-.5.38-.44.58-.81,12.93-19.47c7.34-2.44,14.9-22.42,14.9-22.42l2.08.45a.53.53,0,0,0,.24.06c1.32,0,3.27-4.05,4.87-9.54l19.07,4c.71,0,1.74-2.95,2.29-6.6s.42-6.6-.3-6.6l-18.44-4c.22-2,.95-8.72,1.58-16.33,2.33-7.4,3.45-19.66,3.45-22.87l2,.37,1.33.31a.59.59,0,0,0,.29.07c1.34,0,3.16-3.79,4.64-9.26l18.07,3.18c.69,0,1.75-2.85,2.37-6.37S512.24,248.68,511.56,248.68Z" style="fill:#19181f"/><polygon points="436.26 371.01 435.98 370.29 435.75 369.4 435.56 368.36 435.44 367.15 435.36 365.8 435.34 364.3 435.38 362.66 435.49 360.88 438.99 313.04 442.01 271.65 443.28 254.22 443.46 252.19 443.61 250.83 443.87 248.79 444.19 246.75 444.55 244.73 444.95 242.75 445.4 240.81 445.87 238.94 446.38 237.14 446.91 235.42 447.47 233.8 448.05 232.3 448.64 230.91 449.24 229.67 449.86 228.57 450.47 227.63 451.09 226.86 465.23 211.27 470.1 205.91 481.79 193.02 482.28 192.56 482.59 192.36 483.06 192.2 480.23 191.76 475.43 191.04 475.02 191.01 474.57 191.16 474.25 191.36 473.75 191.81 459.39 207.15 442.31 225.38 441.68 226.14 441.05 227.07 440.42 228.16 439.81 229.4 439.21 230.77 438.62 232.27 438.06 233.88 437.52 235.59 437 237.38 436.53 239.25 436.08 241.17 435.68 243.15 435.32 245.15 435 247.18 434.74 249.22 434.6 250.57 434.43 252.59 433.8 261.58 427.04 358.87 426.94 360.65 426.9 362.29 426.93 363.78 427.02 365.13 427.16 366.33 427.35 367.38 427.6 368.26 427.89 368.99 428.22 369.55 428.6 369.94 429.03 370.16 436.41 371.95 437.02 372.04 436.58 371.57 436.26 371.01" style="fill-opacity:0.75;fill:url(#d)"/><g style="opacity:0.75"><path d="M434,258.76l-7.09-1.33c.33-2.35.76-5.83,1.08-10.08a133.59,133.59,0,0,0-.38-23.86c-.8-7.78-1.86-11.47-4.66-14.6a16.56,16.56,0,0,0-3.84-3.15l-320.54-52s4.11-41.91,31.38-46.42l365.87,47.85s-5.43,5.56-7.69,7.89-6.89,8.82-7.9,28.65l-5.57-.84s-26.23,28.3-32.35,34.45C434.87,232.86,434,258.76,434,258.76Z" style="fill:#19181f"/><path d="M434,258.76l-7.09-1.33c.33-2.35.76-5.83,1.08-10.08a133.59,133.59,0,0,0-.38-23.86c-.8-7.78-1.86-11.47-4.66-14.6a16.56,16.56,0,0,0-3.84-3.15l-320.54-52s4.11-41.91,31.38-46.42l365.87,47.85s-5.43,5.56-7.69,7.89-6.89,8.82-7.9,28.65l-5.57-.84s-26.23,28.3-32.35,34.45C434.87,232.86,434,258.76,434,258.76Z" style="opacity:0.5;fill:url(#e)"/><path d="M434,258.76l-7.09-1.33c.33-2.35.76-5.83,1.08-10.08a133.59,133.59,0,0,0-.38-23.86c-.8-7.78-1.86-11.47-4.66-14.6a16.56,16.56,0,0,0-3.84-3.15l-320.54-52s4.11-41.91,31.38-46.42l365.87,47.85s-5.43,5.56-7.69,7.89-6.89,8.82-7.9,28.65l-5.57-.84s-26.23,28.3-32.35,34.45C434.87,232.86,434,258.76,434,258.76Z" style="opacity:0.36;fill:url(#f)"/></g><g style="opacity:0.75"><path d="M394.2,333,57.49,256.2,40.7,252.38A32.76,32.76,0,0,1,21.65,231.7c-5.73-16.92-4.15-36.15,2.63-52.59S43.92,147.63,63,148.05l26.16,4.22,4.07.66,5,.81.34,0,145.74,23.53,74.14,12,.67.11,6.19,1,9.54,1.54,7.68,1.24,32.36,5.22L384.7,200l34.41,5.76a7.29,7.29,0,0,1,3.84,3.15c5.08,7.41,5,18,5.24,26.64.43,17.91-2.62,36.41-7.25,53.67-2.74,10.2-4.55,17.83-9.26,26.26C409.92,318.61,401,334.59,394.2,333Z" style="fill:#19181f;opacity:0.36"/><path d="M394.2,333,57.49,256.2,40.7,252.38A32.76,32.76,0,0,1,21.65,231.7c-5.73-16.92-4.15-36.15,2.63-52.59S43.92,147.63,63,148.05l26.16,4.22,4.07.66,5,.81.34,0,145.74,23.53,74.14,12,.67.11,6.19,1,9.54,1.54,7.68,1.24,32.36,5.22L384.7,200l34.41,5.76a7.29,7.29,0,0,1,3.84,3.15c5.08,7.41,5,18,5.24,26.64.43,17.91-2.62,36.41-7.25,53.67-2.74,10.2-4.55,17.83-9.26,26.26C409.92,318.61,401,334.59,394.2,333Z" style="opacity:0.36;fill:url(#g)"/></g><path d="M341.58,100.27l1.07-.31,1.83.08.76.38m-3.66-.15,0,1.1.58.36,2.14.09.95-.34,0-1.06-1.07.32-1.83-.08-.76-.39" style="fill:none;stroke:#15d5ee;stroke-linecap:round;stroke-linejoin:round;opacity:0.88"/><line x1="422.46" y1="145.59" x2="445.07" y2="148.56" style="fill:none;stroke:#15d5ee;stroke-linecap:round;stroke-linejoin:round;opacity:0.88"/><path d="M296.94,37.58c7.13.59,14,1.23,20.74,4A55.33,55.33,0,0,1,337,55.1,59.34,59.34,0,0,1,349.41,75a70.67,70.67,0,0,1,3.25,12.23,74.44,74.44,0,0,1,.7,11.26c0,1,.08,2,.12,3" style="fill:none;stroke:#15d5ee;stroke-linecap:round;stroke-linejoin:round;stroke-dasharray:0,2;opacity:0.88"/><path d="M289.19,53.8c1.13.1,2.27.19,3.41.27a116,116,0,0,1,14,1.53c11.9,2.38,21.65,11,26.86,21.78A44.36,44.36,0,0,1,337.62,97" style="fill:none;stroke:#15d5ee;stroke-linecap:round;stroke-linejoin:round;stroke-dasharray:0,2;opacity:0.88"/><path d="M40.75,143l-27.11,9.77-1.14.49C6,157,3.27,164.65,3.27,171.85l.1,1.63,8.32,86.91.19,1.47c.74,3.41,2.22,7,5.69,8.44a36.61,36.61,0,0,0,5.56,1.44,9.14,9.14,0,0,0,5.33-.24l1.08-.5,28-14.8" style="fill:none;stroke:#15d5ee;stroke-linecap:round;stroke-linejoin:round;opacity:0.88"/><line x1="89.12" y1="152.27" x2="89.03" y2="150.74" style="fill:none;stroke:#15d5ee;stroke-linecap:round;stroke-linejoin:round;opacity:0.88"/><line x1="93.19" y1="152.93" x2="93.09" y2="151.39" style="fill:none;stroke:#15d5ee;stroke-linecap:round;stroke-linejoin:round;opacity:0.88"/><polyline points="420.89 170.63 421.33 170.62 423.82 170.46 426.21 170.24 428.48 169.95 430.61 169.59 432.59 169.17" style="fill:none;stroke:#15d5ee;stroke-linecap:round;stroke-linejoin:round;stroke-dasharray:0,2;opacity:0.88"/><path d="M485.21,233.92a371.53,371.53,0,0,1,7-41.66,188.76,188.76,0,0,1,5.7-19.48,74.71,74.71,0,0,1,3.28-8.16c1.45-3,3-6.66,5.46-9a7.93,7.93,0,0,1,3.38-1.93l4.29.63a6.54,6.54,0,0,1,1.83,2c1.92,3.37,2.27,7.81,2.58,11.59" style="fill:none;stroke:#15d5ee;stroke-linecap:round;stroke-linejoin:round;opacity:0.88"/><polyline points="479.52 289.63 478.81 297.7 478.69 299.29 478.26 302.5" style="fill:none;stroke:#15d5ee;stroke-linecap:round;stroke-linejoin:round;opacity:0.88"/><polyline points="483.43 192.24 483.06 192.2 482.59 192.36 482.28 192.56 481.79 193.02 470.1 205.91 465.23 211.27 451.09 226.86 450.47 227.63 449.86 228.57 449.24 229.67 448.64 230.91 448.05 232.3 447.47 233.8 446.91 235.42 446.38 237.14 445.87 238.94 445.4 240.81 444.95 242.75 444.55 244.73 444.19 246.75 443.87 248.79 443.61 250.83 443.46 252.19 443.28 254.22 442.01 271.65 438.99 313.04 435.49 360.88 435.38 362.66 435.34 364.3 435.36 365.8 435.44 367.15 435.56 368.36 435.75 369.4 435.98 370.29 436.26 371.01 436.58 371.57 437.02 372.04 437.36 372.18" style="fill:none;stroke:#15d5ee;stroke-linecap:round;stroke-linejoin:round;opacity:0.88"/><path d="M352.92,108.26c-.32,7.27-.75,14.54-1.58,21.77-.15,1.24-.3,2.48-.47,3.72" style="fill:none;stroke:#15d5ee;stroke-linecap:round;stroke-linejoin:round;stroke-dasharray:0,2;opacity:0.88"/><polyline points="480.23 191.76 480.62 187.2 480.8 185.41 480.94 184.21 481.18 182.42 481.46 180.65 481.77 178.91 482.11 177.21 482.48 175.56 482.87 173.97 483.28 172.46 483.71 171.03 484.16 169.69 484.62 168.46 485.09 167.34 485.57 166.34 486.04 165.48 486.52 164.77 486.99 164.2 495.82 155.22 497.71 153.29 510.84 139.91 511.23 139.59 511.47 139.47 511.8 139.42 518.98 140.3 519.28 140.41 519.55 140.66 519.79 141.05 520 141.58 520.18 142.24 520.33 143.02 520.44 143.92 520.52 144.93 520.56 146.05 520.58 147.26 520.55 148.58 520.49 149.98 520.38 151.47 520.24 153.04 518.77 167.92 518.94 171.86 519.1 172.98 519.21 173.38 519.75 176.5" style="fill:none;stroke:#15d5ee;stroke-linecap:round;stroke-linejoin:round;opacity:0.88"/><path d="M360.32,107.57c-.35,7.55-.9,15.09-1.75,22.6" style="fill:none;stroke:#15d5ee;stroke-linecap:round;stroke-linejoin:round;opacity:0.88"/><path d="M487.84,266.69a45.4,45.4,0,0,0,1.5,7.13,9,9,0,0,0,1.41,2.77c.81,1.2,1.36,1.23,2.77,1.67" style="fill:none;stroke:#15d5ee;stroke-linecap:round;stroke-linejoin:round;opacity:0.88"/><line x1="98.57" y1="153.79" x2="98.72" y2="152.3" style="fill:none;stroke:#15d5ee;stroke-linecap:round;stroke-linejoin:round;opacity:0.88"/><polyline points="453.23 350.55 453.23 350.55 452.53 351.58 440.3 370.02 439.72 370.83 439.34 371.27 438.79 371.77 438.28 372.09 437.8 372.22 437.36 372.18 437.02 372.04 436.41 371.95 429.03 370.16 428.6 369.94 428.22 369.55 427.89 368.99 427.6 368.26 427.35 367.38 427.16 366.33 427.02 365.13 426.93 363.78 426.9 362.29 426.94 360.65 427.04 358.87 433.8 261.58 434.43 252.59 434.6 250.57 434.74 249.22 435 247.18 435.32 245.15 435.68 243.15 436.08 241.17 436.53 239.25 437 237.38 437.52 235.59 438.06 233.88 438.62 232.27 439.21 230.77 439.81 229.4 440.42 228.16 441.05 227.07 441.68 226.14 442.31 225.38 459.39 207.15 473.75 191.81 474.25 191.36 474.57 191.16 475.02 191.01 475.43 191.04 480.23 191.76 483.06 192.2 483.43 192.24 483.8 192.43 484.13 192.78 484.43 193.29 484.69 193.95 484.92 194.76 485.1 195.69 485.24 196.76 485.34 197.96 485.39 199.28 485.4 200.7 485.37 202.24 485.29 203.88 485.15 205.62 483.39 225.76" style="fill:none;stroke:#15d5ee;stroke-linecap:round;stroke-linejoin:round;opacity:0.88"/><path d="M476.57,209.88c-17.45,2.9-25.79,53-28.21,65.63a270.48,270.48,0,0,0-5,40.29c-.39,10.26-2.09,28,6.79,35.24" style="fill:none;stroke:#15d5ee;stroke-linecap:round;stroke-linejoin:round;opacity:0.88"/><path d="M514.33,154.26c-3.15-.44-5.89,3.44-6.7,4.58a37.29,37.29,0,0,0-3.58,6.68,130.19,130.19,0,0,0-5.76,16.18,262,262,0,0,0-7.37,32.79c-1.05,6.64-1.89,13.28-2.63,20" style="fill:none;stroke:#15d5ee;stroke-linecap:round;stroke-linejoin:round;opacity:0.88"/><path d="M485,267.14c.37,2.59.79,5.82,2.21,8.07a5,5,0,0,0,1.72,2,11.09,11.09,0,0,0,1.72.54l.67.12,2.24.43c2.14.23,4.24-3.26,5-4.43a62.87,62.87,0,0,0,4.93-9.93" style="fill:none;stroke:#15d5ee;stroke-linecap:round;stroke-linejoin:round;opacity:0.88"/><path d="M450.15,351a6.57,6.57,0,0,0,3.69-.76c7-3.1,11.61-15.91,14.24-22.16" style="fill:none;stroke:#15d5ee;stroke-linecap:round;stroke-linejoin:round;opacity:0.88"/><path d="M476.57,209.88c5,1.07,6.13,10.85,6.82,15.88l.53,7.94" style="fill:none;stroke:#15d5ee;stroke-linecap:round;stroke-linejoin:round;opacity:0.88"/><polyline points="349.47 103.04 350.21 103.05 351.38 103.05 353.07 103.02 354.7 102.95 356.26 102.85 357.75 102.71 359.18 102.54 360.53 102.33 361.82 102.09 362.63 101.91 363.36 101.73 364.33 101.43 365.14 101.13 365.79 100.8 366.29 100.46 366.63 100.1 366.83 99.71 366.85 99.34" style="fill:none;stroke:#15d5ee;stroke-linecap:round;stroke-linejoin:round;opacity:0.88"/><polyline points="331.07 98.62 331.07 98.84 331.17 99.13 331.42 99.51 331.83 99.88 332.39 100.23 333.1 100.58 333.98 100.92" style="fill:none;stroke:#15d5ee;stroke-linecap:round;stroke-linejoin:round;opacity:0.88"/><path d="M521.48,206a171.36,171.36,0,0,1-4.79,27.06" style="fill:none;stroke:#15d5ee;stroke-linecap:round;stroke-linejoin:round;opacity:0.88"/><path d="M483,266.76c-.14,9.7-2.5,20.23-5.31,29.51" style="fill:none;stroke:#15d5ee;stroke-linecap:round;stroke-linejoin:round;opacity:0.88"/><polyline points="508.87 261.43 508.55 262.82 508.21 264.17 507.86 265.46 507.49 266.68 507.12 267.83 506.74 268.9 506.35 269.88 505.96 270.75 505.57 271.51 505.19 272.16 505.17 272.18 482.12 306.96" style="fill:none;stroke:#15d5ee;stroke-linecap:round;stroke-linejoin:round;opacity:0.88"/><path d="M490.53,261c.29,1.83.73,7,3.11,7.69,3.8,1.06,9.4-4.36,9.93-5a17.39,17.39,0,0,0,1.67-3" style="fill:none;stroke:#15d5ee;stroke-linecap:round;stroke-linejoin:round;opacity:0.88"/><path d="M490.37,234.8c.95-11.84,3.26-23.52,5.64-35.14,1.17-5.69,2.88-11.26,4.53-16.84,1.54-5.21,3.57-10.82,6.58-15.38,1-1.49,1.69-3,3.38-3.75a3.79,3.79,0,0,1,3.91.95,17.55,17.55,0,0,1,3,4.11A11.31,11.31,0,0,1,519.1,173" style="fill:none;stroke:#15d5ee;stroke-linecap:round;stroke-linejoin:round;opacity:0.88"/><polyline points="333.17 98.27 334.15 98.69 335.93 98.71 336.77 98.42 336.81 98.08" style="fill:none;stroke:#15d5ee;stroke-linecap:round;stroke-linejoin:round;opacity:0.88"/><line x1="357.66" y1="137.09" x2="422.46" y2="145.59" style="fill:none;stroke:#ca2584;stroke-linecap:round;stroke-linejoin:round;stroke-width:0.5px;opacity:0.5"/><path d="M89,150.74l-.45-7.11-.13-1.44a29.25,29.25,0,0,0-1.3-4.88c-1.24-2.45-2.89-4.57-5.76-5.37l-.83-.11-4.36-.66-.91-.11a9.19,9.19,0,0,0-1.58.13l-1,.28L40.75,143" style="fill:none;stroke:#ca2584;stroke-linecap:round;stroke-linejoin:round;stroke-width:0.5px;opacity:0.5"/><polyline points="93.09 151.39 91.77 129.76 91.72 128.27 91.74 127.29 91.84 125.83 92.03 124.38 92.3 122.97 92.64 121.6 93.05 120.28 93.53 119.02 94.07 117.81 94.68 116.69 95.34 115.64 96.05 114.69 96.81 113.83 97.61 113.08 98.45 112.44 99.33 111.93 100.24 111.55 117.54 105.57 147.51 95.22 148.29 95.02 148.96 94.94 149.56 94.97" style="fill:none;stroke:#ca2584;stroke-linecap:round;stroke-linejoin:round;stroke-width:0.5px;opacity:0.5"/><polyline points="156.06 110.62 155.89 106.15 155.81 104.83 155.65 103.57 155.43 102.37 155.14 101.25 154.8 100.2 154.39 99.23 153.94 98.35 153.44 97.55 152.88 96.86 152.29 96.26 151.66 95.76 150.99 95.38 150.29 95.12 149.56 94.97 148.96 94.94 144.68 94.37 143.92 94.36 143.41 94.41 142.62 94.62 95.11 110.85 94.2 111.23 93.32 111.74 92.48 112.38 91.67 113.12 90.91 113.98 90.2 114.93 89.53 115.97 88.93 117.09 88.38 118.29 87.9 119.55 87.49 120.87 87.15 122.24 86.88 123.64 86.7 125.08 86.6 126.54 86.58 127.52 86.63 129 87.15 137.31" style="fill:none;stroke:#ca2584;stroke-linecap:round;stroke-linejoin:round;stroke-width:0.5px;opacity:0.5"/><polyline points="98.72 152.3 98.91 150.53 100.71 141.98 103.36 133.87 106.75 126.48 108.56 123.57 110.75 120.06 115.24 114.82 120.05 110.89 123.16 109.32 125 108.39 129.95 107.37 134.75 107.83 156.06 110.62 334.11 134" style="fill:none;stroke:#ca2584;stroke-linecap:round;stroke-linejoin:round;stroke-width:0.5px;opacity:0.5"/><path d="M46.2,143.82l17.57-6.41,14.17-5.15,1-.28a7.12,7.12,0,0,1,2.48,0" style="fill:none;stroke:#ca2584;stroke-linecap:round;stroke-linejoin:round;stroke-width:0.5px;opacity:0.5"/><path d="M23.68,271.87c-4-1.37-5.66-4.87-6.48-8.74l-.2-1.48L8.84,174.48l-.1-1.63c0-7.21,2.72-14.89,9.22-18.66l1.13-.5,27.11-9.87" style="fill:none;stroke:#15d5ee;stroke-linecap:round;stroke-linejoin:round;opacity:0.88"/><polyline points="361.37 96.45 361.53 96.49 361.72 96.53 362.57 96.76 362.66 96.78 363.62 97.07 364.52 97.4 365.28 97.74 365.89 98.09 366.35 98.45 366.66 98.82 366.79 99.08 366.85 99.34 366.83 99.71 366.75 101.71 366.72 102.08 366.72 102.09 366.7 102.51 366.64 104.48 366.61 104.91 366.42 105.29 366.08 105.65 365.58 106" style="fill:none;stroke:#15d5ee;stroke-linecap:round;stroke-linejoin:round;opacity:0.88"/><polyline points="469.24 140.2 459.96 148.33 458.02 150.03 457.79 150.23 443.9 162.39" style="fill:none;stroke:#15d5ee;stroke-linecap:round;stroke-linejoin:round;opacity:0.88"/><polyline points="447.44 152.57 451.26 149.37 462.01 140.18" style="fill:none;stroke:#15d5ee;stroke-linecap:round;stroke-linejoin:round;stroke-dasharray:0,2;opacity:0.88"/><path d="M273.22,30.71l1.82.11,24.22,1.94c4.3.34,8.66.52,12.93,1.16a52.36,52.36,0,0,1,12.09,3.44,57.31,57.31,0,0,1,20,14.17,60.33,60.33,0,0,1,12.48,20.23,70.25,70.25,0,0,1,4.15,24c0,1.14,0,2.27,0,3.4" style="fill:none;stroke:#15d5ee;stroke-linecap:round;stroke-linejoin:round;opacity:0.88"/><g style="opacity:0.88"><path d="M270.59,33.39a8.82,8.82,0,0,1,2.63-2.68" style="fill:none;stroke:#15d5ee;stroke-linecap:round;stroke-linejoin:round"/></g><g style="opacity:0.88"><path d="M268,44.07c0-.5,0-1,0-1.51a23.85,23.85,0,0,1,1-5.88" style="fill:none;stroke:#15d5ee;stroke-linecap:round;stroke-linejoin:round"/></g><g style="opacity:0.88"><path d="M271.43,54.05a8.11,8.11,0,0,1-2.32-3.12c-.13-.4-.25-.79-.36-1.18" style="fill:none;stroke:#15d5ee;stroke-linecap:round;stroke-linejoin:round"/></g><path d="M336.77,98.42c.24-7.83-.82-15.24-4.56-22.24a37.3,37.3,0,0,0-15.4-15.48,35,35,0,0,0-12-3.56l-33.38-3.09" style="fill:none;stroke:#15d5ee;stroke-linecap:round;stroke-linejoin:round;opacity:0.88"/><path d="M354.3,100.43l1.07-.31,1.83.08.77.39m-3.67-.16,0,1.1.57.36L357,102l.95-.34,0-1-1.07.31-1.84-.08-.76-.39" style="fill:none;stroke:#15d5ee;stroke-linecap:round;stroke-linejoin:round;opacity:0.88"/><path d="M341.54,100.82c-4.33-1-4.77-2.4-4.77-2.4" style="fill:none;stroke:#15d5ee;stroke-linecap:round;stroke-linejoin:round;opacity:0.88"/><path d="M354.26,101.5a43.26,43.26,0,0,1-5.66.11c-1.26,0-2.38-.12-3.39-.22" style="fill:none;stroke:#15d5ee;stroke-linecap:round;stroke-linejoin:round;opacity:0.88"/><path d="M360.9,99.18s-.42,1-2.94,1.69" style="fill:none;stroke:#15d5ee;stroke-linecap:round;stroke-linejoin:round;opacity:0.88"/><path d="M331,100.55l.05-1.71v-.22s.07-.29.09-.39c.2-.61,2.81-2,5.68-2" style="fill:none;stroke:#15d5ee;stroke-linecap:round;stroke-linejoin:round;opacity:0.88"/><polyline points="365.58 106 364.93 106.33 364.76 106.4 364.12 106.65 363.32 106.89 363.25 106.92 363.15 106.95 362.42 107.14 362.25 107.17 361.62 107.32 360.33 107.57 358.98 107.78 357.69 107.94 357.56 107.96 357.12 108 356.61 108.08 356.43 108.06 356.24 108.08 356.06 108.09 354.63 108.19 354.51 108.2 354.09 108.22 352.92 108.26 352.88 108.27 351.19 108.29 350.03 108.29 349.28 108.28" style="fill:none;stroke:#15d5ee;stroke-linecap:round;stroke-linejoin:round;opacity:0.88"/><polyline points="354.09 108.22 354.08 108.6 354.6 109.02 356.39 109.16 357.65 108.88 357.69 107.94" style="fill:none;stroke:#15d5ee;stroke-linecap:round;stroke-linejoin:round;opacity:0.88"/><polyline points="518.98 140.3 518.66 140.35 518.42 140.47 518.05 140.79 506.26 153.21 505.37 154.14 503.4 156.21 494.8 165.27 494.33 165.83 493.87 166.55 493.4 167.42 492.93 168.42 492.47 169.54 492.02 170.78 491.58 172.12 491.15 173.56 490.74 175.09 490.35 176.68 489.98 178.34 489.64 180.04 489.33 181.79 489.05 183.57 488.81 185.36 488.66 186.56 488.48 188.36 485.56 221.4 484.46 233.8" style="fill:none;stroke:#15d5ee;stroke-linecap:round;stroke-linejoin:round;opacity:0.88"/><path d="M480.66,233.15c-5-18.93-13.73-6.21-18.34,4.71-5.84,13.79-9.37,29.05-11.84,43.77-2.42,14.47-5,30.71-2.83,45.36,2.24,15.41,11.36,11.3,17.45.48" style="fill:none;stroke:#15d5ee;stroke-linecap:round;stroke-linejoin:round;opacity:0.88"/><polyline points="349.37 105.89 350.11 105.89 351.28 105.9 352.97 105.87 354.59 105.8 356.15 105.7 357.64 105.56 359.07 105.39 360.42 105.17 361.71 104.93 362.52 104.75 364.21 104.27 365.02 103.95 365.67 103.63 366.17 103.28 366.7 102.51 366.72 102.09 366.7 102.51 365.69 103.18 365.04 103.51 364.23 103.82 362.53 104.3 361.73 104.48 360.44 104.73 359.08 104.94 357.66 105.11 356.17 105.25 354.61 105.36 352.98 105.42 351.29 105.45 350.13 105.45 349.38 105.44" style="fill:none;stroke:#15d5ee;stroke-linecap:round;stroke-linejoin:round;opacity:0.88"/><line x1="474.8" y1="152.46" x2="495.82" y2="155.22" style="fill:none;stroke:#15d5ee;stroke-linecap:round;stroke-linejoin:round;opacity:0.88"/><line x1="457.79" y1="150.23" x2="465.9" y2="151.29" style="fill:none;stroke:#15d5ee;stroke-linecap:round;stroke-linejoin:round;opacity:0.88"/><path d="M429.1,160.14c.29-2.95,3.49-5.78,7.51-5.16a7.92,7.92,0,0,1,5.13,3.21c1.24,1.75,2.16,4.81,1.35,7a6.54,6.54,0,0,1-2.4,3.1c-.12.1-.53.36-.53.36l-.57.3-1.27.46-.45.1-.45.07-.66.06h-.67l-.65-.07-.65-.14-.65-.2-.13,0" style="fill:none;stroke:#15d5ee;stroke-linecap:round;stroke-linejoin:round;opacity:0.88"/><polygon points="432.29 158.97 431.69 159.28 430.85 158.75 430.87 157.92 431.49 157.59 432.23 158.06 432.29 158.97" style="fill:none;stroke:#15d5ee;stroke-linecap:round;stroke-linejoin:round;opacity:0.88"/><polygon points="436.15 157.24 435.56 157.56 434.71 157.02 434.73 156.19 435.36 155.87 436.1 156.33 436.15 157.24" style="fill:none;stroke:#15d5ee;stroke-linecap:round;stroke-linejoin:round;opacity:0.88"/><polygon points="441.31 160.37 440.72 160.68 439.88 160.15 439.89 159.32 440.52 158.99 441.26 159.46 441.31 160.37" style="fill:none;stroke:#15d5ee;stroke-linecap:round;stroke-linejoin:round;opacity:0.88"/><polygon points="442.15 165.21 441.56 165.53 440.71 164.99 440.73 164.16 441.35 163.84 442.09 164.3 442.15 165.21" style="fill:none;stroke:#15d5ee;stroke-linecap:round;stroke-linejoin:round;opacity:0.88"/><polygon points="438.57 168.75 437.98 169.06 437.13 168.53 437.15 167.69 437.77 167.37 438.51 167.83 438.57 168.75" style="fill:none;stroke:#15d5ee;stroke-linecap:round;stroke-linejoin:round;opacity:0.88"/><polygon points="462.85 133.41 462.36 133.68 461.58 133.22 461.51 132.49 462.03 132.21 462.72 132.61 462.85 133.41" style="fill:none;stroke:#15d5ee;stroke-linecap:round;stroke-linejoin:round;opacity:0.88"/><polygon points="466.07 131.91 465.58 132.18 464.79 131.71 464.73 130.99 465.25 130.71 465.94 131.11 466.07 131.91" style="fill:none;stroke:#15d5ee;stroke-linecap:round;stroke-linejoin:round;opacity:0.88"/><polygon points="470.86 134.62 470.37 134.9 469.58 134.43 469.52 133.71 470.04 133.43 470.73 133.83 470.86 134.62" style="fill:none;stroke:#15d5ee;stroke-linecap:round;stroke-linejoin:round;opacity:0.88"/><polygon points="472.02 138.84 471.53 139.11 470.75 138.64 470.69 137.92 471.2 137.64 471.89 138.04 472.02 138.84" style="fill:none;stroke:#15d5ee;stroke-linecap:round;stroke-linejoin:round;opacity:0.88"/><polyline points="468.68 140.87 469.09 141.11 469.22 141.91 468.73 142.18 467.95 141.71" style="fill:none;stroke:#15d5ee;stroke-linecap:round;stroke-linejoin:round;opacity:0.88"/><polyline points="437.45 160.68 436.07 161.26 434.48 161.78 432.7 162.25 430.76 162.66 428.67 163 426.43 163.28 424.08 163.5 421.33 163.63" style="fill:none;stroke:#15d5ee;stroke-linecap:round;stroke-linejoin:round;stroke-dasharray:0,2;opacity:0.88"/><path d="M473.07,137.94l.13.27.13.34.1.4.08.46.07.51.05.57,0,.62v.66l0,.71,0,.76-.07.87c-.28,3.07-.57,6.15-.86,9.22" style="fill:none;stroke:#15d5ee;stroke-linecap:round;stroke-linejoin:round;stroke-dasharray:0,2;opacity:0.88"/><path d="M466.51,142.59l-.61,8.7-.2,2.69c1.22,2.37,8,2.42,8.93.52l.17-2,.79-9.45a40.28,40.28,0,0,0,0-6.31l-.11-.8-.14-.71-.16-.62a7,7,0,0,0-2.69-3.89,4.94,4.94,0,0,0-4.84-.56" style="fill:none;stroke:#15d5ee;stroke-linecap:round;stroke-linejoin:round;opacity:0.88"/><path d="M394.2,333c6.79,1.64,15.72-14.34,17.48-17.49,4.71-8.43,6.52-16.06,9.26-26.26,4.63-17.26,7.68-35.76,7.25-53.67-.21-8.66-.16-19.23-5.24-26.64a7.29,7.29,0,0,0-3.84-3.15" style="fill:none;stroke:#6dab8d;stroke-linecap:round;stroke-linejoin:round;opacity:0.88"/><path d="M244.31,177.32,98.57,153.79l-.34,0-5-.81-4.07-.66L63,148.05c-19-.42-31.83,14.49-38.68,31.06s-8.36,35.67-2.63,52.59A32.76,32.76,0,0,0,40.7,252.38l16.79,3.82L394.2,333" style="fill:none;stroke:#6dab8d;stroke-linecap:round;stroke-linejoin:round;opacity:0.88"/><g style="opacity:0.5"><polyline points="381.33 205.51 382.22 186.92 382.42 184.87 382.64 183.66 383.14 181.84 383.79 180.12 384.6 178.51 385.56 177 386.66 175.61 387.9 174.35 389.25 173.21 390.72 172.21 392.29 171.35 393.96 170.66 395.71 170.12 397.54 169.76 399.43 169.57 401.39 169.57 403.56 169.78 406.08 170.1 407.97 170.29 410.67 170.51 413.4 170.65 416.1 170.71 418.75 170.7 420.89 170.63" style="fill:none;stroke:#ca2584;stroke-linecap:round;stroke-linejoin:round;stroke-width:0.5px;stroke-dasharray:0,2;opacity:0.75"/><polyline points="420.85 171.29 418.25 171.41 415.78 171.41 413.27 171.35 410.73 171.22 408.2 171.02 406.47 170.84 404.11 170.53 402.07 170.34 400.23 170.34 398.88 170.47 397.37 170.77 395.75 171.27 394.22 171.91 392.78 172.7 391.42 173.63 390.18 174.68 389.05 175.84 388.5 176.54 387.61 177.93 386.86 179.43 386.25 181.02 385.79 182.72 385.59 183.81 385.4 185.76 384.7 199.98 384.51 203.89 384.48 203.92 384.44 203.95 384.07 204.52 384 204.56 383.21 205.02 383.08 205.06 381.33 205.51 381.18 205.52 379.15 205.6 379.03 205.59 377.46 205.4 376.2 205.03 376.11 204.98 374.95 204.26 374.93 204.19 374.67 203.38 374.89 198.4 375.51 184.9 375.75 182.37 376.06 180.58 376.71 178.12 377.6 175.75 378.7 173.52 380.01 171.44 381.52 169.5 381.99 168.93 383.69 167.16 385.55 165.56 387.57 164.16 389.75 162.96 392.06 161.97 394.49 161.21 397.04 160.68 399.68 160.4 400.23 160.34 402.92 160.33 405.52 160.56 407.87 160.86 409.31 161.01 411.51 161.18 413.69 161.29 415.84 161.34 417.96 161.34 420.01 161.27 421.48 161.19" style="fill:none;stroke:#ca2584;stroke-linecap:round;stroke-linejoin:round;stroke-width:0.5px;opacity:0.75"/><polyline points="421.33 163.63 419.08 163.73 416.46 163.75 413.8 163.69 411.1 163.55 408.42 163.35 406.56 163.16 403.89 162.83 401.22 162.59 398.61 162.6 396.08 162.86 393.63 163.35 391.3 164.08 389.08 165.02 386.99 166.17 385.04 167.51 383.25 169.04 381.62 170.73 380.17 172.59 378.9 174.6 377.83 176.76 376.97 179.04 376.34 181.42 376.03 183.14 375.8 185.6 374.95 204.26" style="fill:none;stroke:#ca2584;stroke-linecap:round;stroke-linejoin:round;stroke-width:0.5px;stroke-dasharray:0,2;opacity:0.75"/><polyline points="374.89 198.4 342.53 193.18 334.85 191.94 325.31 190.4 319.13 189.4 318.45 189.29 244.31 177.32" style="fill:none;stroke:#ca2584;stroke-linecap:round;stroke-linejoin:round;stroke-width:0.5px;opacity:0.75"/><line x1="419.11" y1="205.74" x2="384.7" y2="199.98" style="fill:none;stroke:#ca2584;stroke-linecap:round;stroke-linejoin:round;stroke-width:0.5px;opacity:0.75"/><g style="opacity:0.75"><line x1="325.28" y1="171.53" x2="325.28" y2="171.53" style="fill:none;stroke:#ca2584;stroke-linecap:round;stroke-linejoin:round;stroke-width:0.5px"/><path d="M324.61,173.52c-1.67,5-3.41,9.93-5.14,14.89" style="fill:none;stroke:#ca2584;stroke-linecap:round;stroke-linejoin:round;stroke-width:0.5px;stroke-dasharray:0,2.0995633602142334"/><line x1="319.12" y1="189.4" x2="319.12" y2="189.4" style="fill:none;stroke:#ca2584;stroke-linecap:round;stroke-linejoin:round;stroke-width:0.5px"/></g><g style="opacity:0.75"><line x1="350.87" y1="133.75" x2="350.87" y2="133.75" style="fill:none;stroke:#ca2584;stroke-linecap:round;stroke-linejoin:round;stroke-width:0.5px"/><path d="M350.59,135.72q-1.18,8-3.08,15.86c-.83,3.46-1.82,6.89-2.81,10.31" style="fill:none;stroke:#ca2584;stroke-linecap:round;stroke-linejoin:round;stroke-width:0.5px;stroke-dasharray:0,1.9888482093811035"/><line x1="344.43" y1="162.85" x2="344.43" y2="162.85" style="fill:none;stroke:#ca2584;stroke-linecap:round;stroke-linejoin:round;stroke-width:0.5px"/></g><g style="opacity:0.75"><line x1="337.22" y1="107.06" x2="337.22" y2="107.06" style="fill:none;stroke:#ca2584;stroke-linecap:round;stroke-linejoin:round;stroke-width:0.5px"/><path d="M337.14,109.09c-.26,6.08-.62,12.16-1.31,18.21a164.28,164.28,0,0,1-3.47,20.3c-.87,3.59-1.85,7.14-2.88,10.68" style="fill:none;stroke:#ca2584;stroke-linecap:round;stroke-linejoin:round;stroke-width:0.5px;stroke-dasharray:0,2.037692070007324"/><line x1="329.2" y1="159.26" x2="329.2" y2="159.26" style="fill:none;stroke:#ca2584;stroke-linecap:round;stroke-linejoin:round;stroke-width:0.5px"/></g><path d="M358.57,130.17l-.12,1A199,199,0,0,1,354.4,154c-1,4.3-2.19,8.54-3.4,12.79" style="fill:none;stroke:#ca2584;stroke-linecap:round;stroke-linejoin:round;stroke-width:0.5px;opacity:0.75"/><polyline points="324.94 168.93 325.3 167.89 324.87 166.93 323.02 166.27 321.89 166.67 321.52 167.71 322.13 168.62 323.84 169.22 324.94 168.93" style="fill:none;stroke:#ca2584;stroke-linecap:round;stroke-linejoin:round;stroke-width:0.5px;opacity:0.75"/><path d="M336.42,106.87c-.36,9-1,18-2.28,26.87-.59,4.31-1.45,8.58-2.39,12.83-.4,1.84-.85,3.67-1.33,5.49-.34,1.29-.68,2.57-1,3.86-.22.79-1,3.36-1,3.36s-2.26.22-2.92.37a7.14,7.14,0,0,0-3.15,1.37c-1.6,1.39-1.78,4-2.61,5.88" style="fill:none;stroke:#ca2584;stroke-linecap:round;stroke-linejoin:round;stroke-width:0.5px;opacity:0.75"/><polyline points="333.98 100.92 335 101.25 336.19 101.56 337.04 101.76 337.93 101.95 339.31 102.2 340.76 102.42 342.28 102.61 343.87 102.77 345.52 102.89 347.23 102.97 349.02 103.03 349.47 103.04" style="fill:none;stroke:#ca2584;stroke-linecap:round;stroke-linejoin:round;stroke-width:0.5px;opacity:0.75"/><polyline points="325.06 168.5 324.44 167.6 322.74 166.99 321.64 167.29" style="fill:none;stroke:#ca2584;stroke-linecap:round;stroke-linejoin:round;stroke-width:0.5px;opacity:0.75"/><polyline points="352.05 179.12 352.41 178.08 351.98 177.12 350.12 176.46 348.99 176.86 348.63 177.9 349.24 178.81 350.95 179.41 352.05 179.12" style="fill:none;stroke:#ca2584;stroke-linecap:round;stroke-linejoin:round;stroke-width:0.5px;opacity:0.75"/><polyline points="352.17 178.69 351.55 177.79 349.84 177.18 348.75 177.48" style="fill:none;stroke:#ca2584;stroke-linecap:round;stroke-linejoin:round;stroke-width:0.5px;opacity:0.75"/><polyline points="341.34 107.75 341.32 108.56 342.07 108.96 343.9 109.04 344.97 108.72 344.99 108.11" style="fill:none;stroke:#ca2584;stroke-linecap:round;stroke-linejoin:round;stroke-width:0.5px;opacity:0.75"/><polyline points="349.28 108.28 348.84 108.27 347.06 108.22 345.34 108.13 344.99 108.11 342.87 107.93 341.34 107.75 340.6 107.66 339.15 107.43 337.77 107.17 337.22 107.06 336.89 106.98 336.42 106.87 336.03 106.78 335.55 106.65 334.85 106.45 333.93 106.15 333.83 106.12 332.96 105.77 332.24 105.42 331.68 105.05 331.28 104.68 331.02 104.3 330.94 104.03 330.92 103.77 330.99 101.64 331.05 101.45 331 100.97 331.02 100.55" style="fill:none;stroke:#ca2584;stroke-linecap:round;stroke-linejoin:round;stroke-width:0.5px;opacity:0.75"/><polyline points="321.09 163.82 321.65 163.31 322.36 162.87 323.2 162.5 324.18 162.2 325.31 161.98 327.48 161.76 328.4 161.74 329.82 161.77 331.29 161.88 332.81 162.08 334.36 162.36 335.96 162.72 337.61 163.16 339.3 163.68 340.43 164.07 341.52 164.48 343.09 165.12 344.58 165.8 345.98 166.53 347.31 167.29 348.56 168.1 349.72 168.94 350.8 169.83 352.05 171.02 352.81 171.87 353.41 172.71 353.86 173.51 354.15 174.3 354.29 175.05 354.28 175.79 354.16 176.32" style="fill:none;stroke:#ca2584;stroke-linecap:round;stroke-linejoin:round;stroke-width:0.5px;opacity:0.75"/><path d="M348,176.46c-1.74,5.6-3.59,11.16-5.47,16.72" style="fill:none;stroke:#ca2584;stroke-linecap:round;stroke-linejoin:round;stroke-width:0.5px;opacity:0.75"/><polyline points="320.49 164.77 320.62 164.43 320.94 163.92 321.22 163.44 321.79 162.92 322.49 162.48 323.34 162.11 324.32 161.81 325.45 161.59 327.62 161.37 328.54 161.35 329.96 161.38 331.43 161.49 332.94 161.69 334.5 161.97 336.1 162.32 337.75 162.77 339.44 163.29 340.57 163.68 341.66 164.08 343.23 164.73 344.71 165.41 346.12 166.13 347.44 166.9 348.69 167.71 349.85 168.55 350.93 169.44 352.19 170.62 352.94 171.48 353.54 172.31 353.99 173.13 354.28 173.91 354.42 174.66 354.47 175.33 354.4 175.63 354.4 175.65 354.27 176 354.25 176.11 354.16 176.32 354.12 176.49 353.7 177.73 353.57 178.1 353.42 178.58" style="fill:none;stroke:#ca2584;stroke-linecap:round;stroke-linejoin:round;stroke-width:0.5px;opacity:0.75"/><g style="opacity:0.75"><line x1="341.14" y1="173.28" x2="341.14" y2="173.28" style="fill:none;stroke:#ca2584;stroke-linecap:round;stroke-linejoin:round;stroke-width:0.5px"/><path d="M340.53,175.15c-1.76,5.3-3.56,10.58-5.36,15.86" style="fill:none;stroke:#ca2584;stroke-linecap:round;stroke-linejoin:round;stroke-width:0.5px;stroke-dasharray:0,1.9687223434448242"/><line x1="334.85" y1="191.94" x2="334.85" y2="191.94" style="fill:none;stroke:#ca2584;stroke-linecap:round;stroke-linejoin:round;stroke-width:0.5px"/></g><path d="M318.45,189.29q3.71-10.62,7.42-21.23" style="fill:none;stroke:#ca2584;stroke-linecap:round;stroke-linejoin:round;stroke-width:0.5px;opacity:0.75"/><polyline points="349.38 105.44 348.93 105.43 347.15 105.38 345.44 105.29 343.79 105.17 342.21 105.01 340.69 104.82 339.24 104.6 337.86 104.34 336.97 104.15 336.12 103.95 333.91 103.3 333.04 102.96 332.32 102.61 331.22 101.91 331.05 101.45 331.21 102.05 331.75 102.69 332.31 103.05 333.02 103.4 333.89 103.74 336.1 104.4 336.96 104.6 337.85 104.79 339.23 105.05 340.68 105.27 342.19 105.46 343.77 105.61 345.42 105.73 347.14 105.83 348.92 105.88 349.37 105.89" style="fill:none;stroke:#ca2584;stroke-linecap:round;stroke-linejoin:round;stroke-width:0.5px;opacity:0.75"/><polyline points="328.4 159.28 329.2 159.26 329.27 159.26 330.69 159.29 332.16 159.4 333 159.51 333.67 159.59 333.72 159.6 335.23 159.87 335.53 159.93 336.22 160.09 336.83 160.23 338.48 160.67 340.17 161.19 341.29 161.58 342.38 161.98 343.94 162.62 344.43 162.84 346.84 164.03 347.21 164.25 348.16 164.8 348.34 164.92 349.4 165.6 350.56 166.45 351 166.81 351.65 167.34 352.3 167.94 352.89 168.53 353.65 169.39 354.25 170.22 354.69 171.03 354.98 171.82 355.12 172.58 355.11 173.32 354.94 174.03 354.47 175.33 354.27 176 354.25 176.11" style="fill:none;stroke:#ca2584;stroke-linecap:round;stroke-linejoin:round;stroke-width:0.5px;opacity:0.75"/><path d="M346.37,181.64s4.62.45,6.45-2a4.09,4.09,0,0,0-.07-4.73c-1.87-3-5.24-5.11-8.32-6.69-6-3-13.81-5.46-20.55-4-1.87.41-4.11,1.27-4.34,3.4-.42,3.88,4.27,6.34,4.27,6.34" style="fill:none;stroke:#ca2584;stroke-linecap:round;stroke-linejoin:round;stroke-width:0.5px;opacity:0.75"/><path d="M331,167.29a14.08,14.08,0,0,0-3.79.3,6.1,6.1,0,0,0-1.36.47" style="fill:none;stroke:#ca2584;stroke-linecap:round;stroke-linejoin:round;stroke-width:0.5px;opacity:0.75"/><path d="M343.71,171.7c-.66-.43-1.35-.82-2-1.17a29.27,29.27,0,0,0-7.7-2.86" style="fill:none;stroke:#ca2584;stroke-linecap:round;stroke-linejoin:round;stroke-width:0.5px;opacity:0.75"/><path d="M348,176.46a4,4,0,0,0-.44-1,10.55,10.55,0,0,0-2.13-2.45" style="fill:none;stroke:#ca2584;stroke-linecap:round;stroke-linejoin:round;stroke-width:0.5px;opacity:0.75"/><path d="M334,167.69l-.95.32-1.71-.39-.6-.66-.24-.27m3.68.48.24-.7-.59-.9-2-.47-.65.39-.3.15-.12.34-.24.71.19-.2.9-.43,1.68.39.91.72-.18.52" style="fill:none;stroke:#ca2584;stroke-linecap:round;stroke-linejoin:round;stroke-width:0.5px;opacity:0.75"/><path d="M346.34,173l-1,0-1.48-.93-.35-.82-.14-.33m3.32,1.66.46-.58-.27-1-1.76-1.1-.73.16-.33,0-.23.28-.46.59.24-.13,1-.11,1.45.92.63,1-.35.44" style="fill:none;stroke:#ca2584;stroke-linecap:round;stroke-linejoin:round;stroke-width:0.5px;opacity:0.75"/></g><polyline points="333.18 98.05 333.15 98.98 333.84 99.58 336.12 99.64 336.78 99.16 336.81 98.08 335.83 97.72 334.02 97.71 333.18 98.05" style="fill:none;stroke:#15d5ee;stroke-linecap:round;stroke-linejoin:round;opacity:0.88"/><polyline points="361.94 98.53 362.92 98.95 364.69 98.97 365.54 98.67 365.58 98.34" style="fill:none;stroke:#15d5ee;stroke-linecap:round;stroke-linejoin:round;opacity:0.88"/><polyline points="361.94 98.31 361.92 99.24 362.61 99.83 364.88 99.89 365.55 99.42 365.58 98.34 364.6 97.98 362.78 97.97 361.94 98.31" style="fill:none;stroke:#15d5ee;stroke-linecap:round;stroke-linejoin:round;opacity:0.88"/><path d="M420.85,171.29l2.12-.1,2.23-.21,2.12-.27,2-.33,1.85-.39,1.68-.45,1.18-.39.34-.11,1.49-.73,2.77-1.42.92-.68c.61-.66,1-3.76-.2-6a4.71,4.71,0,0,0-4.59-2.22l-2.33,1.08-.61.25-.09,0-1.29.41-1.32.34-1.69.35-1.7.27-1.81.23-1.9.17-.52,0" style="fill:none;stroke:#15d5ee;stroke-linecap:round;stroke-linejoin:round;opacity:0.88"/><path d="M432.46,155.6a7.23,7.23,0,0,1,4.67-.86,7.65,7.65,0,0,1,5.13,3.21,8.91,8.91,0,0,1,1.36,7,7.69,7.69,0,0,1-3.46,3.7" style="fill:none;stroke:#15d5ee;stroke-linecap:round;stroke-linejoin:round;opacity:0.88"/><path d="M466.51,142.59c3.61,1.27,6.61-1.32,6-5.57a7.85,7.85,0,0,0-6.85-7c-3-.25-6,1.86-5.75,6.08" style="fill:none;stroke:#15d5ee;stroke-linecap:round;stroke-linejoin:round;opacity:0.88"/><path d="M469.24,140.2c2.44-3.16-2.79-9.61-6.17-6.68l-18,15-7.28,6.3" style="fill:none;stroke:#15d5ee;stroke-linecap:round;stroke-linejoin:round;opacity:0.88"/><path d="M462.39,130.8a6.05,6.05,0,0,1,4.29-.93,7.29,7.29,0,0,1,4.87,3,8.4,8.4,0,0,1,1.28,6.62,4.21,4.21,0,0,1-2.44,2.84" style="fill:none;stroke:#15d5ee;stroke-linecap:round;stroke-linejoin:round;opacity:0.88"/><line x1="450.15" y1="351.04" x2="446.59" y2="350.22" style="fill:none;stroke:#15d5ee;stroke-linecap:round;stroke-linejoin:round;opacity:0.88"/><path d="M476.57,209.88l-3.34-.52c-8.31,1.17-14.85,17.83-17.43,24.74-8.79,23.5-13.59,59.11-15.38,84.11-.46,6.36-.63,27.67,6.17,32" style="fill:none;stroke:#15d5ee;stroke-linecap:round;stroke-linejoin:round;opacity:0.88"/><path d="M40.7,252.38c19,.42,31.84-14.49,38.68-31.07s8.37-35.66,2.63-52.59A32.75,32.75,0,0,0,63,148.05" style="fill:none;stroke:#6dab8d;stroke-linecap:round;stroke-linejoin:round;stroke-dasharray:0,2;opacity:0.25"/><path d="M509.29,261.43c.69,0,1.75-2.85,2.37-6.37s.58-6.38-.1-6.38L490.94,245c-.73,0-1.82,2.86-2.43,6.39s-.52,6.39.22,6.39Z" style="fill:none;stroke:#6dab8d;stroke-linecap:round;stroke-linejoin:round"/><path d="M527.4,186.48c-.51,0-1.37,2.49-1.93,5.55s-.61,5.55-.1,5.55l18.23,2.77c.5,0,1.36-2.48,1.92-5.55s.61-5.55.11-5.55Z" style="fill:none"/><path d="M514.65,238.37c-.52,0-1.4,2.46-2,5.51s-.62,5.54-.11,5.55l18.62,3.15c.51,0,1.39-2.45,2-5.5s.62-5.54.11-5.55Z" style="fill:none"/><path d="M475.77,305.5c-.71,0-1.85,2.95-2.53,6.59s-.66,6.58.05,6.58l21.1,4.45c.71,0,1.74-2.95,2.29-6.6s.42-6.6-.3-6.6Z" style="fill:none"/><g style="opacity:0.88"><path d="M509.29,261.43c-.68,0-.73-2.85-.1-6.37s1.68-6.38,2.37-6.38" style="fill:none;stroke:#6dab8d;stroke-linecap:round;stroke-linejoin:round"/><path d="M543.6,200.35c-.51,0-.46-2.48.1-5.55s1.42-5.55,1.93-5.55" style="fill:none;stroke:#6dab8d;stroke-linecap:round;stroke-linejoin:round"/><path d="M545.63,189.25c.5,0,.45,2.49-.11,5.55s-1.42,5.55-1.92,5.55m-16.2-13.87c-.51,0-1.37,2.49-1.93,5.55s-.61,5.55-.1,5.55m20.26-8.33-18.23-2.77m-2,11.1,18.23,2.77" style="fill:none;stroke:#6dab8d;stroke-linecap:round;stroke-linejoin:round"/><path d="M531.19,252.58c-.52,0-.47-2.49.1-5.54s1.46-5.52,2-5.51" style="fill:none;stroke:#6dab8d;stroke-linecap:round;stroke-linejoin:round"/><path d="M533.26,241.53c.51,0,.47,2.49-.11,5.55s-1.45,5.52-2,5.5m-16.54-14.21c-.52,0-1.4,2.46-2,5.51s-.62,5.54-.11,5.55m20.69-7.9-18.61-3.16m-2.08,11.06,18.62,3.15" style="fill:none;stroke:#6dab8d;stroke-linecap:round;stroke-linejoin:round"/><path d="M494.39,323.12c-.72,0-.86-2.95-.31-6.6s1.58-6.6,2.3-6.6" style="fill:none;stroke:#6dab8d;stroke-linecap:round;stroke-linejoin:round"/><path d="M475.77,305.5c-.71,0-1.85,2.95-2.53,6.59s-.66,6.58.05,6.58l21.1,4.45c.71,0,1.74-2.95,2.29-6.6s.42-6.6-.3-6.6Z" style="fill:none;stroke:#6dab8d;stroke-linecap:round;stroke-linejoin:round"/><path d="M523.76,206.36l-2.28-.34-1.19-.18,0-.05c-2.54-8.9-2-20-.49-29.29l9.22,1.39" style="fill:none;stroke:#6dab8d;stroke-linecap:round;stroke-linejoin:round"/><path d="M476.84,295.57l-6-1.29c-9.28,3.68-15.05,22.26-12.52,31.71l12.17,2.65" style="fill:none;stroke:#6dab8d;stroke-linecap:round;stroke-linejoin:round"/><path d="M503.07,247.15c1.67-6.63,4.05-13.6,9-18.39l3.51.56" style="fill:none;stroke:#6dab8d;stroke-linecap:round;stroke-linejoin:round"/><path d="M492.17,235.19l-1.8-.39-2.08-.35-3.08-.53-.75-.12-.54-.1-3.26-.55-1.72-.29c-2.71,10.19-3,23.09.31,33.2l.73.14.28.06,2.71.5,2,.37,1.62.38" style="fill:none;stroke:#6dab8d;stroke-linecap:round;stroke-linejoin:round"/><path d="M527.44,197.9c-1.28,5.11-2.71,8.46-3.68,8.46-1.29,0-1.17-6.38.27-14.24s3.65-14.23,4.94-14.23c1,0,1.12,3.81.54,8.91" style="fill:none;stroke:#6dab8d;stroke-linecap:round;stroke-linejoin:round"/><path d="M510.11,248.37c.15-1.46.35-3,.6-4.67,1.27-8,3.45-14.41,4.88-14.38,1.07,0,1.37,4.18.94,9.37" style="fill:none;stroke:#6dab8d;stroke-linecap:round;stroke-linejoin:round"/><path d="M514.7,249.78c-1.21,5.18-2.62,8.43-3.69,8.41l-.13,0" style="fill:none;stroke:#6dab8d;stroke-linecap:round;stroke-linejoin:round"/><path d="M491.22,258.25c-1.48,5.47-3.3,9.26-4.64,9.26-1.86,0-2.11-7.23-.56-16.16s4.3-16.16,6.15-16.16c1.43,0,1.91,4.27,1.35,10.3" style="fill:none;stroke:#6dab8d;stroke-linecap:round;stroke-linejoin:round"/><path d="M475.32,319.1c-1.6,5.49-3.55,9.54-4.87,9.54-1.84,0-1.91-7.41-.14-16.54s4.68-16.53,6.53-16.53c1.4,0,1.76,4.36,1.1,10.39" style="fill:none;stroke:#6dab8d;stroke-linecap:round;stroke-linejoin:round"/></g><g style="opacity:0.36"><path d="M428.23,273.9l-36-7L102.12,210.25c-2.49-.49-7.5-2.42-10-1-3.57,2.07-2.05,7.55.27,9.92a7.92,7.92,0,0,0,4.36,2.13c5.2,1.09,276.73,56.23,276.73,56.23l51.2,10.38" style="fill:none;stroke:url(#h)"/><path d="M425,238.09l-324.54-57.2c-2.55-.45-7.67-2.31-10.16-.81-3.61,2.19-2.08,7.84.38,10.26a7.78,7.78,0,0,0,4.33,2c5.26,1,332.36,61.27,332.36,61.27" style="fill:none;stroke:url(#h)"/><path d="M387.87,256,92.25,199.9c-2.51-.47-7.61-2.4-10.09-.93-3.66,2.17-2,7.85.42,10.26a8,8,0,0,0,4.4,2.05c5.37,1.1,10.75,2.12,16.13,3.18L421,277.36" style="fill:none;stroke:url(#h)"/><path d="M381.33,279.73,84.09,219.25c-2.52-.51-7.58-2.51-10.11-1.15-3.83,2.06-2.06,7.92.35,10.32a8.2,8.2,0,0,0,4.41,2.11c5.32,1.16,10.66,2.25,16,3.37l319.84,67.69" style="fill:none;stroke:url(#h)"/><path d="M436.68,228.8l-321-54.66-25-4.26c-2.61-.44-7.8-2.31-10.36-.83-3.79,2.18-2.2,8.08.32,10.56a8,8,0,0,0,4.47,2c5.43,1,10.88,1.94,16.31,2.9L423.85,242.1" style="fill:none;stroke:url(#h)"/><path d="M424,252.14l-341.8-63c-2.58-.47-7.87-2.44-10.4-.91-3.8,2.31-1.94,8.31.69,10.71a8.17,8.17,0,0,0,4.33,1.88c5.44,1.07,10.9,2.09,16.34,3.14,25.25,4.84,324.07,62.3,324.07,62.3" style="fill:none;stroke:url(#h)"/><path d="M417.21,276.64l-40.52-7.85s-248.79-49.27-277.58-55l-25.34-5c-2.57-.51-7.72-2.52-10.31-1.18-4,2-2.18,8.14.3,10.61a8.24,8.24,0,0,0,4.55,2.14c5.5,1.16,11,2.27,16.5,3.4L410.54,291l17.53,3.77" style="fill:none;stroke:url(#h)"/><path d="M427,305.74S119.65,240.32,90.68,234.19L65.22,228.8c-2.57-.55-7.8-2.67-10.43-1.35-4.15,2.08-2,8.41.56,10.81a8.54,8.54,0,0,0,4.34,2c5.53,1.24,11.07,2.44,16.61,3.66,25.41,5.59,327.44,72.28,327.44,72.28" style="fill:none;stroke:url(#h)"/><path d="M404.53,237.27S126.72,187.8,97.46,182.61L71.69,178c-2.62-.47-7.89-2.41-10.5-1-4.1,2.22-2.17,8.6.54,11.08A8.27,8.27,0,0,0,66.09,190c5.61,1.07,11.23,2.08,16.84,3.13L413.3,254.72l17.27,3.66" style="fill:none;stroke:url(#h)"/><path d="M413.37,265.46S118.35,208.59,88.91,203L63,198c-2.63-.5-8-2.56-10.62-1.16-4.15,2.19-2.09,8.61.58,11.08a8.46,8.46,0,0,0,4.45,2c5.67,1.16,11.35,2.28,17,3.41,25.87,5.18,331.87,66.62,331.87,66.62l22.3,4.6" style="fill:none;stroke:url(#h)"/></g><g style="opacity:0.25"><path d="M391.34,330.92c-6.88-8.33-6.07-22.75-6-28.93a211.15,211.15,0,0,1,2.72-31.45c2.11-12.6,5-25.86,9.69-38.12a102.37,102.37,0,0,1,6.73-14.27c2.46-4.29,8.07-12.87,13.47-12.6L384.7,200l-9.81-1.58-32.36-5.22-7.68-1.24-9.54-1.54-6.19-1-.67-.11-74.14-12L98.57,153.79l-.34,0-5-.81-4.07-.66L63,148.05c-19-.42-31.83,14.49-38.68,31.06s-8.36,35.67-2.63,52.59A32.76,32.76,0,0,0,40.7,252.38l16.79,3.82L394.2,333A5.41,5.41,0,0,1,391.34,330.92Z" style="opacity:0.75;fill:url(#r)"/><path d="M391.34,330.92c-6.88-8.33-6.07-22.75-6-28.93a211.15,211.15,0,0,1,2.72-31.45c2.11-12.6,5-25.86,9.69-38.12a102.37,102.37,0,0,1,6.73-14.27c2.46-4.29,8.07-12.87,13.47-12.6L384.7,200l-9.81-1.58-32.36-5.22-7.68-1.24-9.54-1.54-6.19-1-.67-.11-74.14-12L98.57,153.79l-.34,0-5-.81-4.07-.66L63,148.05c-19-.42-31.83,14.49-38.68,31.06s-8.36,35.67-2.63,52.59A32.76,32.76,0,0,0,40.7,252.38l16.79,3.82L394.2,333A5.41,5.41,0,0,1,391.34,330.92Z" style="opacity:0.5;fill:url(#s)"/></g><path d="M397.78,232.42c-4.73,12.26-7.58,25.52-9.69,38.12A211.15,211.15,0,0,0,385.37,302c-.1,6.18-.91,20.6,6,28.93a5.41,5.41,0,0,0,2.86,2" style="fill:none;stroke:#6dab8d;stroke-linecap:round;stroke-linejoin:round;stroke-dasharray:0,2;opacity:0.88"/><path d="M419.11,205.74c-5.73-1.69-12,7.82-14.6,12.41a102.37,102.37,0,0,0-6.73,14.27" style="fill:none;stroke:#ca2584;stroke-linecap:round;stroke-linejoin:round;stroke-dasharray:0,2;opacity:0.75"/><path d="M405.67,335.23c6.3,1.44,14.58-14.81,16.21-18,4.37-8.57,6.05-16.26,8.59-26.54q1-4.2,1.95-8.47" style="fill:none;stroke:#6dab8d;stroke-linecap:round;stroke-linejoin:round;stroke-dasharray:0,2;opacity:0.5"/><g style="opacity:0.88"><line x1="428.77" y1="207.26" x2="428.77" y2="207.26" style="fill:none;stroke:#6dab8d;stroke-linecap:round;stroke-linejoin:round"/><path d="M426.79,207.19c-4.71.88-9.42,8.84-11.56,12.92A110.63,110.63,0,0,0,409,234.59c-4.38,12.4-7,25.74-9,38.42a228.31,228.31,0,0,0-2.53,31.53c-.09,6.18-.84,20.62,5.54,28.75a5.75,5.75,0,0,0,1.72,1.58" style="fill:none;stroke:#6dab8d;stroke-linecap:round;stroke-linejoin:round;stroke-dasharray:0,1.9985535144805908"/><line x1="405.67" y1="335.23" x2="405.67" y2="335.23" style="fill:none;stroke:#6dab8d;stroke-linecap:round;stroke-linejoin:round"/></g><g style="opacity:0.5"><line x1="437.19" y1="236.78" x2="437.19" y2="236.78" style="fill:none;stroke:#6dab8d;stroke-linecap:round;stroke-linejoin:round"/><path d="M437.15,234.78c-.17-8.24-.47-17.77-4.82-24.48a7.75,7.75,0,0,0-2.64-2.66" style="fill:none;stroke:#6dab8d;stroke-linecap:round;stroke-linejoin:round;stroke-dasharray:0,2.002645492553711"/><line x1="428.77" y1="207.26" x2="428.77" y2="207.26" style="fill:none;stroke:#6dab8d;stroke-linecap:round;stroke-linejoin:round"/></g><path d="M417.14,337.51c4.13.88,9.18-7.23,12.3-13.15" style="fill:none;stroke:#6dab8d;stroke-linecap:round;stroke-linejoin:round;stroke-dasharray:0,2;opacity:0.5"/><g style="opacity:0.88"><line x1="438.43" y1="208.79" x2="438.43" y2="208.79" style="fill:none;stroke:#6dab8d;stroke-linecap:round;stroke-linejoin:round"/><path d="M436.47,208.81c-4.3,1.17-8.56,9.16-10.52,13.27a121.56,121.56,0,0,0-5.75,14.68c-4,12.54-6.48,26-8.28,38.71a250.27,250.27,0,0,0-2.32,31.61c-.09,6.19-.78,20.66,5.1,28.58a5.4,5.4,0,0,0,1.52,1.49" style="fill:none;stroke:#6dab8d;stroke-linecap:round;stroke-linejoin:round;stroke-dasharray:0,1.9865468740463257"/><line x1="417.14" y1="337.51" x2="417.14" y2="337.51" style="fill:none;stroke:#6dab8d;stroke-linecap:round;stroke-linejoin:round"/></g><g style="opacity:0.5"><line x1="445.23" y1="222.26" x2="445.23" y2="222.26" style="fill:none;stroke:#6dab8d;stroke-linecap:round;stroke-linejoin:round"/><path d="M444.88,220.33a26.66,26.66,0,0,0-3.17-8.62,7,7,0,0,0-2.38-2.54" style="fill:none;stroke:#6dab8d;stroke-linecap:round;stroke-linejoin:round;stroke-dasharray:0,1.959869623184204"/><line x1="438.43" y1="208.79" x2="438.43" y2="208.79" style="fill:none;stroke:#6dab8d;stroke-linecap:round;stroke-linejoin:round"/></g><g style="opacity:0.88"><line x1="448.09" y1="210.31" x2="448.09" y2="210.31" style="fill:none;stroke:#6dab8d;stroke-linecap:round;stroke-linejoin:round"/><path d="M446.12,210.47c-3.87,1.5-7.68,9.46-9.44,13.58a130.74,130.74,0,0,0-5.27,14.88c-3.69,12.69-5.93,26.2-7.57,39a274.55,274.55,0,0,0-2.13,31.7c-.08,6.19-.72,20.68,4.67,28.4a5,5,0,0,0,1.31,1.38" style="fill:none;stroke:#6dab8d;stroke-linecap:round;stroke-linejoin:round;stroke-dasharray:0,2.0045559406280518"/><line x1="428.61" y1="339.79" x2="428.61" y2="339.79" style="fill:none;stroke:#6dab8d;stroke-linecap:round;stroke-linejoin:round"/></g><g style="opacity:0.5"><line x1="452.04" y1="214.99" x2="452.04" y2="214.99" style="fill:none;stroke:#6dab8d;stroke-linecap:round;stroke-linejoin:round"/><path d="M451.09,213.12a8,8,0,0,0-1.27-1.74" style="fill:none;stroke:#6dab8d;stroke-linecap:round;stroke-linejoin:round;stroke-dasharray:0,2.1031501293182373"/><line x1="448.09" y1="210.31" x2="448.09" y2="210.31" style="fill:none;stroke:#6dab8d;stroke-linecap:round;stroke-linejoin:round"/></g><path d="M283.44,31.5l1.05,5.79,0,.09v.73l0,.14,0,.14-.85,4.72M281.48,55l1.43-7.9.38-2.13m-3.71,9.85-.24-2.35-1.7-.52-1.53-.14-1.06,2.59m1.53.15,1.06-2.6m1.58-20.77,0,.65,1.47,1.76m-3-2.53,0,.64,1.47,1.77,1.53.12,1.52-2.17M282,39.18,280.5,42l.12,3.93L282.21,47m-1.77-8L279,41.83l.12,3.92,1.56,1.11,0,0,1.52.14L283.29,45l.37-.7,0-1.14-.09-2.77L282,39.18ZM157,49.85l-1.25-.12-32.15-3.09L120,46.29m118-5.8-4.85,11-2.45,5.91-.39,1.27L230,59.94l-.49,2.16-.41,2.22-.31,2.26-.21,2.27-.12,2.28,0,2.25.07,2.22.17,2.16.25,2.09.36,2,.44,1.89.52,1.76.61,1.64.68,1.49.74,1.33.81,1.17.87,1,.92.81.95.62,1,.44m-5.38-54.07-4.88,11-2.45,5.88L223.72,58l-.34,1.26-.49,2.16-.09.47-.31,1.74-.31,2.25L222,68.17l-.12,2.27,0,2.25.07,2.21.18,2.15.26,2.08.36,2,.45,1.89.54,1.76.61,1.63.69,1.49.76,1.32.82,1.17.88,1,.92.81,1,.62,1,.44,1,.24,5.28.61.55.07.63.07,1,0,1-.15L241,93.8l1-.51,1-.7,1.06-.91,1.1-1.29.75-1,.93.1.91,0,.93-.12.94-.29.92-.45.92-.62.94-.82,1-1.16,1.92-2.44,3.7-4.9M162.76,58.05l.79-4m-2.12,2.83,1-3.86m-2.26,2.45,1.22-3.68m1.69,6.45,1.17-3.69m-2.52,2.62,1.37-3.5m4.12-19.35-.17,2.77L167.2,42l.6,4.64,1,4.28,1.05,2.86L170,54l.26.7.35.64M161,51.25h0l-1.72,3m5.07-6.54.38,1-.26,1-.05.16-.09,0-.15.2-.74,1-.17.11.23.44.93,1.13.92,1,1,.81,1,.64,1,.47.85.25.09,0,.17,0,.87.09M119.12,44l2.14.2,1.75.17,30.55,2.9,2.57.25h.07l1.91-2.63m-39.72-3.31,2.4.22,1.86.18,32.89,3.07,2-2.28M157,39.66l-2.3.73-.9-.08L120,37.23l0,0-2.11,1.78m-1.12-9a58,58,0,0,0,.33,6.46,35.32,35.32,0,0,0,4.07,13.09,17.59,17.59,0,0,0,4,4.77,10.55,10.55,0,0,0,6.12,2.53m26.67-12.79-2.2,1.58-.61-.06-32.75-3.07-1.93-.18L119.12,44l.18.54m39.06,1.1L157,47.54l-.09.12-.07.12,0,.14,0,.16v.15l0,.14.43,1.09.16.43.07.17.16.41.06.11.08.06.08,0,.7.07.76.07.54.05H160l.09,0,0-.09-.15,0-.12,0-.12-.31-.7-1.8,0-.17,0-.13v-.1l.08-.05.09-.12.07-.17.23-.38L160.62,46l.09-.08-.05-.14-.5-1.76-.4-1.85-.32-1.92-.21-2-.12-2,0-2.06,0-.51m10.08,22.29.09,2.88,0,.15,0,.12.06.09.08.05,3.83.38M159,53.85a21.54,21.54,0,0,0,1.12-2.67M158,52l.67-1M164,58.89l.66-4m8-8.47c.51,4.79,4.4,9.33,8.84,10a6.74,6.74,0,0,0,4.65-.73,6.38,6.38,0,0,0,2.61-3.08c1.2-2.89.19-6.29-1.4-8.84-.72-1.16-3.5-5.22-8.05-5.46a6.64,6.64,0,0,0-4.73,1.34C172.14,41.71,172.52,45.35,172.63,46.4Zm26.62-9.27a53.5,53.5,0,0,0,.21,9.65c.65,5.81,2,12.28,6,16.77a8.58,8.58,0,0,0,7.06,3.13c3.08-.31,5.75-2.65,7.51-5m27-20.37L242.87,51l-2.17,5.32-.35,1.14-.3,1.14-.43,1.95-.37,2-.28,2-.2,2-.11,2,0,2,.05,2,.14,1.94L239,76.5l.31,1.8.38,1.71.46,1.6.53,1.48.59,1.34.66,1.21.71,1.06.77.9.8.74.85.58.87.4M169.38,55.93l-.2,0-2.26-.21-1.54-.15m-1-7.83-.67.18-.3,1.16.37,1m76.75-9.3-4.25,9.64-2.18,5.3-.35,1.14-.3,1.13L233,59.86l-.36,2-.28,2-.2,2L232,68l0,2,.06,2,.14,1.94.23,1.88.31,1.8.39,1.7.47,1.6.54,1.47.6,1.34.67,1.21.72,1.06.77.9.82.74.85.57.89.4.91.23,5.49.62.1-.05.92.16M163.43,34l0,.4,0,2,.11,1.94.21,1.9.29,1.84.38,1.77.47,1.69.55,1.59.62,1.47.69,1.35.76,1.22.82,1.08.87.93.67.57M119.3,44.57l1.66.16,1.8.17,33.08,3.15.54.05.37-.34.07-.06.12-.12.05,0m.16-5.49-2,1L154.4,43l-32.25-3L120,39.85l-1.65,1.76.16.58,1.84.17m-3-6,2.2-1.28m-2.45-1.47,2.6-1.25m-2.67-1.55,2.54-.45m39.62,3.25,0,.52,0,2.06.12,2,.22,2,.31,1.92.41,1.85.51,1.83-.1.06v0l-1.45,1.93L159,48l-.1.13,0,.16.06.12.13.06.09.14.8,2.07,0,0,.06.1,0,0,0,0,.08,0h0l2.9.28h.16l.21.44.67,1,.12.16.69.72.23.25.61.51.35.3.52.33.48.31.4.18.63.28.28.08.71.21.09,0h.13l.91.1h.14l.54.06m-12.8-3.69L158,52,124.4,48.69,121,48.36m43.36-.65-.49-.05-.67.19,0,0L162.87,49v0l.35.93.51.08.58-.16m-5,4.4-.26-.4L126.8,50.68l-1.43-.14-3.27-.32m38.36,5.63-.29-.35h-.1l-1.43-.14L127.93,52.3,125,52l-1.65-.17m38.4,5.36-.3-.29-23-2.31-10.66-1.06-3.1-.31m-4.46-6.44,1.51.14,1.7.17,31,3,2.85.28.26-.3m-31.42,4.29.34.23,9.79,1,24.93,2.51,1.6.17.36,0m0,0-.32-.22-.15,0-1.44-.14-24.62-2.48-10.49-1.06M103.44,28.81a39.59,39.59,0,0,0,.39,7.42c.72,3.77,3.67,11.1,6,14.11a18.59,18.59,0,0,0,5.91,4.43A48.94,48.94,0,0,0,122.92,56l6.13.63,2.16.22a8.94,8.94,0,0,0,2.71-.34,6.75,6.75,0,0,0,1.05-.45m-7.44-.88.34.16,7.1.72,29.52,3m21.83-3a17.47,17.47,0,0,0,3.18-2c4.23-3.28,3-10,.53-14.09a11.78,11.78,0,0,0-3.74-4m-6.19-.53a12.55,12.55,0,0,0-2.44,1.36c-2,1.39-3.68,2.67-4.72,4.92a9.57,9.57,0,0,0-.06,7.48c1.71,4.4,6.73,8.88,11.76,7.53,5.53-1.49,6.89-7.55,4.72-12.32-2-4.31-7.37-8.82-12.34-6.66-5.26,2.29-5.86,8.19-3.37,12.82,2.13,4,7.69,8.15,12.32,5.67s4.06-8.94,1.56-12.85c-2.75-4.3-8.23-7.38-12.86-4.13M162.86,34c0,.84,0,1.67,0,2.5.22,6.56,1.78,14,7,18.41l.7.45.36.68a22.16,22.16,0,0,0,2.88,4.22,9.85,9.85,0,0,0,4.82,3.06l2.86.29m-17.72-17.4-.26.36-.92,1.25-.19.27-.08.11-.07.12,0,.15,0,.15v.16l0,.14.39,1,.42,1.09.06.11.08.07h.09l.07,0m39.89-13.68a46.76,46.76,0,0,0,0,6.15,30,30,0,0,0,2.48,10.86,13.9,13.9,0,0,0,3.22,4.67A7.47,7.47,0,0,0,213.59,61l6.48.64,2.73.27M156.71,33.43l-2.31.65-32-2.79-5.33-.46v.65l2.3.2,1.8.16,31.4,2.76,1.8.15,2.31.15m0,1-2.27,1.08L121.18,34l-4-.36,0,.64,2.34.21.74.07,33,3,1.2.1,2.32-.3M120,37.23,117.47,37l-.06-.63,3.24.29,34,3.08,2.22-1.5M120,39.85l-2.09-.2-.13-.6,2.74.25L155,42.47l2.13-1.9m97,1.32-.32,1.79,0,.15v.69l0,.13v.08l0,.09L257,60.34l0,.12,0,.11,0,.1,0,.08,0,.08.05.07.06.05,0,0,0,0,1.69.91m-94.58-2.84-.53-.18-1.34-.13L161,58.59,135.2,56l-7.67-.78m-2.87-2,.32.28,1.22.13,1.52.15,10.21,1,23.43,2.35.37,0m2.76,1.87.89-3.53.08-.32m-41.75-4.48-.38,1.1.3.35,1.27.12,3,.3,30.58,3,1.6.15.39,0,1.47-3.43m-39.29-3.48-.54,1.28.28.4,1.33.12,1.57.16,1.44.14,32.14,3.17.41,0m-37.56-7.32L121,48.36l.25.45,1.41.13,3.08.31,32,3.12.44.05,1.08-1.24m41.54,16.89a21.85,21.85,0,0,0,8.93-1.59M200.84,68c2.38.59,6.73.21,8.65-1.49m-28-2.88c0,.76,0,2,0,2,0,1.08,4.48,2.66,8.12,3.55,4.61,1.13,10.4,1,10.78.33.1-.31.33-1.13.45-1.5.17-.57.74-2.29.74-2.29s-1.5-1.38-2.09-1.77A40.58,40.58,0,0,0,194,60.77a22.82,22.82,0,0,0-6.39-2.19c-1.82-.24-4.9-.06-5.69,2A5.59,5.59,0,0,0,181.49,63.58Zm19.37,4.29c.51-1.17-3.15-2.52-3.72-2.73a41.21,41.21,0,0,0-5.46-1.61c-1.29-.29-10.3-2.26-10.19,0M210,66.51a13.8,13.8,0,0,0-4.14-.28,29.6,29.6,0,0,1-4.5.47m-1,2.81c-.35-1.3-8.72-3.53-13.5-4.25-2.49-.38-5-.35-5.4.37m.46-.31c0,1.06,4.33,2.44,7.8,3.32,4.4,1.11,9.88,1.16,10.24.49m.55-.11c-.43-1.29-8.86-3.52-13.64-4.25-2.49-.37-5-.34-5.41.37M156.13,47.55l.25.55m-.84-3,.14.59m-.56-2.58-.1-.62m-.37-2.72.07.64m-.28-3.45,0,.66m-.09-2.85v-.67m6.32,11.8h-.13l-1.57,2V48l.08.13,0,.18,0,.16.27.84.49,1.24,0,.08,0,.14.06.1" style="fill:none;stroke:#ca2584;stroke-linecap:round;stroke-linejoin:round;stroke-width:0.5px;opacity:0.5"/><path d="M155.94,23.66l-.26-.24-35-2.84-2.4-.19.14-.62L121,20m-2-2.19,2.48.2,34.89,2.78.19-.61m3.19-1.33-1.55-2.95L120.87,13m2.36-4,37.3,2.77.29-.43M127.46,4.7l37.18,2.65.34-.24M129,3.79l37.13,2.64.35-.18M130.56,3.17l37.07,2.61.35-.1M132.14,2.84,133.7,3l3.89.27,31.56,2.22.36,0M283.44,31.5l-.71-3.87L282.45,26l-.75-4.12,0-.12,0-.11,0-.1,0-.09,0-.08,0-.07-.05-.05,0,0,0,0,0,0-3.82-2.53-3.42-2.27-.06,0-.06,0h-.06l-.81-.06h0l0-.07-.88-1.29-.94-1.1-1-.9-1-.69-1.08-.48L267,11.5l-.94-.06-.2,0-.87-1-1.11-1-1.17-.77-1.22-.54-1.25-.29-1.28,0-1.29.2-1.3.44-1.3.69-1.29.94-1.26,1.17-1.22,1.41-1.18,1.62L249,16.07,248.06,18l-1.94,4.21L238,40.49M281.48,55l-.09.48,0,.1,0,.08,0,.13,0,.12-.05.11,0,.1-.05.09,0,.09-.06.08-2.4,3.08-.51.65-4.35,5.59,0,0,0,0-.06,0-.06,0-.06,0h-.18l-4.25-.42,0,0L259,78.79m1.2-71-1.1-.08-5.34-.36-1.3,0-1.3.2L249.89,8l-1.31.69-1.3.93L246,10.75l-1.23,1.4-1.19,1.61-1.13,1.83-.92,1.84,0,0-1.94,4.19-8.14,18.26M169,9.61l.2-4.17m-1.49,4.5,0-4.16m-1.51.65.27,4.12m3.34-1.05-.22-4.1m-4.37,6-.5-4.05m3.8,2.37-.46-4m-.83,4.49-.68-3.92m-.58,4.61L165,7.11M176.79,10h0l-.79.79-.22.21-1,1-2.14,3-1.86,3.67-1.54,4.18-1.15,4.57-.74,4.8-.12,2.13m-7.63-21.11-.27.48L160.68,17M134.26,2.08a11.71,11.71,0,0,0-3.87.49,13.91,13.91,0,0,0-3.46,1.8A19.38,19.38,0,0,0,122,10c-2.47,3.69-3.6,8.22-4.51,12.5A37.15,37.15,0,0,0,116.7,30M164,22.57l-.23-.18-.43-.34-.91-.74-.09,0-.89-.07-.14,0-2-.16h-.09l0,0h0l-.08.09h-.15l-.12,0,0,.14-.66,2.52,0,.16,0,.13.08.07,0,.09v.14l.07.08.66.52,1,.74L160,26l-.37,2-.27,2-.18,2.06-.06,1.56M117.18,28l2.31-.18h.11m42.75-6.54h-.08l-.09.06-.07.1-.05.14-.35,1.33-.31,1.2,0,.16v.16l0,.15,0,.12.07.08L163.1,26m52-16.5L207.32,9c-5.06.92-10.25,2.94-15.5,3m-29.49,2.36-1.51-3L128.06,8.91l-.44,0-4.09-.3-.3.41.56,1.56m36.74,1.21,1.11,3.5m-7.16,16.62,0-.67m.2-2.2.08-.66m.32-2.17.12-.65m.59-2.74-.15.63m1.78-5.74-.22.56m1-2.36.25-.52M265,51.72l1.55.15,1.87-.7.92-3.87-.94-3.21L266.85,44l-1.87.67-.93,3.9Zm3.4-7.63-1.87.68-.92,3.89.94,3.21m4.6,2.37-1.81.09-1.14,3.6.68,3.49,1.54.14,1.81-.11,1.13-3.58-.67-3.49Zm-.73,7.32-.68-3.49,1.14-3.6,1.81-.09m-1.81.09-1.54-.14m1.54.14-1.54-.14m.37-25.3-1.56-.13-1.86,1.23-.67,4.08L266.8,37l1.56.13,1.84-1.25.67-4.06Zm0,0-1.85,1.22-.68,4.09,1.18,2.83m7.08-16.4-1.75,1.77-.41,4.14L274.63,29m-2.49-6.6-.41,4.13,1.35,2.35,1.55.12,1.73-1.78.41-4.11-1.33-2.37-1.55-.11Zm8.8,3-1.61,2.29-.11,3.43m3,.24.08-.12.14-4.05-1.46-1.79-1.53-.12-1.61,2.29L277.68,31M223.58,16.1c-1.53-2.79-3.6-5.31-6.74-6.28s-6.48.79-8.67,3.09c-4.35,4.55-6.4,10.58-7.8,16.6a49.46,49.46,0,0,0-1.12,7.62m66.61-25.66-1.15.19-1.16.41-1.16.63-1.14.85-1.12,1.07L259,15.89,258,17.36,257,19l-.84,1.7-1.73,3.8L247.1,41.28m-32-31.74a16.2,16.2,0,0,0-7.79-3.66M267,11.5l-1.14-.05-5.35-.4-1.15,0-1.16.18-1.17.41-1.17.63-1.15.85-1.13,1.06-1.1,1.27-1.06,1.46-1,1.65-.84,1.7L247.84,24l-7.35,16.7M176.78,10l-1-.05-2.41-.2h-.14l-.73,0h-.21l-.15,0-1.09.14-1.09.33-1.08.5-1.06.67-1,.85-.94,1L165,14.34l-.9,1.31-.85,1.45-.78,1.58-.71,1.69-.29.84m11.82-11.5-1,0-1.09.14-1.09.33-1.08.5-1.06.67-1,.85-1.08,1-1,1.16-.91,1.31-.84,1.45-.78,1.58-.71,1.69-.29.83M175.77,11l-.93.13-1,.32-1,.48-1,.65-1,.81-.95,1-.92,1.12-.86,1.26-.8,1.39-.75,1.51-.67,1.62-.61,1.71-.52,1.8-.43,1.87-.36,1.91-.26,2-.17,2,0,1.58m.15-9.41.3-1.18h0l-.36-1-.5,0-.68.15,0,.06L162,23.72h0l.37,1,.51.07Zm-42.25-7.24-2.13-.16-.18.58,1.9,2.12L121,20l34.85,2.81.1.05.2.1m-34.18-8-1.85-.14-.22.55,1.45,2,35.25,2.79.83.61.16.13M122,10.9l.8,1.74m-4.48,7.75,2.38,1.42m-2.93,1.28,2.45,1m-2.77,1.14h2.77m-2.84.65,2.84.83m-3.07,2,2.46.57m1.52-16.73-.25.51,1.08,1.9,35.51,2.76,2,1.94m-.19,14,.05-1.55.18-2.06.27-2,.37-2,0-.18H160l-.23,0-2.14-.18-1.59-1.24-.07-.09-.05-.12,0-.15v-.16l0-.15v0l.19-.72,0-.08.45-1.71,0-.09v0l.07-.1.08-.07h.09l.68.06L159,21l.09,0v0l-.09.12-.09-.06V21l.06-.09-1.76-2.7-37.36-2.91M165,7.11,129.05,4.55l-1.24-.09-.35.24m39,1.55-35.9-2.54-1.22-.09-.36.17.06.76M168,5.68,132.13,3.15l-1.2-.08-.37.1v.54M217.48,10c-2-3-6.64-4.86-10.24-5.52m-37.73.88L137.39,3.1l-3.67-.26-1.21,0-.37,0v.31m40.38,2.56-.35-.09L171,5.47l-.35-.09L137.3,3m0,0a6.44,6.44,0,0,0-3-1l-8.2-.57s-6.28-.3-8.24.35a21.8,21.8,0,0,0-7.21,4.95c-2.43,2.87-5.45,10-6.31,13.67a46.14,46.14,0,0,0-.86,8.33m72.64-4.16c1.56,1.56,2.52,2.7,4.84,2.93a10.4,10.4,0,0,0,6-1.28c3.49-1.86,6.52-5.54,6.6-9.64a7.13,7.13,0,0,0-2.24-5.26M186.29,36a7.57,7.57,0,0,0-1.71-.77,6.58,6.58,0,0,0-4.48.24M187,2.18c.61.83,5.85,1.25,9.84,1.26S206.61,3,207,2.26m-20.1,5.28-4.75-.23a7.78,7.78,0,0,0-2.57.78A11.43,11.43,0,0,0,176.79,10l-.5,0c-3.7-.4-7,3.46-8.71,6.24C164.35,21.38,163,27.81,162.86,34m54.92-23.8C216.7,8,214.7,7,212.94,6.06a21,21,0,0,0-5.76-1.81M207.32,9c0-1,0-2,0-3a9.31,9.31,0,0,0-.23-2.3m-19.86-2a3.21,3.21,0,0,0-.2,2.07c1.52,1.64,18,1.76,20.06,0a2.87,2.87,0,0,0-.18-1.92m-6.82,1c.41,0,6.81-.34,6.82-1S201.56.46,196.49.5c-4.14,0-9.31.61-9.31,1.2S193.86,3.07,200,2.78ZM206.61,2C206.08,1.67,200.19.83,195.9,1c-3.46.11-8,.52-8.26,1.06m86.27,14.33h-.06l-.06,0-.06,0-.06,0,0,0,0,0-1,1.19-3.7,4.44L266,25.65l-.06.08-.05.09-.06.1,0,.1,0,.12,0,.12,0,.13,0,.09,0,.09-1,5.33-2.27,12.54,0,.14,0,.14v.69l0,.08v.09l1.08,5.4.13.61,1.91,9.58,0,.12,0,.1,0,.1,0,.09,0,.07.05.07.06.05,0,0,.05,0,4.24,2.31,3.17,1.72.06,0h.06M241.54,17.43l-18-1.33-6.83-.5A7.94,7.94,0,0,0,211,17.49a16.27,16.27,0,0,0-3.54,4.58,37.42,37.42,0,0,0-4.23,15.4M157.5,26.21l-2.26-.68-35-2.88-2.34-.2-.11.64,2.33.19,35,2.9,2.12,1.44m-.14,1-2.3-.23-35.06-3h-.06l-2.24-.19-.07.65,2.26.19,35.09,3,2.2,1m-.08,1-2.32.21-35.09-3L117.18,28l0,.66,2.27.19,35.07,3,2.26.58m3.57-14.77-1.84-2.33-35.68-2.72-1.67-.13m40.16,3.41-1.69-2.68-35.8-2.69-1.52-.11-.28.46,37.33,2.82M133.71,2.88l3.77.27M273.09,16.29l-7.64-.55h-.12l-.06,0-.06,0-.07,0,0,0,0,0L257.4,25l-.07.08-.05.08-.06.1,0,.1-.05.12,0,.12,0,.13,0,.09,0,.09-2.9,16m4.95,20L264.91,65l0,0H265l4.06.4M187,3.77a3.72,3.72,0,0,0-.18.88c0,1,.08,2.89.08,2.89l0,1.56M128,8.66V8.57l-.55-3.87m45.05,1-.12,2-.11,1.9M159,21.21h0l-.08.09-.07,0,0,.1-.3,1.15-.35,1.34,0,.11-.06.12,0,.16.12.05.09.07v0l.08.08L160,25.78M176.29,9.92l.16-.67.22-.95L176.36,8l-4-.28M175.56,24c2.77,4.07,5.58,8.66,11.38,6.57a14.76,14.76,0,0,0,8.85-11.51c.27-2.89-3-6.13-4.73-7.85m-32.1,10,0,.08-.63,2.57,0,.16v.16l0,.15,0,.08m4.5-2-.29,1.21.34,1.11m17.79,1.73a10.45,10.45,0,0,0,7.52-2.84c4-3.3,6.8-11.53.18-13.79C182.86,8,176.53,12.76,175.07,18a6.86,6.86,0,0,0,.92,6A5.29,5.29,0,0,0,180.69,26.5Zm10.54-15.1a7.52,7.52,0,0,0-7.5-2,13.67,13.67,0,0,0-7.36,5.18c-.7,1.08-2.8,4.29-1.72,7.64a6.29,6.29,0,0,0,2.15,3.09m0,0c6.76,4,13.15-1.46,15.11-6.14,1-2.46,1.3-5.67-.68-7.74M172.16,5.62l-.67,3.83m-.47-4,0,4m-.38-4.07-.41,4.07m5.37.27L176.36,8m98.69,46.37-.25.63.4,3.73,1.55.45.15,0,1.52.14,1.3-3.2-.14-1.37m-3-.27-.26.62.4,3.73,1.7.49" style="fill:none;stroke:#6dab8d;stroke-linecap:round;stroke-linejoin:round"/><line x1="74.84" y1="26.33" x2="81.02" y2="125.42" style="fill:none;stroke:#ca2584;stroke-linecap:round;stroke-linejoin:round;stroke-width:0.5px;opacity:0.5"/><line x1="34.06" y1="141.97" x2="81.02" y2="125.42" style="fill:none;stroke:#ca2584;stroke-linecap:round;stroke-linejoin:round;stroke-width:0.5px;opacity:0.5"/><line x1="81.02" y1="125.42" x2="244.04" y2="149.8" style="fill:none;stroke:#ca2584;stroke-linecap:round;stroke-linejoin:round;stroke-width:0.5px;opacity:0.5"/><polygon points="244.29 159.63 221.81 171.7 221.75 171.71 219.45 171.35 219.31 171.43 218.89 171.65 136.37 158.44 136.34 158 135.46 157.86 135.38 157.9 135.21 157.97 134.79 158.16 34.09 142.02 34.06 141.97 34.04 141.92 25.39 37.45 25.47 37.4 27.31 37.01 27.47 37.02 27.44 36.24 27.46 36.22 74.84 26.33 259 42.31 259.08 42.34 259.08 42.35 259.02 92.63 243.97 98.88 244.29 159.63" style="fill:#19181f;opacity:0.36"/><polygon points="244.29 159.63 221.81 171.7 221.75 171.71 219.45 171.35 219.31 171.43 218.89 171.65 136.37 158.44 136.34 158 135.46 157.86 135.38 157.9 135.21 157.97 134.79 158.16 34.09 142.02 34.06 141.97 34.04 141.92 25.39 37.45 25.47 37.4 27.31 37.01 27.47 37.02 27.44 36.24 27.46 36.22 74.84 26.33 259 42.31 259.08 42.34 259.08 42.35 259.02 92.63 243.97 98.88 244.29 159.63" style="opacity:0.55;fill:url(#t)"/><polygon points="244.29 159.63 221.81 171.7 221.75 171.71 219.45 171.35 219.31 171.43 218.89 171.65 136.37 158.44 136.34 158 135.46 157.86 135.38 157.9 135.21 157.97 134.79 158.16 34.09 142.02 34.06 141.97 34.04 141.92 25.39 37.45 25.47 37.4 27.31 37.01 27.47 37.02 27.44 36.24 27.46 36.22 74.84 26.33 259 42.31 259.08 42.34 259.08 42.35 259.02 92.63 243.97 98.88 244.29 159.63" style="fill:none;stroke:#6c5331;stroke-linecap:round;stroke-linejoin:round"/><line x1="220.34" y1="170.88" x2="219.5" y2="171.33" style="fill:none;stroke:#6c5331;stroke-linecap:round;stroke-linejoin:round;stroke-width:0.5px"/><polyline points="27.41 36.26 131.4 46.17 133.92 46.38 220.16 54.62" style="fill:none;stroke:#6c5331;stroke-linecap:round;stroke-linejoin:round;stroke-width:0.5px"/><line x1="217.26" y1="55.93" x2="218.87" y2="171.56" style="fill:none;stroke:#6c5331;stroke-linecap:round;stroke-linejoin:round;stroke-width:0.5px"/><polyline points="131.38 47.66 217.03 55.92 218.8 55.43" style="fill:none;stroke:#6c5331;stroke-linecap:round;stroke-linejoin:round;stroke-width:0.5px"/><polyline points="25.39 37.45 25.42 37.42 129.65 47.43 131.33 47" style="fill:none;stroke:#6c5331;stroke-linecap:round;stroke-linejoin:round;stroke-width:0.5px"/><line x1="134.79" y1="158.16" x2="129.65" y2="47.43" style="fill:none;stroke:#6c5331;stroke-linecap:round;stroke-linejoin:round;stroke-width:0.5px"/><polyline points="136.31 157.39 131.38 47.79 131.42 47.64 133.15 47.17" style="fill:none;stroke:#6c5331;stroke-linecap:round;stroke-linejoin:round;stroke-width:0.5px"/><polyline points="259.08 42.35 259.04 42.32 220.16 54.62 220.14 54.67 221.75 171.71" style="fill:none;stroke:#6c5331;stroke-linecap:round;stroke-linejoin:round;stroke-width:0.5px"/><g style="opacity:0.75"><line x1="259.03" y1="92.63" x2="260.04" y2="193.82" style="fill:none;stroke:#ca2584;stroke-linecap:round;stroke-linejoin:round;stroke-width:0.5px"/><polyline points="244.43 203.44 259.89 193.74 260.02 193.84 338.88 206.87" style="fill:none;stroke:#ca2584;stroke-linecap:round;stroke-linejoin:round;stroke-width:0.5px"/></g><polygon points="349.42 102.82 349.26 102.64 259.56 92.41 244.12 98.85 244.04 98.88 243.99 98.91 243.97 99 244.43 203.44 244.44 203.46 244.44 203.5 244.47 203.52 332.63 219 332.8 219 332.86 218.98 338.56 214.52 338.33 221.92 338.34 221.96 338.36 222 385.46 230.25 407.02 234.07 407.19 234.06 407.25 234.04 408.29 233.01 408.29 232.98 408.45 230.17 417.7 221.12 417.69 220.98 422.85 138.47 422.79 138.39 422.77 138.38 422.71 138.37 422.69 138.37 357 129.98 348.3 135.28 348.3 135.26 349.42 102.82 349.33 102.65 349.26 102.64 349.42 102.82" style="fill:#19181f;opacity:0.64"/><polygon points="349.42 102.82 349.26 102.64 259.56 92.41 244.12 98.85 244.04 98.88 243.99 98.91 243.97 99 244.43 203.44 244.44 203.46 244.44 203.5 244.47 203.52 332.63 219 332.8 219 332.86 218.98 338.56 214.52 338.33 221.92 338.34 221.96 338.36 222 385.46 230.25 407.02 234.07 407.19 234.06 407.25 234.04 408.29 233.01 408.29 232.98 408.45 230.17 417.7 221.12 417.69 220.98 422.85 138.47 422.79 138.39 422.77 138.38 422.71 138.37 422.69 138.37 357 129.98 348.3 135.28 348.3 135.26 349.42 102.82 349.33 102.65 349.26 102.64 349.42 102.82" style="opacity:0.55;fill:url(#u)"/><polygon points="349.42 102.82 349.26 102.64 259.56 92.41 244.12 98.85 244.04 98.88 243.99 98.91 243.97 99 244.43 203.44 244.44 203.46 244.44 203.5 244.47 203.52 332.63 219 332.8 219 332.86 218.98 338.56 214.52 338.33 221.92 338.34 221.96 338.36 222 385.46 230.25 407.02 234.07 407.19 234.06 407.25 234.04 408.29 233.01 408.29 232.98 408.45 230.17 417.7 221.12 417.69 220.98 422.85 138.47 422.79 138.39 422.77 138.38 422.71 138.37 422.69 138.37 357 129.98 348.3 135.28 348.3 135.26 349.42 102.82 349.33 102.65 349.26 102.64 349.42 102.82" style="fill:none;stroke:#6c5331;stroke-linecap:round;stroke-linejoin:round"/><line x1="332.69" y1="219.01" x2="335.94" y2="109.77" style="fill:none;stroke:#6c5331;stroke-linecap:round;stroke-linejoin:round;stroke-width:0.5px"/><line x1="244.55" y1="203.52" x2="244.1" y2="98.88" style="fill:none;stroke:#6c5331;stroke-linecap:round;stroke-linejoin:round;stroke-width:0.5px"/><polyline points="413.29 146.19 413.25 147.25 408.45 230.17" style="fill:none;stroke:#6c5331;stroke-linecap:round;stroke-linejoin:round;stroke-width:0.5px"/><polyline points="341.07 137.77 338.63 214.51 338.4 221.92 338.41 222" style="fill:none;stroke:#6c5331;stroke-linecap:round;stroke-linejoin:round;stroke-width:0.5px"/><polyline points="341.14 137.61 412.39 147.02 407.25 234.04" style="fill:none;stroke:#6c5331;stroke-linecap:round;stroke-linejoin:round;stroke-width:0.5px"/><polyline points="244.51 203.52 244.5 203.5 244.49 203.45 244.1 98.88" style="fill:none;stroke:#6c5331;stroke-linecap:round;stroke-linejoin:round;stroke-width:0.5px"/><polyline points="338.62 214.52 341.14 137.78 341.14 137.61 341.2 137.57 342.44 136.83" style="fill:none;stroke:#6c5331;stroke-linecap:round;stroke-linejoin:round;stroke-width:0.5px"/><polyline points="349.32 102.64 336.09 109.84 335.96 109.75 244.17 98.85" style="fill:none;stroke:#6c5331;stroke-linecap:round;stroke-linejoin:round;stroke-width:0.5px"/><polyline points="338.62 214.52 341.07 137.77 341.14 137.61 341.21 137.57 342.39 136.83 342.44 136.83 345.19 137.19 348.36 135.26" style="fill:none;stroke:#6c5331;stroke-linecap:round;stroke-linejoin:round;stroke-width:0.5px"/><line x1="345.36" y1="137.09" x2="348.35" y2="135.28" style="fill:none;stroke:#6c5331;stroke-linecap:round;stroke-linejoin:round"/><polyline points="422.77 138.37 422.85 138.42 412.73 146.12" style="fill:none;stroke:#6c5331;stroke-linecap:round;stroke-linejoin:round;stroke-width:0.5px"/><line x1="345.21" y1="137.2" x2="413.29" y2="146.19" style="fill:none;stroke:#6c5331;stroke-linecap:round;stroke-linejoin:round;stroke-width:0.5px"/><line x1="412.39" y1="147.02" x2="413.29" y2="146.19" style="fill:none;stroke:#6c5331;stroke-linecap:round;stroke-linejoin:round;stroke-width:0.5px"/></svg>