<svg xmlns="http://www.w3.org/2000/svg" xmlns:xlink="http://www.w3.org/1999/xlink" width="276.25" height="425.71" viewBox="0 0 276.25 425.71"><defs><linearGradient id="g" x1="108.06" y1="254.98" x2="170.22" y2="383.24" gradientUnits="userSpaceOnUse"><stop offset="0" stop-color="#22afff" stop-opacity="0"/><stop offset=".06" stop-color="#22afff" stop-opacity=".03"/><stop offset=".14" stop-color="#22afff" stop-opacity=".11"/><stop offset=".24" stop-color="#22afff" stop-opacity=".25"/><stop offset=".36" stop-color="#22afff" stop-opacity=".44"/><stop offset=".45" stop-color="#22afff" stop-opacity=".6"/><stop offset=".59" stop-color="#22afff" stop-opacity=".56"/><stop offset=".75" stop-color="#22afff" stop-opacity=".5"/><stop offset="1" stop-color="#22afff" stop-opacity=".7"/></linearGradient><linearGradient id="h" x1="101.53" y1="258.79" x2="168.3" y2="352.8" gradientUnits="userSpaceOnUse"><stop offset="0" stop-color="#22afff" stop-opacity=".2"/><stop offset=".05" stop-color="#22afff" stop-opacity=".23"/><stop offset=".11" stop-color="#22afff" stop-opacity=".31"/><stop offset=".2" stop-color="#22afff" stop-opacity=".45"/><stop offset=".28" stop-color="#22afff" stop-opacity=".6"/><stop offset=".36" stop-color="#22afff" stop-opacity=".56"/><stop offset=".46" stop-color="#22afff" stop-opacity=".5"/><stop offset=".72" stop-color="#22afff" stop-opacity=".9"/><stop offset=".75" stop-color="#22afff" stop-opacity=".86"/><stop offset=".79" stop-color="#22afff" stop-opacity=".77"/><stop offset=".84" stop-color="#22afff" stop-opacity=".61"/><stop offset=".9" stop-color="#22afff" stop-opacity=".4"/><stop offset=".97" stop-color="#22afff" stop-opacity=".12"/><stop offset="1" stop-color="#22afff" stop-opacity="0"/></linearGradient><pattern id="i" width="72" height="72" patternTransform="translate(-35.85 6.12)" patternUnits="userSpaceOnUse" viewBox="0 0 72 72"><path fill="none" d="M0 0h72v72h-72z"/><g stroke="#57e3ff" stroke-linecap="round" stroke-linejoin="round" stroke-width=".5" fill="none"><path d="M68.25 75.5c2.25-.5 7 0 6 1.75s4 7 4.5 5.5-2-4.5.75-4.75 5.75 3 7.5 3.25 5.5-1.5 3.25-3-2.75-4.5-5.5-4.25-7-.25-6-3M69.25 73c1.75.5 5.5.25 6 1.75s2.75 2.75 2.75 1.5l-1.75-2.75s-4-3.5-2-4M71 80.25a21.39 21.39 0 0 0 5.5 3.75c2 1 5 2 5.25.75s-2.75-3.25-1-3.25 3.25 2 6.5 1.75 9.25-4 7.25-4.75-3.75-3.5-5.5-4.5a6.72 6.72 0 0 0-4-1c-1.25 0-4-1.25-2-2"/></g><g stroke="#57e3ff" stroke-linecap="round" stroke-linejoin="round" stroke-width=".5" fill="none"><path d="M-3.75 75.5c2.25-.5 7 0 6 1.75s4 7 4.5 5.5-2-4.5.75-4.75 5.75 3 7.5 3.25 5.5-1.5 3.25-3-2.75-4.5-5.5-4.25-7-.25-6-3M23.75 71c1.25.5 4.25 3 3.25 4.75s-.5 3.25 1 3.5 6.25-2 5.75-3.25-1.75-3.25 0-4.5M45.75 68.75c1.75 1 1.75 2 .5 3.25s-6.5 1.25-5.75 2.5 5 4 7.75 4 3-3.5 4.75-4M54 73.25c.75-.5.75-1 .5-3M56.25 66.25c0 1.5-.38 5.6-.38 6.87a2.73 2.73 0 0 0 .5 1.88M-2.75 73c1.75.5 5.5.25 6 1.75s2.75 2.75 2.75 1.5l-1.75-2.75s-4-3.5-2-4M26 70.25c1.75.5 3.75 1 3.5 2.75s.25 4 .75 2.75 0-4 1.5-5M48.75 65.5c1.25 2.25 1.5 6.25-.25 7.5s-3 3-1.5 2.75 4-.75 4.75-3 2.25-8.75.75-9.5M58 65.5c-1 1.5-1 4.5.25 5.75s2.5.75 2.75 2.25 1.5 3.25 2.5 3.25 2.5-2 3.25-2.75a3.9 3.9 0 0 1 2.5-1c1.75.5 5.5.25 6 1.75M-1 80.25a21.39 21.39 0 0 0 5.5 3.75c2 1 5 2 5.25.75s-2.75-3.25-1-3.25 3.25 2 6.5 1.75 9.25-4 7.25-4.75-3.75-3.5-5.5-4.5a6.72 6.72 0 0 0-4-1c-1.25 0-4-1.25-2-2M22.25 71.5c1 2 2.25 3.25 2.5 5s-.5 4.75 2 4.75a12.93 12.93 0 0 0 2-.16M30.81 80.59a8.51 8.51 0 0 0 3.69-2.34c2-2.25.25-2.75.5-4s6-4 7-3.25-1.25 0-2.25 1.75-4.25 6.25 1 6.5 6.25 1.25 6.5 2.25 5 .75 5-.5 1.5-6 2-4.75a10.35 10.35 0 0 0 5 5M61.25 70.75c1.25 1.25 1.5 3.75 2.75 3s2.75-2.25 3.5-2.75"/></g><path d="M-14 65.5c-1 1.5-1 4.5.25 5.75s2.5.75 2.75 2.25 1.5 3.25 2.5 3.25 2.5-2 3.25-2.75a3.9 3.9 0 0 1 2.5-1c1.75.5 5.5.25 6 1.75" stroke="#57e3ff" stroke-linecap="round" stroke-linejoin="round" stroke-width=".5" fill="none"/><g stroke="#57e3ff" stroke-linecap="round" stroke-linejoin="round" stroke-width=".5" fill="none"><path d="M66.75 68.75c3.86-2.44 6-7 10.5-8.5-.29 2 .85 3.86 3.1 3.37s2-2.88 3.4-4.57c1-1.26 2.5-2.62 4.29-2.26 2.07.42 1.79 2.16 3.33 3.22 3.78 2.6 5.69-3 8.53-2.83 4.39.29.47 8.46 5 9.06 4.12.54 3.32-5.11 3.27-7.62-.09-5.21 3-5.79 8-5.91 2.57-.06 5.31.28 7.82-.48 1.48-.45 4.28-3.22 5.75-3 2.73.44 2.64 6.44 5.39 7.74.87.41.74 2.1 1.11 3.26M69.38 62.38a27.85 27.85 0 0 0 4.5-2.26c.08-.85.82-1.38 1-2.24 0-.2.38-.25.4-.29a2.9 2.9 0 0 1 3.82-1.71c.38.16.18.87.76.74 0 .26.08.61 0 .7a3.21 3.21 0 0 0-1.07 3.52 1.29 1.29 0 0 0 2.12.78 7.5 7.5 0 0 1 3.33-6.88c1.2-.87 2.72-.7 4.17-.62-.08.56.36.1.5.26M69.75 58.75c1.75-.25 3.75-2.5 5.25-4s3-2.5 4.5-2.25 1 3.25 3.25.25 3.75-2 5.25-1.75 5 2 6.25.5-2-6 .25-6.25 3.25 3.25 5.25 4.5 3 2.75 4.25.75 3.25-3.75 5.5-3a12.19 12.19 0 0 0 5 .75M89.26 41.88c-1 .06-1.91.12-2.76.12-3.5 0-4 2.5-1.5 3s4.5 2.5 6.5 4-1.5 1-3.5 0-3 0-5.5 2l-3-1s-3 .5-4.5 2-3.5.5-7.5-.5M68.75 48.25c1.5.75 3.25 2.25 5.25 1.25s3.25-2.5 4.5-2 2.5 2.25 4 1.25 3.25-.75 1.5-2.5-5.25-3-4-4 3.75-3.25 6.5-3.25 15-2.25 14.5.25-1.75 8.25 0 7.25 3.25-2.75 4.75-2.75 2.75-.25 3.25-2.75 3-3.75 4-2.75 2.5 2.25 2.25.5.5-4.5 4-4.25l1.74.13M68.25 3.5c2.25-.5 7 0 6 1.75s4 7 4.5 5.5-2-4.5.75-4.75 5.75 3 7.5 3.25 5.5-1.5 3.25-3-2.75-4.5-5.5-4.25-7-.25-6-3M69.25 1c1.75.5 5.5.25 6 1.75s2.75 2.75 2.75 1.5l-1.75-2.75s-4-3.5-2-4M69.5 36c1.25.5 3.25 2.25 4 1.25s-8-3-.5-4.75 6.25-1 7.25-3.5-6.5-3.25-4.5-4.5 9.33-3 11.75-1.75c3 1.5 1.5 3.75 1.75 4.5s-1 4.75 2.5 6 5 2.5 8 .75 7-3.25 7-2-.25 2 2.5.25 7.25-3.25 9.75-3 5-.5 4-2.25-3.75-2.75-5-4.75.75-3.25 3.25-3.5 12 .75 13.75 2.25 2.25 5.5 2.25 8-1 3.25 1.75 5.25M69.75 30a8.32 8.32 0 0 0 5.25-.5c1-.5-2.5-3-4.75-3.75M70.25 20.75c3.75-.5 7.25-1.5 9.75-1s7.75-.5 9.75 3M70.5 16.75c3.5.5 10.75 2 12.5 2 .55 0 1.78 0 3.25.06M71 8.25a21.39 21.39 0 0 0 5.5 3.75c2 1 5 2 5.25.75s-2.75-3.25-1-3.25 3.25 2 6.5 1.75 9.25-4 7.25-4.75-3.75-3.5-5.5-4.5a6.72 6.72 0 0 0-4-1c-1.25 0-4-1.25-2-2M70.5 14.25c1.75.5 10.25 2.75 14.25 2.5s10.75-.5 11.75.25.25 2 .5 3.25 1 2.25 2.25 1 3.75-2 5-1.5 3.5 1.25 3.25 0-2.75-3.25-1.5-5.5 7-6.5 6.5-4.25-1.25 5.25.5 4.5 5-2 8-1.5"/></g><g stroke="#57e3ff" stroke-linecap="round" stroke-linejoin="round" stroke-width=".5" fill="none"><path d="M-5.25 68.75c3.86-2.44 6-7 10.5-8.5-.29 2 .85 3.86 3.1 3.37s2-2.88 3.4-4.57c1-1.26 2.5-2.62 4.29-2.26 2.07.42 1.79 2.16 3.33 3.22 3.78 2.6 5.69-3 8.53-2.83 4.39.29.47 8.46 5 9.06 4.12.54 3.32-5.11 3.27-7.62-.09-5.21 3-5.79 8-5.91 2.57-.06 5.31.28 7.82-.48 1.48-.45 4.28-3.22 5.75-3 2.73.44 2.64 6.44 5.39 7.74.87.41.74 2.1 1.11 3.26M77.25 60.25c-4.47 1.48-6.64 6.06-10.5 8.5a4.49 4.49 0 0 1-3.93.76c-1.24-.34-.4-2.08-.55-3.26-.18-1.47 1.57-.88 2.17-1.88a3.11 3.11 0 0 0 .56-2.75M-2.62 62.38a27.85 27.85 0 0 0 4.5-2.26c.08-.85.82-1.38 1-2.24.05-.2.38-.25.4-.29a2.9 2.9 0 0 1 3.82-1.71c.38.16.18.87.76.74 0 .26.08.61 0 .7a3.21 3.21 0 0 0-1.07 3.52 1.29 1.29 0 0 0 2.12.78 7.5 7.5 0 0 1 3.33-6.88c1.2-.87 2.72-.7 4.17-.62-.08.56.36.1.5.26M69.37 62.38a27.06 27.06 0 0 0 4.5-2.26M68.37 63.88c-.84.45-1.07 1.44-1.59 2.18-.11.16-.45.18-.41.56-.53-.12-1 .42-1.49.24a.44.44 0 0 1-.21-.69c.36-.32.26-.89.48-.94.73-.19.27-1.15 1-1.11a9 9 0 0 0 .12-4.46c-.5-1.88-1.63-3.49-2.37-5.28M-2.25 58.75c1.75-.25 3.75-2.5 5.25-4s3-2.5 4.5-2.25 1 3.25 3.25.25 3.75-2 5.25-1.75 5 2 6.25.5-2-6 .25-6.25 3.25 3.25 5.25 4.5 3 2.75 4.25.75 3.25-3.75 5.5-3a12.19 12.19 0 0 0 5 .75M45.75 48c1.5-.25 6.25-1 7.5-2.25s-1.75-5-.25-5.5 5.5.25 7 1.5 2.75 5 3.25 7.25 3.75 4.75 4.25 6.5 0 4.5.5 5 1-1.5 1.75-1.75c1.68-.56 3.75-2.5 5.25-4M17.26 41.88c-1 .06-1.91.12-2.76.12-3.5 0-4 2.5-1.5 3s4.5 2.5 6.5 4-1.5 1-3.5 0-3 0-5.5 2l-3-1s-3 .5-4.5 2-3.5.5-7.5-.5M-3.25 48.25c1.5.75 3.25 2.25 5.25 1.25s3.25-2.5 4.5-2 2.5 2.25 4 1.25 3.25-.75 1.5-2.5-5.25-3-4-4 3.75-3.25 6.5-3.25 15-2.25 14.5.25-1.75 8.25 0 7.25 3.25-2.75 4.75-2.75 2.75-.25 3.25-2.75 3-3.75 4-2.75 2.5 2.25 2.25.5.5-4.5 4-4.25l1.74.13M51 34.81c4.19.41 9.73 1.15 11.76 2.44 2.75 1.75 4.5 6 4.75 8.5M68.75 48.25c1.5.75 3.25 2.25 5.25 1.25M12.75 74c-2.75.25-7-.25-6-3s7.5-4.5 8.25-6 2.75-1.75 3.75.25 3.75 5.25 5 5.75 4.25 3 3.25 4.75M33.75 76c-.5-1.25-1.75-3.25 0-4.5s10.25-3.75 12-2.75 1.75 2 .5 3.25-6.5 1.25-5.75 2.5M30.25 75.75c.5-1.25 0-4 1.5-5s6.25-2.75 7-4 3.93-1.88 6-2M46.5 64.75c.23.18 1.94.19 2.25.75 1.25 2.25 1.5 6.25-.25 7.5M51.75 72.75c.75-2.25 2.25-8.75.75-9.5s-4.75-1.5-2.75-3.5 5.75-3.75 6.75-3.25 4.5 3.5 3.75 5.25a18.65 18.65 0 0 1-2.25 3.75c-1 1.5-1 4.5.25 5.75s2.5.75 2.75 2.25M58 53.75c1-.25 2.25 1.5 2.5 3s2.25 2.75 2.5 3.75-2.25 5-2.75 6.25a3.64 3.64 0 0 0 1 4c1.25 1.25 1.5 3.75 2.75 3s2.75-2.25 3.5-2.75M54 73.25c.75-.5.75-1 .5-3s.75-6.75 0-7.75-1.5-3 0-2.5c.82.27 2.51-.09 2.75 1.38.19 1.19-1 4.19-1 4.87 0 1.5-.38 5.6-.38 6.87M-3.75 3.5c2.25-.5 7 0 6 1.75s4 7 4.5 5.5-2-4.5.75-4.75 5.75 3 7.5 3.25 5.5-1.5 3.25-3-2.75-4.5-5.5-4.25-7-.25-6-3M23.75-1c1.25.5 4.25 3 3.25 4.75s-.5 3.25 1 3.5 6.25-2 5.75-3.25-1.75-3.25 0-4.5M45.75-3.25c1.75 1 1.75 2 .5 3.25s-6.5 1.25-5.75 2.5 5 4 7.75 4 3-3.5 4.75-4M54 1.25c.75-.5.75-1 .5-3M56.25-5.75c0 1.5-.38 5.6-.38 6.87a2.73 2.73 0 0 0 .5 1.88M62.41 26.05a5.35 5.35 0 0 1 1.09 2.45c.5 3.5.25 5.75 2.25 7M70.5 44.75c1.75 1 2 2 4 1.25M67 36.25a7.58 7.58 0 0 1 2 4c0 1-.5 2.25.25 3.25M-2.75 1c1.75.5 5.5.25 6 1.75s2.75 2.75 2.75 1.5l-1.75-2.75s-4-3.5-2-4M26-1.75c1.75.5 3.75 1 3.5 2.75s.25 4 .75 2.75 0-4 1.5-5M48.75-6.5c1.25 2.25 1.5 6.25-.25 7.5s-3 3-1.5 2.75 4-.75 4.75-3 2.25-8.75.75-9.5M58-6.5c-1 1.5-1 4.5.25 5.75s2.5.75 2.75 2.25 1.5 3.25 2.5 3.25 2.5-2 3.25-2.75a3.9 3.9 0 0 1 2.5-1c1.75.5 5.5.25 6 1.75M-2.5 36c1.25.5 3.25 2.25 4 1.25s-8-3-.5-4.75 6.25-1 7.25-3.5-6.5-3.25-4.5-4.5 9.33-3 11.75-1.75c3 1.5 1.5 3.75 1.75 4.5s-1 4.75 2.5 6 5 2.5 8 .75 7-3.25 7-2-.25 2 2.5.25 7.25-3.25 9.75-3 5-.5 4-2.25-3.75-2.75-5-4.75.75-3.25 3.25-3.5 12 .75 13.75 2.25 2.25 5.5 2.25 8-1 3.25 1.75 5.25M69.5 36c1.25.5 3.25 2.25 4 1.25s-8-3-.5-4.75M-2.25 30a8.32 8.32 0 0 0 5.25-.5c1-.5-2.5-3-4.75-3.75M-1.75 20.75c3.75-.5 7.25-1.5 9.75-1s7.75-.5 9.75 3M69.75 30a8.32 8.32 0 0 0 5.25-.5c1-.5-2.5-3-4.75-3.75s-3.75-4.5 0-5 7.25-1.5 9.75-1M68.5 29.75a4.54 4.54 0 0 1-2-4c0-1.75-2-7.5-5-7.75s-20.25-2-20.75.25 3.25 4.5 4 5.5.5 3.25-.75 3.5-4 1-3.75-.5-1-3.25-2.5-1.5c-.75.87-2.66 1.5-3.75 2.25M32.25 28.75a11 11 0 0 1-6.75 3c-2 0-6.25-.5-6-2.75s.25-3.25-.25-4.25M-1.5 16.75c3.5.5 10.75 2 12.5 2 .55 0 1.78 0 3.25.06M70.5 16.75c3.5.5 10.75 2 12.5 2M39.5 17.5c2-1 3.25-2.25 7.75-2s17.5 1.25 18 2.25 2 1.75 2.5.5a2.44 2.44 0 0 1 1.25-1.5M-1 8.25a21.39 21.39 0 0 0 5.5 3.75c2 1 5 2 5.25.75s-2.75-3.25-1-3.25 3.25 2 6.5 1.75 9.25-4 7.25-4.75-3.75-3.5-5.5-4.5a6.72 6.72 0 0 0-4-1c-1.25 0-4-1.25-2-2M22.25-.5c1 2 2.25 3.25 2.5 5s-.5 4.75 2 4.75a12.93 12.93 0 0 0 2-.16M30.81 8.59a8.51 8.51 0 0 0 3.69-2.34c2-2.25.25-2.75.5-4s6-4 7-3.25-1.25 0-2.25 1.75-4.25 6.25 1 6.5 6.25 1.25 6.5 2.25 5 .75 5-.5 1.5-6 2-4.75a10.35 10.35 0 0 0 5 5M71 8.25a21.39 21.39 0 0 0 5.5 3.75M68.25 3.5c2.25-.5 7 0 6 1.75M58 4l4 3.25s2.25 2.5 3 .75-.25-3.5 1.5-4M70.25 7.5c-1.5-1.5-3.25-2.25-3.25-1.25s2.75 1.75 1.75 3.25-5 2.5-6.5 1.75l-1.75-1.25M-1.5 14.25c1.75.5 10.25 2.75 14.25 2.5s10.75-.5 11.75.25.25 2 .5 3.25 1 2.25 2.25 1 3.75-2 5-1.5 3.5 1.25 3.25 0-2.75-3.25-1.5-5.5 7-6.5 6.5-4.25-1.25 5.25.5 4.5 5-2 8-1.5M70.5 14.25c1.75.5 10.25 2.75 14.25 2.5M70.75 11.5c3 1.5 9.5 4 16 3.75M70.25 11.25c-2-.87-4.25 2.25-7 1.75s-4.75-1-6.25-1.25a15.43 15.43 0 0 0-2.25-.25M13 73c-1.25 0-4-1.25-2-2 2.75-2 9.5-2.25 11.25.5 1 2 2.25 3.25 2.5 5M35 74.25c.25-1.25 6-4 7-3.25s-1.25 0-2.25 1.75M61.25-1.25c1.25 1.25 1.5 3.75 2.75 3s2.75-2.25 3.5-2.75"/></g><g stroke="#57e3ff" stroke-linecap="round" stroke-linejoin="round" stroke-width=".5" fill="none"><path d="M5.25 60.25c-4.47 1.48-6.64 6.06-10.5 8.5a4.49 4.49 0 0 1-3.93.76c-1.24-.34-.4-2.08-.55-3.26-.18-1.47 1.57-.88 2.17-1.88a3.11 3.11 0 0 0 .56-2.75M-2.63 62.38a27.06 27.06 0 0 0 4.5-2.26M-26.25 48c1.5-.25 6.25-1 7.5-2.25s-1.75-5-.25-5.5 5.5.25 7 1.5 2.75 5 3.25 7.25 3.75 4.75 4.25 6.5 0 4.5.5 5 1-1.5 1.75-1.75c1.68-.56 3.75-2.5 5.25-4M-3.25 48.25c1.5.75 3.25 2.25 5.25 1.25M-1.5 44.75c1.75 1 2 2 4 1.25M-14-6.5c-1 1.5-1 4.5.25 5.75s2.5.75 2.75 2.25 1.5 3.25 2.5 3.25 2.5-2 3.25-2.75a3.9 3.9 0 0 1 2.5-1c1.75.5 5.5.25 6 1.75M-2.5 36c1.25.5 3.25 2.25 4 1.25s-8-3-.5-4.75M-2.25 30a8.32 8.32 0 0 0 5.25-.5c1-.5-2.5-3-4.75-3.75s-3.75-4.5 0-5 7.25-1.5 9.75-1M-1.5 16.75c3.5.5 10.75 2 12.5 2M-1 8.25a21.39 21.39 0 0 0 5.5 3.75M-3.75 3.5c2.25-.5 7 0 6 1.75M-1.5 14.25c1.75.5 10.25 2.75 14.25 2.5M-1.25 11.5c3 1.5 9.5 4 16 3.75"/></g><g stroke="#57e3ff" stroke-linecap="round" stroke-linejoin="round" stroke-width=".5" fill="none"><path d="M12.75 2c-2.75.25-7-.25-6-3s7.5-4.5 8.25-6 2.75-1.75 3.75.25 3.75 5.25 5 5.75 4.25 3 3.25 4.75M33.75 4c-.5-1.25-1.75-3.25 0-4.5s10.25-3.75 12-2.75 1.75 2 .5 3.25-6.5 1.25-5.75 2.5M30.25 3.75c.5-1.25 0-4 1.5-5s6.25-2.75 7-4 3.93-1.88 6-2M46.5-7.25c.23.18 1.94.19 2.25.75 1.25 2.25 1.5 6.25-.25 7.5M51.75.75c.75-2.25 2.25-8.75.75-9.5s-4.75-1.5-2.75-3.5 5.75-3.75 6.75-3.25 4.5 3.5 3.75 5.25a18.65 18.65 0 0 1-2.25 3.75c-1 1.5-1 4.5.25 5.75s2.5.75 2.75 2.25M58-18.25c1-.25 2.25 1.5 2.5 3s2.25 2.75 2.5 3.75-2.25 5-2.75 6.25a3.64 3.64 0 0 0 1 4c1.25 1.25 1.5 3.75 2.75 3s2.75-2.25 3.5-2.75M54 1.25c.75-.5.75-1 .5-3s.75-6.75 0-7.75-1.5-3 0-2.5c.82.27 2.51-.09 2.75 1.38.19 1.19-1 4.19-1 4.87 0 1.5-.38 5.6-.38 6.87M13 1c-1.25 0-4-1.25-2-2 2.75-2 9.5-2.25 11.25.5 1 2 2.25 3.25 2.5 5M35 2.25c.25-1.25 6-4 7-3.25s-1.25 0-2.25 1.75"/></g></pattern><linearGradient id="j" x1="115.93" y1="281.61" x2="141.26" y2="137.96" gradientUnits="userSpaceOnUse"><stop offset=".34" stop-color="#dce2aa" stop-opacity=".8"/><stop offset=".34" stop-color="#dce2aa" stop-opacity=".76"/><stop offset=".35" stop-color="#dce2aa" stop-opacity=".67"/><stop offset=".36" stop-color="#dce2aa" stop-opacity=".59"/><stop offset=".38" stop-color="#dce2aa" stop-opacity=".54"/><stop offset=".4" stop-color="#dce2aa" stop-opacity=".51"/><stop offset=".47" stop-color="#dce2aa" stop-opacity=".5"/><stop offset=".85" stop-color="#dce2aa" stop-opacity="0"/></linearGradient><linearGradient id="d" x1="176.82" y1="239.46" x2="102.18" y2="224.61" gradientUnits="userSpaceOnUse"><stop offset="0" stop-color="#dce2aa" stop-opacity=".8"/><stop offset=".11" stop-color="#dce2aa" stop-opacity=".76"/><stop offset=".29" stop-color="#dce2aa" stop-opacity=".65"/><stop offset=".51" stop-color="#dce2aa" stop-opacity=".48"/><stop offset=".77" stop-color="#dce2aa" stop-opacity=".24"/><stop offset="1" stop-color="#dce2aa" stop-opacity="0"/></linearGradient><radialGradient id="a" cx="-930.03" cy="172.76" r="12.65" gradientTransform="translate(1580.02 126.12) scale(1.53 .27)" gradientUnits="userSpaceOnUse"><stop offset="0" stop-color="#fff"/><stop offset="1" stop-color="#5effff" stop-opacity="0"/></radialGradient><radialGradient id="b" cx="-931" cy="145.09" r="28.54" gradientTransform="translate(1580.02) scale(1.53 1)" gradientUnits="userSpaceOnUse"><stop offset="0" stop-color="#e1eeff" stop-opacity="0"/><stop offset=".49" stop-color="#e1eeff"/><stop offset="1" stop-color="#8febff" stop-opacity="0"/></radialGradient><radialGradient id="k" cx="-958.15" cy="165.2" r="12.65" gradientTransform="translate(1580.02 120.61) scale(1.53 .27)" xlink:href="#a"/><radialGradient id="l" cx="-959.12" cy="137.54" r="28.54" xlink:href="#b"/><radialGradient id="m" cx="-986.27" cy="157.65" r="12.65" gradientTransform="translate(1580.02 115.09) scale(1.53 .27)" xlink:href="#a"/><radialGradient id="n" cx="-987.23" cy="129.98" r="28.54" xlink:href="#b"/><radialGradient id="o" cx="-921.09" cy="164.81" r="12.65" gradientTransform="translate(1580.02 120.32) scale(1.53 .27)" xlink:href="#a"/><radialGradient id="p" cx="-922.06" cy="137.14" r="28.54" xlink:href="#b"/><radialGradient id="q" cx="-948.52" cy="158.23" r="12.65" gradientTransform="translate(1580.02 115.52) scale(1.53 .27)" xlink:href="#a"/><radialGradient id="r" cx="-949.49" cy="130.56" r="28.54" xlink:href="#b"/><radialGradient id="s" cx="-975.95" cy="151.65" r="12.65" gradientTransform="translate(1580.02 110.72) scale(1.53 .27)" xlink:href="#a"/><radialGradient id="t" cx="-976.92" cy="123.99" r="28.54" xlink:href="#b"/><radialGradient id="u" cx="-912.16" cy="156.86" r="12.65" gradientTransform="translate(1580.02 114.51) scale(1.53 .27)" xlink:href="#a"/><radialGradient id="v" cx="-913.12" cy="129.19" r="28.54" xlink:href="#b"/><radialGradient id="w" cx="-938.89" cy="151.26" r="12.65" gradientTransform="translate(1580.02 110.43) scale(1.53 .27)" xlink:href="#a"/><radialGradient id="x" cx="-939.86" cy="123.59" r="28.54" xlink:href="#b"/><radialGradient id="y" cx="-965.63" cy="145.66" r="12.65" gradientTransform="translate(1580.02 106.34) scale(1.53 .27)" xlink:href="#a"/><radialGradient id="z" cx="-966.6" cy="117.99" r="28.54" xlink:href="#b"/><radialGradient id="A" cx="-904.02" cy="148.68" r="12.65" gradientTransform="translate(1580.02 108.54) scale(1.53 .27)" xlink:href="#a"/><radialGradient id="B" cx="-904.99" cy="121.01" r="28.54" xlink:href="#b"/><radialGradient id="C" cx="-929.67" cy="144.17" r="12.65" gradientTransform="translate(1580.02 105.25) scale(1.53 .27)" xlink:href="#a"/><radialGradient id="D" cx="-930.63" cy="116.51" r="28.54" xlink:href="#b"/><radialGradient id="E" cx="-955.31" cy="139.67" r="12.65" gradientTransform="translate(1580.02 101.97) scale(1.53 .27)" xlink:href="#a"/><radialGradient id="F" cx="-956.28" cy="112" r="28.54" xlink:href="#b"/><linearGradient id="c" x1="150.61" y1="158.01" x2="152.83" y2="103.08" gradientUnits="userSpaceOnUse"><stop offset="0" stop-color="#3695ff"/><stop offset="1" stop-color="#3c1ef0" stop-opacity="0"/></linearGradient><linearGradient id="G" x1="125.65" y1="145.12" x2="126.39" y2="123.58" xlink:href="#c"/><linearGradient id="H" x1="176.07" y1="109.66" x2="87.82" y2="95.34" xlink:href="#d"/><linearGradient id="e" x1=".38" y1="165.08" x2="100.83" y2="165.08" gradientUnits="userSpaceOnUse"><stop offset="0" stop-color="#15d5ee" stop-opacity=".8"/><stop offset=".9" stop-color="#39b54a" stop-opacity="0"/></linearGradient><linearGradient id="I" x1="12.02" y1="274.92" x2="97.22" y2="274.92" xlink:href="#e"/><linearGradient id="J" x1="12.02" y1="321.98" x2="97" y2="321.98" xlink:href="#e"/><linearGradient id="K" x1="42.92" y1="43.84" x2="109.43" y2="43.84" xlink:href="#e"/><linearGradient id="L" x1="177.39" y1="41.58" x2="218.27" y2="41.58" xlink:href="#e"/><linearGradient id="M" x1="192.67" y1="155.01" x2="254.73" y2="155.01" xlink:href="#e"/><linearGradient id="N" x1="199.94" y1="298.36" x2="245.51" y2="298.36" xlink:href="#e"/><linearGradient id="O" x1="84.73" y1="266.01" x2="109.1" y2="266.01" xlink:href="#e"/><linearGradient id="P" x1="85.36" y1="197.11" x2="108.23" y2="197.11" xlink:href="#e"/><linearGradient id="Q" x1="274.03" y1="229.6" x2="236.89" y2="224.1" xlink:href="#c"/><linearGradient id="R" x1="96.36" y1="265.12" x2="46.44" y2="300.23" xlink:href="#c"/><linearGradient id="S" x1="41.31" y1="211.18" x2="97.06" y2="211.18" gradientUnits="userSpaceOnUse"><stop offset="0" stop-color="#e7276d"/><stop offset="1" stop-color="#8c1c4c" stop-opacity="0"/></linearGradient><linearGradient id="f" x1="51.17" y1="219.35" x2="43.29" y2="226.5" gradientUnits="userSpaceOnUse"><stop offset="0" stop-color="#070408"/><stop offset="1" stop-color="#070408" stop-opacity="0"/></linearGradient><linearGradient id="T" x1="53.82" y1="294.18" x2="46.46" y2="300.85" xlink:href="#f"/></defs><title>cooling_tower-on_1</title><g><g stroke="#0970b7" stroke-linecap="round" stroke-linejoin="round" stroke-width=".75" fill="none"><path d="M40.39 377.77c-2.29 2.07-4.36 4.73-3.49 8s4.1 5.23 6.89 6.41a92 92 0 0 0 9.75 3.09l10.35 3.11 43.52 13.06 21 6.31c7 2.1 14 4.42 21 6.29a37 37 0 0 0 21.43-.61 20 20 0 0 0 8-5c2.51-2.71 4.79-5.7 7.16-8.53l29-34.64 7-8.34c2.09-2.5 4.82-5.06 3.43-8.59-1.18-3-4.42-4.89-7.24-6.12-3.37-1.47-7-2.16-10.6-3l-43.29-10.65-21.68-5.33c-7.05-1.74-14.08-3.66-21.18-5.2s-14.9-1.24-21.45 1.71c-2.91 1.32-5.24 3.57-7.7 5.57l-8.29 6.8q-17.52 14.29-35 28.62z" opacity=".75"/><path d="M40 369.73c-2.29 2-4.43 4.71-3.5 8s4.19 5.12 7 6.27a99.74 99.74 0 0 0 9.74 3l10.63 3.13 43.3 12.77 21.58 6.36c7 2.05 13.87 4.31 20.88 6.12a38.37 38.37 0 0 0 20.77-.44 20 20 0 0 0 8.64-5.06c2.51-2.65 4.77-5.57 7.13-8.35l29.09-34.13 7.17-8.42c2-2.37 4.73-4.84 3.42-8.26-1.15-3-4.54-5-7.35-6.19a70 70 0 0 0-10.76-3l-42.83-10.33-21.91-5.3c-7.12-1.72-14.22-3.62-21.38-5.15-6.76-1.45-14.57-1.3-21 1.4-3.08 1.29-5.48 3.46-8.07 5.53l-8.58 6.87-35.27 28.22z" opacity=".75"/><path d="M39.67 361.64c-2.31 2-4.47 4.65-3.49 7.92.87 2.94 4 4.86 6.61 6a86.42 86.42 0 0 0 9.71 3l10.38 3 43.61 12.62c14.21 4.11 28.36 8.58 42.66 12.33a39.88 39.88 0 0 0 21.24-.24 20.3 20.3 0 0 0 8.49-4.66c2.6-2.55 4.87-5.54 7.27-8.3l29.85-34.44 7.07-8.15c2.09-2.4 4.6-4.87 2.93-8.26-1.43-2.89-4.82-4.74-7.7-5.85a80.65 80.65 0 0 0-10.3-2.74l-43.43-10.29c-14.25-3.37-28.46-7-42.78-10.12-7-1.52-14.94-1.33-21.65 1.42-2.86 1.17-5.13 3.23-7.54 5.13l-8.81 6.9-35.4 27.85z" opacity=".75"/><path d="M39.31 353.48c-2.3 1.95-4.51 4.57-3.52 7.81.94 3.07 4.3 5 7.09 6.06 3.15 1.22 6.52 2 9.76 2.9l10.4 3 43.37 12.32 21.43 6.09c7.18 2 14.35 4.28 21.59 6.11a40.5 40.5 0 0 0 21.13-.32 20.31 20.31 0 0 0 8.8-4.88c2.49-2.5 4.72-5.31 7.06-8l29.93-33.87 7.35-8.32c2.08-2.36 4.29-4.74 2.49-8-1.53-2.79-4.86-4.54-7.73-5.6a82.5 82.5 0 0 0-10.28-2.66l-43.53-10.12c-14.26-3.31-28.5-6.89-42.82-9.94-7.07-1.51-15-1.32-21.74 1.36-3 1.17-5.3 3.28-7.78 5.19l-8.81 6.79q-17.73 13.65-35.43 27.32z" opacity=".75"/></g><g stroke="#ca2584" stroke-linecap="round" stroke-linejoin="round" stroke-width=".5" fill="none"><path opacity=".36" d="M.38 61.25l98.36-21.98.88-.16 9.71.67M193.88 353.7l-60-15.03-.82.66-30.29 27.25M5.48 153.69l95.14-36.54 1.08.1 88.99 10.43M217.92 145.3l13.82 1.74M27.82 163.65l58.35-24.34M228.71 324.61l-121.97-27.9M102.2 218.61l.12 8.32-.08.26-69.54 42.54M228 241.32l-120.55-21.76-.58-.09-.1-.49-1.14-87.3-.03-.53-4.36-12.41-.57-1.89-1.17-77.75 9.52-7.09 73.02 4.65M227.8 246.58l-120.94-22.2-.31.18-3.81 2.32-.41.29.43 28.59.1.38.43.16 140.3 28.61M177.4 44.43l77.33 5.29M106.84 224.38l-.06-4.41-.04-.52-.58-.12-3.95-.72-69.94 41.55M84.66 37.2l24.36-5.19M95.58 191.19l-.15-8.43M102.77 256.19l3.88 39.69.02.88-74.76 56.97M102.76 255.99l-.39.46-87.95 59.13M88.28 138.43l17.34-7.23 68.4 8.59M76.9 286.9l-17-3.85M84.89 281.32l-16.83-3.73M231.84 316.26l-3.1 8.24-.78.93-.83.91M251.32 121.75l-.57 11.96M218.4 130.92l32.31 3.79"/></g><g stroke="#ca2584" stroke-linecap="round" stroke-linejoin="round" stroke-width=".5" fill="none"><path d="M114.84 228.77a9.18 9.18 0 0 1-.43-3.83 41.69 41.69 0 0 1 0-4.33 13.56 13.56 0 0 1 1-4.06 3.9 3.9 0 0 1 .74-1.34 5.13 5.13 0 0 1 .84-.52l1-.61 15.43-9.32 15.47-9.36 7.72-4.66a14.26 14.26 0 0 0 3.06-2.28 13 13 0 0 0 2.09-3 22.29 22.29 0 0 0 2.31-7.86 43 43 0 0 0 .19-4.4c0-1.46.07-2.92 0-4.37a13.24 13.24 0 0 0-2.28-7 7.38 7.38 0 0 0-5.91-3.08 7.76 7.76 0 0 0-3.56.89c-1.26.61-2.48 1.32-3.72 2l-8 4.2-16 8.43-15.88 8.38q-7.91 4.24-15.91 8.45c-1.29.69-2.58 1.38-3.88 2.06" opacity=".36"/><g opacity=".36"><path d="M114.41 224.77l-.85.52M111 226.87l-.85.52a3.53 3.53 0 0 1 1-.31"/><path d="M112.24 227a4 4 0 0 1 .83.2 3.54 3.54 0 0 1 .75.39" stroke-dasharray="1.1351364850997925,1.1351364850997925"/><path d="M114.28 228a1.69 1.69 0 0 1 .32.27 4.77 4.77 0 0 1 .22.52"/></g><path d="M97 272.83q6.6-4.54 13.19-9.14l13.27-9.27 13.25-9.25 13.27-9.27q3.31-2.31 6.62-4.63a16 16 0 0 0 2.76-2.24 12.69 12.69 0 0 0 1.87-2.67 22.71 22.71 0 0 0 2.28-7 49.16 49.16 0 0 0 .37-7.77 16.5 16.5 0 0 0-1.15-6.64 7.92 7.92 0 0 0-4.65-4.44 7.21 7.21 0 0 0-3.63-.17 10.12 10.12 0 0 0-3.14 1.42l-6.81 4.24-13.7 8.53-13.8 8.62-2.57 1.62M153.19 213.35c0 2.58 0 5.22-1.17 7.6a2.51 2.51 0 0 1-.84 1.07c-.54.38-1.1.74-1.66 1.11l-3.4 2.28-13.77 9.2-13.73 9.18-13.62 9.14-13.65 9.07-1.72 1.15" opacity=".36"/><g opacity=".36"><path d="M157.82 210.41a4.53 4.53 0 0 1-.92.39"/><path d="M155.71 210.93a4.19 4.19 0 0 1-.86-.15 4.41 4.41 0 0 1-.85-.39" stroke-dasharray="1.2047141790390015,1.2047141790390015"/><path d="M153.48 210.08a.7.7 0 0 1-.39-.33c-.06-.12-.05-.37-.17-.44l.33.63a1.38 1.38 0 0 1 0 .29M153.2 212.35v1"/></g><path d="M153.48 171.69a23.73 23.73 0 0 1-.72 7.47 6.78 6.78 0 0 1-.3.79 3.89 3.89 0 0 1-.33.78 1.89 1.89 0 0 1-.65.43l-.84.49-3.41 2-13.63 7.84-13.7 7.88-6.84 3.94a22.15 22.15 0 0 0-5.69 3.91 17.51 17.51 0 0 0-3.36 5.69 24.84 24.84 0 0 0-1.54 7.12c-.1 1.29-.06 2.6 0 3.89s0 2.55.12 3.81a15.34 15.34 0 0 0 1.8 6.67 8.94 8.94 0 0 0 4.55 4 8.27 8.27 0 0 0 6.49-.36 32.52 32.52 0 0 0 3.12-2l3.28-2.14 6.56-4.28 13.28-8.65 13.08-8.53c1-.67 2-1.42 3.11-2" opacity=".36"/><g opacity=".36"><path d="M157.94 169.21a2.5 2.5 0 0 1-.91.41"/><path d="M155.82 169.71a3.52 3.52 0 0 1-.65-.1 3.69 3.69 0 0 1-1.07-.48" stroke-dasharray="1.218491792678833,1.218491792678833"/><path d="M153.57 168.84a.57.57 0 0 1-.26-.2 1.9 1.9 0 0 1-.24-.62 5.3 5.3 0 0 1 .35.72v.2M153.49 170.69v1"/></g><path d="M95.17 204.08q6.15-3.37 12.28-6.79t12.28-6.83l12.27-6.81 12.26-6.82 12.19-6.78 1.51-.84" opacity=".36"/><path d="M148.24 213.13a4.56 4.56 0 0 1-2.37 5 5 5 0 0 1-5.52-1.62 6.14 6.14 0 0 1-1.3-6.09 4 4 0 0 1 4.58-2.48 6.27 6.27 0 0 1 4.61 5.19zM129.37 203.42c.33 2-.31 4.27-2.28 5.12s-4.28-.24-5.62-1.79a6.65 6.65 0 0 1-1.45-6.39 3.84 3.84 0 0 1 4.6-2.43 6.8 6.8 0 0 1 4.75 5.49zM127.58 248a4.75 4.75 0 0 1-2.47 5.19c-2 .88-4.33-.11-5.72-1.68a6.4 6.4 0 0 1-1.37-6.34 4.14 4.14 0 0 1 4.78-2.58 6.53 6.53 0 0 1 4.78 5.41z" stroke-dasharray="2" opacity=".36"/></g><g><path stroke="#22afff" stroke-linecap="round" stroke-linejoin="round" fill="url(#g)" d="M21.02 312.6l16.52 36.18 128.33 35.03 57.87-62.21 14.23-37.88-133.85-27.2-83.1 56.08z"/><path stroke="#22afff" stroke-linecap="round" stroke-linejoin="round" stroke-width=".75" stroke-dasharray="2" fill="none" d="M171.79 350.61l-5.92 33.2"/><g><path fill="url(#h)" d="M104.12 256.52l-83.1 56.08 150.77 38.01 66.18-66.89-133.85-27.2z"/><path opacity=".25" fill="url(#i)" d="M104.12 256.52l-83.1 56.08 150.77 38.01 66.18-66.89-133.85-27.2z"/><path stroke="#22afff" stroke-linecap="round" stroke-linejoin="round" stroke-width=".75" stroke-dasharray="2" fill="none" d="M104.12 256.52l-83.1 56.08 150.77 38.01 66.18-66.89-133.85-27.2z"/></g></g><g><g opacity=".64"><path fill="#19181f" d="M105 137.07l-65.19 27.96 4.05 98.88 123.37 26.74 51.58-44.21 3.37-94.22-117.18-15.15z"/><path fill="url(#j)" d="M105 137.07l-65.19 27.96 4.05 98.88 123.37 26.74 51.58-44.21 3.37-94.22-117.18-15.15z"/></g><g stroke="#dce2aa" stroke-linecap="round" stroke-linejoin="round" fill="none"><path d="M105.01 137.07l117.17 15.15M222.18 152.22l-3.37 94.22"/></g><g stroke="#dce2aa" stroke-linecap="round" stroke-linejoin="round" fill="none"><path d="M101.79 138.45l117.78 15.36M219.57 153.81l-3.29 94.8"/></g><g stroke="#dce2aa" stroke-linecap="round" stroke-linejoin="round" fill="none"><path d="M98.54 139.85l118.38 15.57M216.92 155.42l-3.2 95.39"/></g><g stroke="#dce2aa" stroke-linecap="round" stroke-linejoin="round" fill="none"><path d="M95.24 141.26l118.99 15.79M214.23 157.05l-3.12 95.99"/></g><g stroke="#dce2aa" stroke-linecap="round" stroke-linejoin="round" fill="none"><path d="M91.89 142.69l119.61 16.02M211.5 158.71l-3.03 96.59"/></g><g stroke="#dce2aa" stroke-linecap="round" stroke-linejoin="round" fill="none"><path d="M88.5 144.15l120.23 16.24M208.73 160.39l-2.93 97.21"/></g><g stroke="#dce2aa" stroke-linecap="round" stroke-linejoin="round" fill="none"><path d="M85.07 145.62l120.85 16.48M205.92 162.1l-2.84 97.82"/></g><g stroke="#dce2aa" stroke-linecap="round" stroke-linejoin="round" fill="none"><path d="M81.58 147.12l121.49 16.71M203.07 163.83l-2.74 98.45"/></g><g stroke="#dce2aa" stroke-linecap="round" stroke-linejoin="round" fill="none"><path d="M78.05 148.63l122.13 16.96M200.18 165.59l-2.64 99.08"/></g><g stroke="#dce2aa" stroke-linecap="round" stroke-linejoin="round" fill="none"><path d="M74.47 150.17l122.77 17.2M197.24 167.37l-2.53 99.73"/></g><g stroke="#dce2aa" stroke-linecap="round" stroke-linejoin="round" fill="none"><path d="M70.84 151.72l123.42 17.46M194.26 169.18l-2.43 100.39"/></g><g stroke="#dce2aa" stroke-linecap="round" stroke-linejoin="round" fill="none"><path d="M67.15 153.3l124.08 17.72M191.23 171.02l-2.32 101.05"/></g><g stroke="#dce2aa" stroke-linecap="round" stroke-linejoin="round" fill="none"><path d="M63.41 154.91l124.74 17.98M188.15 172.89l-2.2 101.71"/></g><g stroke="#dce2aa" stroke-linecap="round" stroke-linejoin="round" fill="none"><path d="M59.62 156.53l125.41 18.26M185.03 174.79l-2.08 102.39"/></g><g stroke="#dce2aa" stroke-linecap="round" stroke-linejoin="round" fill="none"><path d="M55.77 158.18l126.09 18.54M181.86 176.72l-1.96 103.07"/></g><g stroke="#dce2aa" stroke-linecap="round" stroke-linejoin="round" fill="none"><path d="M51.87 159.86l126.77 18.82M178.64 178.68l-1.83 103.77"/></g><g stroke="#dce2aa" stroke-linecap="round" stroke-linejoin="round" fill="none"><path d="M47.91 161.56l127.45 19.1M175.36 180.66l-1.7 104.48"/></g><g stroke="#dce2aa" stroke-linecap="round" stroke-linejoin="round" fill="none"><path d="M43.89 163.28l128.14 19.41M172.03 182.69l-1.56 105.19"/></g><path stroke="#dce2aa" stroke-linecap="round" stroke-linejoin="round" fill="url(#d)" d="M167.23 290.65l-123.37-26.74-4.05-98.88 128.84 19.71-1.42 105.91z"/></g><g><path d="M153.67 146.79l-11.55 24.37c-.38.79.1 1.65 1.17 2.08a37.92 37.92 0 0 0 13.71 2.76 38.59 38.59 0 0 0 14.59-2.57c1.14-.45 1.62-1.37 1.16-2.19l-13.75-24.54c-1-1.64-4.54-1.57-5.33.09z" opacity=".36" fill="url(#a)"/><path d="M153.67 146.79l-11.55 24.37c-.38.79.1 1.65 1.17 2.08a37.92 37.92 0 0 0 13.71 2.76 38.59 38.59 0 0 0 14.59-2.57c1.14-.45 1.62-1.37 1.16-2.19l-13.75-24.54c-1-1.64-4.54-1.57-5.33.09z" opacity=".77" fill="url(#b)"/><path d="M110.68 139.24l-11.56 24.36c-.37.79.1 1.65 1.18 2.09a37.89 37.89 0 0 0 13.7 2.71 38.39 38.39 0 0 0 14.59-2.57c1.15-.45 1.62-1.37 1.16-2.19l-13.75-24.5c-1-1.63-4.53-1.57-5.32.1z" opacity=".36" fill="url(#k)"/><path d="M110.68 139.24l-11.56 24.36c-.37.79.1 1.65 1.18 2.09a37.89 37.89 0 0 0 13.7 2.71 38.39 38.39 0 0 0 14.59-2.57c1.15-.45 1.62-1.37 1.16-2.19l-13.75-24.5c-1-1.63-4.53-1.57-5.32.1z" opacity=".77" fill="url(#l)"/><path d="M67.68 131.68l-11.55 24.37c-.38.79.1 1.64 1.17 2.08a37.69 37.69 0 0 0 13.75 2.71 38.43 38.43 0 0 0 14.59-2.56c1.14-.45 1.62-1.37 1.15-2.19q-6.9-12.26-13.82-24.5c-.97-1.59-4.5-1.59-5.29.09z" opacity=".36" fill="url(#m)"/><path d="M67.68 131.68l-11.55 24.37c-.38.79.1 1.64 1.17 2.08a37.69 37.69 0 0 0 13.75 2.71 38.43 38.43 0 0 0 14.59-2.56c1.14-.45 1.62-1.37 1.15-2.19q-6.9-12.26-13.82-24.5c-.97-1.59-4.5-1.59-5.29.09z" opacity=".77" fill="url(#n)"/><g opacity=".88"><path d="M167.34 138.84l-11.56 24.37c-.37.79.1 1.64 1.18 2.08a37.85 37.85 0 0 0 13.74 2.71 38.61 38.61 0 0 0 14.6-2.57c1.14-.45 1.62-1.37 1.15-2.19l-13.82-24.5c-.93-1.63-4.5-1.57-5.29.1z" opacity=".36" fill="url(#o)"/><path d="M167.34 138.84l-11.56 24.37c-.37.79.1 1.64 1.18 2.08a37.85 37.85 0 0 0 13.74 2.71 38.61 38.61 0 0 0 14.6-2.57c1.14-.45 1.62-1.37 1.15-2.19l-13.82-24.5c-.93-1.63-4.5-1.57-5.29.1z" opacity=".77" fill="url(#p)"/></g><g opacity=".88"><path d="M125.4 132.26l-11.56 24.37c-.37.79.1 1.65 1.18 2.09a37.89 37.89 0 0 0 13.74 2.71 38.41 38.41 0 0 0 14.6-2.57c1.14-.45 1.61-1.37 1.15-2.19l-13.83-24.5c-.92-1.63-4.49-1.57-5.28.09z" opacity=".36" fill="url(#q)"/><path d="M125.4 132.26l-11.56 24.37c-.37.79.1 1.65 1.18 2.09a37.89 37.89 0 0 0 13.74 2.71 38.41 38.41 0 0 0 14.6-2.57c1.14-.45 1.61-1.37 1.15-2.19l-13.83-24.5c-.92-1.63-4.49-1.57-5.28.09z" opacity=".77" fill="url(#r)"/></g><g opacity=".88"><path d="M83.46 125.69l-11.56 24.36c-.37.8.1 1.65 1.18 2.09a37.89 37.89 0 0 0 13.74 2.71 38.45 38.45 0 0 0 14.6-2.57c1.14-.45 1.61-1.37 1.15-2.19l-13.83-24.49c-.92-1.6-4.49-1.6-5.28.09z" opacity=".36" fill="url(#s)"/><path d="M83.46 125.69l-11.56 24.36c-.37.8.1 1.65 1.18 2.09a37.89 37.89 0 0 0 13.74 2.71 38.45 38.45 0 0 0 14.6-2.57c1.14-.45 1.61-1.37 1.15-2.19l-13.83-24.49c-.92-1.6-4.49-1.6-5.28.09z" opacity=".77" fill="url(#t)"/></g><g opacity=".66"><path d="M181 130.89l-11.55 24.37c-.37.79.1 1.64 1.17 2.08a37.74 37.74 0 0 0 13.75 2.71 38.43 38.43 0 0 0 14.63-2.56c1.15-.45 1.62-1.37 1.16-2.19l-13.83-24.5c-.96-1.64-4.54-1.58-5.33.09z" opacity=".36" fill="url(#u)"/><path d="M181 130.89l-11.55 24.37c-.37.79.1 1.64 1.17 2.08a37.74 37.74 0 0 0 13.75 2.71 38.43 38.43 0 0 0 14.63-2.56c1.15-.45 1.62-1.37 1.16-2.19l-13.83-24.5c-.96-1.64-4.54-1.58-5.33.09z" opacity=".77" fill="url(#v)"/></g><g opacity=".66"><path d="M140.12 125.29l-11.55 24.37c-.38.79.1 1.65 1.17 2.09a38.12 38.12 0 0 0 13.75 2.71 38.59 38.59 0 0 0 14.59-2.57c1.14-.45 1.62-1.37 1.15-2.19l-13.82-24.5c-.93-1.64-4.5-1.57-5.29.09z" opacity=".36" fill="url(#w)"/><path d="M140.12 125.29l-11.55 24.37c-.38.79.1 1.65 1.17 2.09a38.12 38.12 0 0 0 13.75 2.71 38.59 38.59 0 0 0 14.59-2.57c1.14-.45 1.62-1.37 1.15-2.19l-13.82-24.5c-.93-1.64-4.5-1.57-5.29.09z" opacity=".77" fill="url(#x)"/></g><g opacity=".66"><path d="M99.23 119.69l-11.55 24.37c-.38.79.1 1.65 1.17 2.09a38 38 0 0 0 13.75 2.71 38.39 38.39 0 0 0 14.59-2.57c1.15-.45 1.62-1.37 1.16-2.19l-13.83-24.5c-.92-1.6-4.52-1.6-5.29.09z" opacity=".36" fill="url(#y)"/><path d="M99.23 119.69l-11.55 24.37c-.38.79.1 1.65 1.17 2.09a38 38 0 0 0 13.75 2.71 38.39 38.39 0 0 0 14.59-2.57c1.15-.45 1.62-1.37 1.16-2.19l-13.83-24.5c-.92-1.6-4.52-1.6-5.29.09z" opacity=".77" fill="url(#z)"/></g><g opacity=".44"><path d="M193.45 122.71l-11.56 24.37c-.37.79.1 1.65 1.18 2.09a37.89 37.89 0 0 0 13.74 2.71 38.39 38.39 0 0 0 14.59-2.57c1.15-.45 1.62-1.37 1.16-2.19l-13.83-24.5c-.92-1.62-4.49-1.57-5.28.09z" opacity=".36" fill="url(#A)"/><path d="M193.45 122.71l-11.56 24.37c-.37.79.1 1.65 1.18 2.09a37.89 37.89 0 0 0 13.74 2.71 38.39 38.39 0 0 0 14.59-2.57c1.15-.45 1.62-1.37 1.16-2.19l-13.83-24.5c-.92-1.62-4.49-1.57-5.28.09z" opacity=".77" fill="url(#B)"/></g><g opacity=".44"><path d="M154.23 118.21l-11.56 24.36c-.37.8.1 1.65 1.18 2.09a37.89 37.89 0 0 0 13.74 2.71 38.65 38.65 0 0 0 14.6-2.56c1.14-.46 1.62-1.38 1.15-2.19l-13.82-24.5c-.93-1.64-4.52-1.58-5.29.09z" opacity=".36" fill="url(#C)"/><path d="M154.23 118.21l-11.56 24.36c-.37.8.1 1.65 1.18 2.09a37.89 37.89 0 0 0 13.74 2.71 38.65 38.65 0 0 0 14.6-2.56c1.14-.46 1.62-1.38 1.15-2.19l-13.82-24.5c-.93-1.64-4.52-1.58-5.29.09z" opacity=".77" fill="url(#D)"/></g><g opacity=".44"><path d="M115 113.7l-11.55 24.37c-.38.79.1 1.65 1.17 2.09a38.17 38.17 0 0 0 13.75 2.71 38.59 38.59 0 0 0 14.63-2.57c1.14-.45 1.62-1.37 1.16-2.19l-13.83-24.5c-.96-1.61-4.53-1.61-5.33.09z" opacity=".36" fill="url(#E)"/><path d="M115 113.7l-11.55 24.37c-.38.79.1 1.65 1.17 2.09a38.17 38.17 0 0 0 13.75 2.71 38.59 38.59 0 0 0 14.63-2.57c1.14-.45 1.62-1.37 1.16-2.19l-13.83-24.5c-.96-1.61-4.53-1.61-5.33.09z" opacity=".77" fill="url(#F)"/></g></g><g><g stroke="#ca2584" stroke-linecap="round" stroke-linejoin="round" stroke-width=".5" fill="none"><path d="M86.15 138.15l-5.15-.68-9.55-1.26c-1.7-.22-3.42-.42-5.12-.67a15.13 15.13 0 0 1-6-1.87 7.63 7.63 0 0 1-2.36-2.27 7.1 7.1 0 0 1-1-3 6.66 6.66 0 0 1 2.37-5.72c1.57-1.4 3.83-2 5.76-2.66a41.05 41.05 0 0 1 6.22-2 37.77 37.77 0 0 1 6.46-.69 45.13 45.13 0 0 1 6.37.25l1.67.2M218.44 129.94l3.35.39 6.82.79 5.57.65a3.93 3.93 0 0 0 .9.09c.68-.07 1.14-.86 1.42-1.4a12.5 12.5 0 0 0 1.18-4.15 12.68 12.68 0 0 0-.08-4.43c-.13-.58-.37-1.44-1-1.7a3 3 0 0 0-.89-.14l-5.22-.57-7-.77-4.46-.49h-.23M66.18 132.32a2.64 2.64 0 0 0 1-.52c0-.07.08-.22.16-.25h.23a1.24 1.24 0 0 0 .29-.1l3.32-1.17a19.47 19.47 0 0 1 2.23-.75 18 18 0 0 1 2.51-.4 31.52 31.52 0 0 1 5.32-.1c1.59.1 3.18.35 4.76.55l1.34.17 3.34.42 5 .63 6.28.79 7.22.91 7.82 1 8.06 1 7.94 1 7.52.95 6.72.85 5.58.7 4.08.52 2.25.28 2.88.37 1.23.15a2 2 0 0 1 1 .23c.12.1.1.07.11.25v.8899999999999999c0 .44-.06.88-.12 1.31a11.26 11.26 0 0 1-1.56 4.65 2.42 2.42 0 0 1-1.84 1.29M97 111.53a28.46 28.46 0 0 0 4.41.67l8.93 1 12.31 1.4 12 1.37 8.06.92 5.27.6 8.34 1 6.89.78 11.32 1.29c2.43.28 4.87.5 7.29.88.65.1 1.29.24 1.93.39M67.17 123.53c2 .31 4.12.52 6.19.78l10.16 1.25 2.37.29M181.57 133.65a3.1 3.1 0 0 1-.93-.54c-.06-.05-.13-.15-.2-.16a1 1 0 0 0-.25.12.78.78 0 0 1-.6.05c-.84-.14-1.7-.23-2.55-.34l-4.82-.58-4.79-.58-3.6-.44-1.92-.23-3.86-.47-5.42-.65-6.63-.83-7.33-.89-7.67-.91-7.75-.94-7.36-.89-6.57-.8-5.4-.65-3.84-.47-1.89-.23a23.72 23.72 0 0 1-3.35-.59 9.9 9.9 0 0 1-4.06-2 6.29 6.29 0 0 1-2.12-3.93 6.14 6.14 0 0 1 1.15-4.41 8.08 8.08 0 0 1 3.76-2.61c1.76-.68 3.55-1.28 5.32-1.93a19.74 19.74 0 0 1 4-1 42.94 42.94 0 0 1 5.08-.4 43.81 43.81 0 0 1 5 .18l1.21.13 2.54.28 4 .44 5.28.62 6.28.69 7 .77 7.53.83 7.79.85 7.79.85 7.51.83 7.06.77 6.32.7 5.33.58 4.09.45 2.61.29.89.09M162.59 135.37a2.72 2.72 0 0 1 1.37 1.79 7.52 7.52 0 0 1 .26 1.14c0 .22.06.45.08.68s0 .28.32.4a3.58 3.58 0 0 0 .65.23c.25 0 .51.06.77.09M97.24 120.25l.84-.32s.65-.26 1-.38l2-.77c.68-.26 1.35-.57 2-.8a11.32 11.32 0 0 1 2-.38 29.56 29.56 0 0 1 4.51-.21c1 0 1.93.09 2.89.2l1.6.18 3.12.37 4.43.51 5.45.64 6.22.72 6.68.78 6.95.81 6.93.81 6.64.78 6.06.7 5.29.62 4.22.49 2.86.34 1.29.15 3.71.43 4.41.51 2 .24M97.33 120.23l.37-.16a2.07 2.07 0 0 0 .42-.37 4.21 4.21 0 0 0 .71-.81 5 5 0 0 0 .83-2 5.25 5.25 0 0 0-.93-4 3.79 3.79 0 0 0-1.7-1.36M181.51 133.65a2.05 2.05 0 0 0-.39-.2c-.14 0-.32 0-.48-.11s-.12 0-.18-.15v-.25l-.36-.39a5.25 5.25 0 0 1-1-2 5.37 5.37 0 0 1 .64-4.26 4.73 4.73 0 0 1 1.77-1.7M67.32 131.52a5.4 5.4 0 0 0 1.09-5.52 5.32 5.32 0 0 0-.41-1l-.6-.8c-.09-.13-.12-.38-.24-.49s-.35-.07-.49-.15l-.18-.17a1.09 1.09 0 0 0-.25-.1 4.26 4.26 0 0 0-.47-.15" opacity=".36"/></g><g opacity=".88"><path d="M218.39 129.93l.44-11.74-22.61-2.49-21.74 10.71-88.81-10.52.22 10 76.45 9.47s3.48.17 3.7 4.38a43.25 43.25 0 0 0 11.7-.42c4.87-.83 15.64-6.47 12.64-12.61z" fill="#19181f" opacity=".77"/><path d="M218.39 129.93l.44-11.74-22.61-2.49-21.74 10.71-88.81-10.52.22 10 76.45 9.47s3.48.17 3.7 4.38a43.25 43.25 0 0 0 11.7-.42c4.87-.83 15.64-6.47 12.64-12.61z" fill="url(#c)"/></g><g opacity=".88"><path d="M86.15 138.15l2.07.27 5.62.74 8.25 1.09 10 1.31 10.85 1.44 10.83 1.43 9.86 1.29 8 1.06 5.31.7 2.32.3 1.54.2c6 .71 7.6-11.89 1.51-12.65l-3.14-.39-6.25-.77-8.69-1.08-10.32-1.28-11.12-1.37-11-1.37-10-1.24-8.23-1-5.59-.69-2-.26z" fill="#19181f"/><path d="M86.15 138.15l2.07.27 5.62.74 8.25 1.09 10 1.31 10.85 1.44 10.83 1.43 9.86 1.29 8 1.06 5.31.7 2.32.3 1.54.2c6 .71 7.6-11.89 1.51-12.65l-3.14-.39-6.25-.77-8.69-1.08-10.32-1.28-11.12-1.37-11-1.37-10-1.24-8.23-1-5.59-.69-2-.26z" opacity=".77" fill="url(#G)"/><path d="M86.15 138.15l2.07.27 5.62.74 8.25 1.09 10 1.31 10.85 1.44 10.83 1.43 9.86 1.29 8 1.06 5.31.7 2.32.3 1.54.2c6 .71 7.6-11.89 1.51-12.65l-3.14-.39-6.25-.77-8.69-1.08-10.32-1.28-11.12-1.37-11-1.37-10-1.24-8.23-1-5.59-.69-2-.26z" stroke="#1950c8" stroke-linecap="round" stroke-linejoin="round" stroke-width=".75" fill="none"/></g><path stroke="#1950c8" stroke-linecap="round" stroke-linejoin="round" stroke-width=".75" opacity=".88" fill="none" d="M196.22 115.7l22.61 2.49M183.43 121.74c2.52.57 5.07 1.68 6.47 4a6.62 6.62 0 0 1-.41 7.43 8.76 8.76 0 0 1-3 2.37l-4.25 2.17a16.23 16.23 0 0 1-3.21 1.3 26.49 26.49 0 0 1-3.86.71 43.62 43.62 0 0 1-8.24.1l-.92-.08M85.72 117.81l3.36.4 1.3.15 2.74.33 4 .47 5 .59 5.84.7 6.45.76 6.86.82 7.06.83 7.05.84 6.79.81 6.39.76 5.76.68 4.91.58 3.85.46 2.58.31 1.11.13a33.35 33.35 0 0 0 3.74.21 27.35 27.35 0 0 0 4.61-.32 6.28 6.28 0 0 0 1.7-.5l2.83-1.35 1.85-.89M190.38 126.67l2.78.32 6.68.78 8.12 1 7 .81 3.42.4h.05"/><path d="M160.83 148c-3.7-.47-2.13-13.13 1.51-12.65" stroke="#1950c8" stroke-linecap="round" stroke-linejoin="round" stroke-width=".75" stroke-dasharray="0,2" opacity=".88" fill="none"/></g><g><path fill="#19181f" opacity=".64" d="M101.29 50.03l-84.66 20.89 1.8 36.98 156 18.32 65.74-31.19 1.45-34.45-140.33-10.55z"/><g stroke="#dce2aa" stroke-linecap="round" stroke-linejoin="round" fill="none"><path d="M101.29 50.03l140.33 10.55M241.62 60.58l-1.45 34.45M240.17 95.03l-3.21-.33"/></g><g stroke="#dce2aa" stroke-linecap="round" stroke-linejoin="round" fill="none"><path d="M97.01 51.09l141.3 10.74M238.31 61.83l-1.42 34.76M236.89 96.59l-3.27-.34"/></g><g stroke="#dce2aa" stroke-linecap="round" stroke-linejoin="round" fill="none"><path d="M92.65 52.17l142.28 10.93M234.93 63.1l-1.39 35.08M233.54 98.18l-3.33-.35"/></g><g stroke="#dce2aa" stroke-linecap="round" stroke-linejoin="round" fill="none"><path d="M88.22 53.26l143.26 11.14M231.48 64.4l-1.35 35.4M230.13 99.8l-3.4-.35"/></g><g stroke="#dce2aa" stroke-linecap="round" stroke-linejoin="round" fill="none"><path d="M83.71 54.37l144.26 11.36M227.97 65.73l-1.32 35.72M226.65 101.45l-3.47-.36"/></g><g stroke="#dce2aa" stroke-linecap="round" stroke-linejoin="round" fill="none"><path d="M79.11 55.51l145.28 11.57M224.39 67.08l-1.28 36.05M223.11 103.13l-3.54-.37"/></g><g stroke="#dce2aa" stroke-linecap="round" stroke-linejoin="round" fill="none"><path d="M74.43 56.66l146.3 11.8M220.73 68.46l-1.23 36.38M219.5 104.84l-3.62-.37"/></g><g stroke="#dce2aa" stroke-linecap="round" stroke-linejoin="round" fill="none"><path d="M69.66 57.84l147.34 12.03M217 69.87l-1.19 36.72M215.81 106.59l-3.69-.38"/></g><g stroke="#dce2aa" stroke-linecap="round" stroke-linejoin="round" fill="none"><path d="M64.81 59.03l148.38 12.27M213.19 71.3l-1.14 37.08M212.05 108.38l-3.77-.4"/></g><g stroke="#dce2aa" stroke-linecap="round" stroke-linejoin="round" fill="none"><path d="M59.86 60.26l149.45 12.51M209.31 72.77l-1.1 37.43M208.21 110.2l-3.85-.41"/></g><g stroke="#dce2aa" stroke-linecap="round" stroke-linejoin="round" fill="none"><path d="M54.82 61.5l150.52 12.76M205.34 74.26l-1.05 37.8M204.29 112.06l-3.94-.43"/></g><g stroke="#dce2aa" stroke-linecap="round" stroke-linejoin="round" fill="none"><path d="M49.68 62.77l151.61 13.02M201.29 75.79l-1 38.16M200.29 113.95l-4.02-.43"/></g><g stroke="#dce2aa" stroke-linecap="round" stroke-linejoin="round" fill="none"><path d="M44.44 64.06l152.71 13.29M197.15 77.35l-.94 38.54M196.21 115.89l-4.11-.45"/></g><g stroke="#dce2aa" stroke-linecap="round" stroke-linejoin="round" fill="none"><path d="M39.09 65.38l153.84 13.56M192.93 78.94l-.89 38.93M192.04 117.87l-4.21-.47"/></g><g stroke="#dce2aa" stroke-linecap="round" stroke-linejoin="round" fill="none"><path d="M33.65 66.72l154.96 13.85M188.61 80.57l-.83 39.32M187.78 119.89l-4.3-.48"/></g><g stroke="#dce2aa" stroke-linecap="round" stroke-linejoin="round" fill="none"><path d="M28.09 68.09l156.1 14.15M184.19 82.24l-.76 39.72M183.43 121.96l-4.4-.51"/></g><g stroke="#dce2aa" stroke-linecap="round" stroke-linejoin="round" fill="none"><path d="M22.42 69.49l157.26 14.45M179.68 83.94l-.7 40.13M178.98 124.07l-4.5-.52"/></g><path stroke="#dce2aa" stroke-linecap="round" stroke-linejoin="round" fill="url(#H)" d="M174.43 126.22l-156-18.32-1.8-36.98 158.43 14.76-.63 40.54z"/></g><g><path fill="#19181f" opacity=".88" d="M.38 61.25l5.1 92.44 22.34 9.96 4.88 106.08 64.52 14.33-1.99-110.11-8.5-8.16-2.06-97.15 16.16-18.17-57.91-4.37-42.54 15.15z"/><path opacity=".64" fill="url(#e)" d="M.38 61.25l5.1 92.44 22.34 9.96 4.88 106.08 64.52 14.33-1.99-110.11-8.5-8.16-2.06-97.15 16.16-18.17-57.91-4.37-42.54 15.15z"/><path fill="#19181f" opacity=".88" d="M32.27 260.16l-20.25 12.03 77.41 17.49 7.79-5.62-64.52-14.33-.43-9.57z"/><path opacity=".64" fill="url(#I)" d="M32.27 260.16l-20.25 12.03 77.41 17.49 7.79-5.62-64.52-14.33-.43-9.57z"/><path fill="#19181f" opacity=".88" d="M12.02 272.19l2.4 43.39 17.52 38.15 65.06 18.04-6.68-36.82-.07-3.23-1-.26.94-2.97-1.2-.3 1.2-2.93-1.24-.29 1.12-2.94-1.22-.3 1.13-2.93-1.05-.26.98-2.97-1.09-.27 1.02-2.96-1.12-.27 1.05-2.96-1.26-.3 1.19-2.93-1.13-.27 1.07-2.96-1.14-.27 1.07-2.96-1.38-.32 1.31-2.91-1.54-.36 1.53-2.86-.06-3.29-77.41-17.49z"/><path opacity=".64" fill="url(#J)" d="M12.02 272.19l2.4 43.39 17.52 38.15 65.06 18.04-6.68-36.82-.07-3.23-1-.26.94-2.97-1.2-.3 1.2-2.93-1.24-.29 1.12-2.94-1.22-.3 1.13-2.93-1.05-.26.98-2.97-1.09-.27 1.02-2.96-1.12-.27 1.05-2.96-1.26-.3 1.19-2.93-1.13-.27 1.07-2.96-1.14-.27 1.07-2.96-1.38-.32 1.31-2.91-1.54-.36 1.53-2.86-.06-3.29-77.41-17.49z"/><path d="M84.66 37.2l-41.74 8.9 57.91 4.37 8.6-2.13s-1.72 0-11.5-1.31c-10-1.31-13.26-3.19-13.15-4.36z" fill="#19181f" opacity=".88"/><path d="M84.66 37.2l-41.74 8.9 57.91 4.37 8.6-2.13s-1.72 0-11.5-1.31c-10-1.31-13.26-3.19-13.15-4.36z" opacity=".64" fill="url(#K)"/><path d="M182 36.66v6c0 1.15-4.65 2.79-4.65 2.79l15.28 1.06 25.64-7.51z" fill="#19181f" opacity=".88"/><path d="M182 36.66v6c0 1.15-4.65 2.79-4.65 2.79l15.28 1.06 25.64-7.51z" opacity=".64" fill="url(#L)"/><path fill="#19181f" opacity=".88" d="M218.27 38.96l-25.6 7.55 28.18 15.38-3.26 92.91-14.7 9.81-2.95 106.46 27.84-24.47 3.96-99.56 18.95-12.32 4.04-85-36.46-10.76z"/><path opacity=".64" fill="url(#M)" d="M218.27 38.96l-25.6 7.55 28.18 15.38-3.26 92.91-14.7 9.81-2.95 106.46 27.84-24.47 3.96-99.56 18.95-12.32 4.04-85-36.46-10.76z"/><path fill="#19181f" opacity=".88" d="M228 241.32l-.22 5.28-27.84 24.47 13.63 2.74-.1 3.11 1.43 1.67-1.54 1.43 1.39 1.71-1.5 1.41 1.45 1.63-1.55 1.48 1.38 1.69-1.49 1.37 1.54 1.58-1.64 1.48 1.46 1.69-1.57 1.57 1.5 1.49-1.6 1.54 1.46 1.59-1.57 1.6 1.44 1.52-1.54 1.45 1.44 1.65-1.55 1.46 1.36 1.73-1.47 1.61 1.34 1.52-1.44 1.47-.11 3.1-11.43 38.05 28.08-30.91 14.86-39.63 1.91-40.39-17.51-3.16z"/><path opacity=".64" fill="url(#N)" d="M228 241.32l-.22 5.28-27.84 24.47 13.63 2.74-.1 3.11 1.43 1.67-1.54 1.43 1.39 1.71-1.5 1.41 1.45 1.63-1.55 1.48 1.38 1.69-1.49 1.37 1.54 1.58-1.64 1.48 1.46 1.69-1.57 1.57 1.5 1.49-1.6 1.54 1.46 1.59-1.57 1.6 1.44 1.52-1.54 1.45 1.44 1.65-1.55 1.46 1.36 1.73-1.47 1.61 1.34 1.52-1.44 1.47-.11 3.1-11.43 38.05 28.08-30.91 14.86-39.63 1.91-40.39-17.51-3.16z"/><path stroke="#15d5ee" stroke-linecap="round" stroke-linejoin="round" stroke-width=".75" opacity=".88" fill="none" d="M32.71 269.73l-4.89-106.08M231.74 147.04l-3.92 98.88-.04.68-27.84 24.47M5.48 153.69l-5.1-92.44M.38 61.25l84.29 7.39M5.48 153.69l81.25 12.1M90.32 334.95l-75.9-19.37M254.73 49.72l-3.41 72.03"/><path stroke="#15d5ee" stroke-linecap="round" stroke-linejoin="round" stroke-width=".5" stroke-dasharray="2" opacity=".88" fill="none" d="M109.33 39.78l68.07 4.65"/><path stroke="#15d5ee" stroke-linecap="round" stroke-linejoin="round" stroke-width=".75" opacity=".88" fill="none" d="M.38 61.25l42.54-15.15 57.91 4.37"/><path stroke="#15d5ee" stroke-linecap="round" stroke-linejoin="round" stroke-width=".5" stroke-dasharray="2" opacity=".88" fill="none" d="M174.02 139.79l43.9 5.51"/><path stroke="#15d5ee" stroke-linecap="round" stroke-linejoin="round" stroke-width=".75" opacity=".88" fill="none" d="M200.66 355.41l11.43-38.05.11-3.1 1.44-1.47-1.34-1.52 1.47-1.61-1.36-1.73 1.55-1.46-1.44-1.65 1.54-1.45-1.44-1.52 1.57-1.6-1.46-1.59 1.6-1.54-1.5-1.49 1.57-1.57-1.46-1.69 1.64-1.48-1.54-1.58 1.49-1.37-1.38-1.69 1.55-1.48-1.45-1.63 1.5-1.41-1.39-1.71 1.54-1.43-1.43-1.67.1-3.11 31.94-29.33M42.92 46.1l41.74-8.9M245.51 244.48l-1.91 40.39-11.76 31.39M96.66 252.61l-.7-39.65M227.13 326.34l-26.47 29.07-6.78-1.71M89.43 292.96v-3.28l7.79-5.62-.04-2.25M97 371.77l-6.67-36.81-.08-3.24M182.04 36.66l36.23 2.3M192.67 46.51l27.72 15.23.46.15 33.88-12.17"/><path stroke="#15d5ee" stroke-linecap="round" stroke-linejoin="round" stroke-width=".5" stroke-dasharray="2" opacity=".88" fill="none" d="M190.7 127.68l27.7 3.24"/><path stroke="#15d5ee" stroke-linecap="round" stroke-linejoin="round" stroke-width=".75" opacity=".88" fill="none" d="M5.48 153.69l22.34 9.96 67.41 10.3M32.27 260.16l-20.25 12.03M245.51 244.48l-17.5-3.16M177.39 45.45l15.29 1.05 25.59-7.54 36.46 10.76M89.36 289.73l-77.34-17.54M97.22 284.06l-64.51-14.33M95.42 182.76l-.19-8.81-8.5-8.16-2.06-97.15 16.16-18.17 8.6-2.13M14.42 315.57l-2.4-43.38M102.77 366.58l-5.77 5.19-65.06-18.04-17.52-38.16M250.75 133.71l-.03.76-.03.25-18.79 12.21-29.01 17.68M250.71 134.71l-33.11 20.09M220.74 61.93l-3.15 92.88-14.64 9.76-.07.48-2.94 106.02 13.63 2.74M243.6 284.91l-31.5 32.46"/><path fill="#19181f" opacity=".64" d="M16.05 276.17l-.84 2.87 1.01.24-1.01 2.83 1.18.27-.84 2.87 1.18.28-1.01 2.83 1.18.28-1.01 2.82 1.17.28-1.01 2.83 1.37.33-1.2 2.77 1.37.33-1.2 2.78 1.25.3-1.08 2.8 1.56.39-1.39 2.72 1.25.31-1.08 2.79 1.29.32-1.13 2.78 72.19 18.27.94-2.97-1.2-.3 1.2-2.93-1.24-.29 1.12-2.94-1.22-.3 1.13-2.93-1.05-.26.98-2.97-1.09-.27 1.02-2.96-1.12-.27 1.05-2.96-1.26-.3 1.19-2.93-1.08-.4 1.02-2.83-1.14-.27 1.07-2.96-1.38-.32 1.31-2.91-1.54-.36 1.52-2.84-73.43-16.82z"/><g opacity=".75" stroke="#15d5ee" stroke-linecap="round" stroke-linejoin="round" stroke-width=".5" fill="none"><path opacity=".88" d="M90.25 331.72l-73.19-18.53 1.13-2.78M17.98 307.3l-1.08 2.79 73.29 18.4-.94 2.97M18.12 304.27l-1.39 2.72 73.39 18.27-1.13 2.93M17.64 301.08l-1.08 2.8 73.49 18.15-1.1 2.94M17.59 298l-1.2 2.78 73.59 18.02-1.13 2.93M17.42 294.9l-1.2 2.77 73.69 17.9-.98 2.97M17.06 291.74l-1.01 2.83 73.79 17.77-1.02 2.96M16.9 288.64l-1.01 2.82 73.88 17.65-1.05 2.96M16.73 285.53l-1.01 2.83 73.98 17.52-1.19 2.93M16.39 282.38l-.84 2.87 74.09 17.4-1.07 2.96M16.22 279.28l-1.01 2.83 74.36 17.31-1.07 2.96M16.05 276.17l-.84 2.87 74.29 17.15-1.31 2.91M15.04 275.94l74.39 17.02-1.47 2.87"/></g><path fill="#19181f" opacity=".64" d="M212.31 311.15l1.46-1.49-1.36-1.62 1.55-1.57-1.44-1.55 1.55-1.55-1.45-1.56 1.57-1.56-1.46-1.55 1.6-1.58-1.5-1.53 1.57-1.53-1.46-1.58 1.64-1.59-1.54-1.52 1.49-1.43-1.38-1.69 1.55-1.48-1.45-1.63 1.5-1.41-1.39-1.7 1.54-1.44-1.43-1.67 29.65-27.48.74 2.08-.96.9.82 1.99-1.15 1.09 1.02 1.8-1.22 1.16 1.08 1.72-1.32 1.27 1.18 1.62-1.36 1.33 1.23 1.56-1.43 1.4 1.29 1.49-1.28 1.26 1.14 1.63-1.27 1.26 1.14 1.62-1.21 1.21 1.07 1.68-1.28 1.3 1.14 1.59-1.38 1.41 1.25 1.48-28.72 29.49-1.33-1.63z"/><g stroke="#15d5ee" stroke-linecap="round" stroke-linejoin="round" stroke-width=".5" fill="none" opacity=".75"><path opacity=".88" d="M244 248.63l-30.53 28.29 1.43 1.67M243.12 249.44l.74 2.08-30.5 28.51 1.39 1.7M242.9 252.42l.82 1.99-30.47 28.73 1.45 1.63M242.57 255.5l1.02 1.8-30.44 28.95 1.38 1.69M242.37 258.46l1.08 1.73-30.41 29.18 1.54 1.52M242.13 261.45l1.18 1.62-30.37 29.41 1.46 1.58M241.94 264.4l1.24 1.56-30.35 29.63 1.5 1.53M241.75 267.36l1.29 1.49-30.31 29.85 1.46 1.55M241.76 270.11l1.14 1.63-30.28 30.07 1.44 1.56M241.63 273l1.14 1.62-30.25 30.31 1.44 1.54M241.56 275.83l1.07 1.68-30.22 30.53 1.35 1.62M241.35 278.81l1.14 1.59-30.18 30.75 1.33 1.64M212.2 314.26l30.16-30.97-1.26-1.48"/></g><path d="M84.62 256.55a9 9 0 0 1 1.47-.86 6.56 6.56 0 0 1 1.42-.53 7 7 0 0 1 1.48-.32 10.18 10.18 0 0 1 1.65-.12c.66.06 1.35.11 2 .23a16.31 16.31 0 0 1 1.65.48 7.71 7.71 0 0 1 1.3.53 14.36 14.36 0 0 1 1.47.73 18.45 18.45 0 0 1 2.76 2.13 11 11 0 0 1 1.1 1.06c.46.55.89 1.12 1.34 1.68a11.36 11.36 0 0 1 .73 1.16 13.75 13.75 0 0 1 .78 1.34c.28.64.53 1.3.8 1.94a10.43 10.43 0 0 1 .39 1.35 10.61 10.61 0 0 1 .35 1.48c.07.69.13 1.38.19 2.07a8.79 8.79 0 0 1-.08 1.54 7.37 7.37 0 0 1-.19 1.4 16.13 16.13 0 0 1-.42 1.66 16.45 16.45 0 0 1-.85 1.8 10.34 10.34 0 0 1-1 1.33 6.32 6.32 0 0 1-1.11 1.08 6.57 6.57 0 0 1-1.26.9 7.8 7.8 0 0 1-1.42.7 15.82 15.82 0 0 1-1.76.48 15.8 15.8 0 0 1-1.94.13 11.15 11.15 0 0 1-1.62-.18 8.24 8.24 0 0 1-1.39-.32 11.7 11.7 0 0 1-1.52-.49c-.62-.28-1.23-.62-1.85-.93a9.3 9.3 0 0 1-1.17-.8l8.31-5.81a4.55 4.55 0 0 0 1.9-3.1 7.12 7.12 0 0 0-2.27-6c-1.71-1.59-4.12-2.35-6.25-1.15l-8.61 5.78a8.31 8.31 0 0 1-.29-1.47c-.06-.57-.17-1.16-.18-1.73l.12-2a8.94 8.94 0 0 1 .32-1.52 7.39 7.39 0 0 1 .44-1.38 8.81 8.81 0 0 1 .7-1.49 16.82 16.82 0 0 1 1.1-1.52 13.56 13.56 0 0 1 1.41-1.26zM85.36 185.36a10.44 10.44 0 0 1 1.68-.58 15.33 15.33 0 0 1 2-.28c.61 0 1.26.08 1.87.11a8.83 8.83 0 0 1 1.51.32 9.22 9.22 0 0 1 1.47.44c.61.28 1.26.52 1.85.85s1.07.71 1.59 1.06a8.64 8.64 0 0 1 1.1.9 16.22 16.22 0 0 1 1.29 1.2 17.37 17.37 0 0 1 2.14 2.9 15.9 15.9 0 0 1 .84 1.44c.31.66.56 1.36.84 2a10.86 10.86 0 0 1 .39 1.38 12.18 12.18 0 0 1 .37 1.56c.09.73.14 1.46.2 2.19a9.92 9.92 0 0 1-.06 1.54 8.53 8.53 0 0 1-.18 1.52c-.15.62-.25 1.29-.45 1.9s-.56 1.24-.83 1.85a8 8 0 0 1-.89 1.34 6.7 6.7 0 0 1-1 1.18 7.71 7.71 0 0 1-1.26 1.09 17.36 17.36 0 0 1-1.6 1 13 13 0 0 1-1.91.64 12.59 12.59 0 0 1-1.73.22 7.69 7.69 0 0 1-1.59 0 7.92 7.92 0 0 1-1.54-.2c-.6-.17-1.25-.28-1.83-.5a14.78 14.78 0 0 1-3.13-1.69 9.72 9.72 0 0 1-1.36-1l9.29-5.17a4.57 4.57 0 0 0 2.37-3 7.2 7.2 0 0 0-1.8-6.57 6.36 6.36 0 0 0-3-1.87 5 5 0 0 0-3.33.25l-9.67 5.09c-.06-.57-.16-1.15-.17-1.72s.07-1.35.11-2a8.35 8.35 0 0 1 .26-1.48 8.51 8.51 0 0 1 .41-1.52 18.52 18.52 0 0 1 .74-1.78c.32-.58.76-1.12 1.13-1.67a8.64 8.64 0 0 1 1.2-1.22 7 7 0 0 1 1.27-.95 7.51 7.51 0 0 1 1.41-.77z" fill="#19181f" stroke="#15d5ee" stroke-linecap="round" stroke-linejoin="round" stroke-width=".75" opacity=".88"/><path d="M104.78 277.72a17.08 17.08 0 0 1-1.8.94c-.26.1-.55.15-.82.23a11.05 11.05 0 0 1-1.09.3 8.87 8.87 0 0 1-.89.06c-.39 0-.79.09-1.19.08a7.5 7.5 0 0 1-.81-.11c-.42-.05-.86-.08-1.27-.16a17 17 0 0 1-2-.59 11.71 11.71 0 0 1-1.75-.84 12.51 12.51 0 0 1-3-2.08c-.45-.44-1-.85-1.38-1.33s-.79-1-1.18-1.48a14.78 14.78 0 0 1-1.92-3.34 14.1 14.1 0 0 1-.69-1.77c-.17-.63-.33-1.26-.49-1.89a15.53 15.53 0 0 1-.23-2 12.64 12.64 0 0 1 0-2 11.84 11.84 0 0 1 .35-2c.07-.26.1-.54.19-.79l.49-1.09a7.43 7.43 0 0 1 .37-.81 9.69 9.69 0 0 1 .66-.92c.17-.23.33-.5.52-.72a7.76 7.76 0 0 1 .8-.72l.69-.62m4.29 14.53a5.05 5.05 0 0 0 .49.63c1.39 1.6 3.67 2.73 5.8 2.05 2.29-.74 3.1-3.29 2.69-5.47a7.27 7.27 0 0 0-4.15-5.24 4.24 4.24 0 0 0-5.72 1.89 6.35 6.35 0 0 0 .89 6.14m-11.63.32l.33 1.3a10.8 10.8 0 0 0 .48 1.23c.17.41.32.83.52 1.23l.65 1.11s.39.72.62 1a11.18 11.18 0 0 0 .74.93c.27.34.52.71.81 1l.93.89s.57.58.87.83.64.45 1 .68m1.69-16a4.51 4.51 0 0 0-1.87 3.14 7.18 7.18 0 0 0 2.44 6.05 6.29 6.29 0 0 0 2.86 1.51 4.54 4.54 0 0 0 3.19-.48M91 199.45a6.5 6.5 0 0 1-.2-6.45 4.57 4.57 0 0 1 6.09-1.48 7.32 7.32 0 0 1 3.84 5.68c.23 2.37-.84 4.85-3.27 5.53-2.28.64-4.64-.73-6-2.53a5.48 5.48 0 0 1-.46-.72m-2.26-15.88l-.84.52a10 10 0 0 0-.94.6 7.52 7.52 0 0 0-.64.62c-.29.28-.62.55-.89.86l-.47.7s-.51.71-.73 1.08a6 6 0 0 0-.3.69 10.87 10.87 0 0 0-.71 1.9 12.17 12.17 0 0 0-.43 2.06c0 .71-.14 1.46-.11 2.17l.21 2.06a15.33 15.33 0 0 0 .42 1.9 14.91 14.91 0 0 0 1.49 3.74c.35.59.67 1.23 1.07 1.78s.85 1.06 1.28 1.59a13.31 13.31 0 0 0 1.41 1.4 12.15 12.15 0 0 0 1.6 1.26 11.87 11.87 0 0 0 1.63 1 12.82 12.82 0 0 0 1.86.82 20.52 20.52 0 0 0 2 .53c.43.07.88.07 1.31.11a8.09 8.09 0 0 0 .85.06 10 10 0 0 0 1.21-.14 7 7 0 0 0 .92-.11 18.05 18.05 0 0 0 2-.67m-22.94-11.66a19.39 19.39 0 0 0 .58 2.7 19 19 0 0 0 1 2.51 19.4 19.4 0 0 0 1.25 2.22 18.08 18.08 0 0 0 1.54 2.1 14.65 14.65 0 0 0 1.78 1.74m3.57-16.35a4.8 4.8 0 0 0-2.32 3 7.25 7.25 0 0 0 1.78 6.5 5.55 5.55 0 0 0 6.26 1.68" stroke="#ca2584" stroke-linecap="round" stroke-linejoin="round" stroke-width=".5" opacity=".36" fill="none"/><g opacity=".88"><path d="M86.09 255.69a6.56 6.56 0 0 1 1.42-.53 7 7 0 0 1 1.48-.32 10.18 10.18 0 0 1 1.65-.12c.66.06 1.35.11 2 .23a16.31 16.31 0 0 1 1.65.48 7.71 7.71 0 0 1 1.3.53 14.36 14.36 0 0 1 1.47.73 18.45 18.45 0 0 1 2.76 2.13 11 11 0 0 1 1.1 1.06c.46.55.89 1.12 1.34 1.68a11.36 11.36 0 0 1 .73 1.16 13.75 13.75 0 0 1 .78 1.34c.28.64.53 1.3.8 1.94a10.43 10.43 0 0 1 .39 1.35 10.61 10.61 0 0 1 .35 1.48c.07.69.13 1.38.19 2.07a8.79 8.79 0 0 1-.08 1.54 7.37 7.37 0 0 1-.19 1.4 16.13 16.13 0 0 1-.42 1.66 16.45 16.45 0 0 1-.85 1.8 10.34 10.34 0 0 1-1 1.33 6.32 6.32 0 0 1-1.11 1.08c.7-.5 3.65-2.63 4.25-3.14a3.48 3.48 0 0 0 .58-.69 12.27 12.27 0 0 0 .82-1.08 11 11 0 0 0 .52-1.1 5.91 5.91 0 0 0 .4-.89 10.55 10.55 0 0 0 .54-2.35 15.41 15.41 0 0 0 .1-2.45 16.23 16.23 0 0 0-.32-2.41 15.71 15.71 0 0 0-.66-2.32 16.32 16.32 0 0 0-1-2.22 18.19 18.19 0 0 0-2.79-3.91 17.5 17.5 0 0 0-1.79-1.65 16.77 16.77 0 0 0-2-1.36 13.22 13.22 0 0 0-2.19-1 14 14 0 0 0-2.37-.63l-1.61-.17a4.63 4.63 0 0 0-.91.05c-.43 0-.89 0-1.32.11l-1.26.38a4.11 4.11 0 0 0-.85.31l-1.4.78c-1.34.75-2.61 1.68-3.89 2.51z" fill="#19181f"/><path d="M86.09 255.69a6.56 6.56 0 0 1 1.42-.53 7 7 0 0 1 1.48-.32 10.18 10.18 0 0 1 1.65-.12c.66.06 1.35.11 2 .23a16.31 16.31 0 0 1 1.65.48 7.71 7.71 0 0 1 1.3.53 14.36 14.36 0 0 1 1.47.73 18.45 18.45 0 0 1 2.76 2.13 11 11 0 0 1 1.1 1.06c.46.55.89 1.12 1.34 1.68a11.36 11.36 0 0 1 .73 1.16 13.75 13.75 0 0 1 .78 1.34c.28.64.53 1.3.8 1.94a10.43 10.43 0 0 1 .39 1.35 10.61 10.61 0 0 1 .35 1.48c.07.69.13 1.38.19 2.07a8.79 8.79 0 0 1-.08 1.54 7.37 7.37 0 0 1-.19 1.4 16.13 16.13 0 0 1-.42 1.66 16.45 16.45 0 0 1-.85 1.8 10.34 10.34 0 0 1-1 1.33 6.32 6.32 0 0 1-1.11 1.08c.7-.5 3.65-2.63 4.25-3.14a3.48 3.48 0 0 0 .58-.69 12.27 12.27 0 0 0 .82-1.08 11 11 0 0 0 .52-1.1 5.91 5.91 0 0 0 .4-.89 10.55 10.55 0 0 0 .54-2.35 15.41 15.41 0 0 0 .1-2.45 16.23 16.23 0 0 0-.32-2.41 15.71 15.71 0 0 0-.66-2.32 16.32 16.32 0 0 0-1-2.22 18.19 18.19 0 0 0-2.79-3.91 17.5 17.5 0 0 0-1.79-1.65 16.77 16.77 0 0 0-2-1.36 13.22 13.22 0 0 0-2.19-1 14 14 0 0 0-2.37-.63l-1.61-.17a4.63 4.63 0 0 0-.91.05c-.43 0-.89 0-1.32.11l-1.26.38a4.11 4.11 0 0 0-.85.31l-1.4.78c-1.34.75-2.61 1.68-3.89 2.51z" fill="url(#O)"/><path d="M86.09 255.69a6.56 6.56 0 0 1 1.42-.53 7 7 0 0 1 1.48-.32 10.18 10.18 0 0 1 1.65-.12c.66.06 1.35.11 2 .23a16.31 16.31 0 0 1 1.65.48 7.71 7.71 0 0 1 1.3.53 14.36 14.36 0 0 1 1.47.73 18.45 18.45 0 0 1 2.76 2.13 11 11 0 0 1 1.1 1.06c.46.55.89 1.12 1.34 1.68a11.36 11.36 0 0 1 .73 1.16 13.75 13.75 0 0 1 .78 1.34c.28.64.53 1.3.8 1.94a10.43 10.43 0 0 1 .39 1.35 10.61 10.61 0 0 1 .35 1.48c.07.69.13 1.38.19 2.07a8.79 8.79 0 0 1-.08 1.54 7.37 7.37 0 0 1-.19 1.4 16.13 16.13 0 0 1-.42 1.66 16.45 16.45 0 0 1-.85 1.8 10.34 10.34 0 0 1-1 1.33 6.32 6.32 0 0 1-1.11 1.08c.7-.5 3.65-2.63 4.25-3.14a3.48 3.48 0 0 0 .58-.69 12.27 12.27 0 0 0 .82-1.08 11 11 0 0 0 .52-1.1 5.91 5.91 0 0 0 .4-.89 10.55 10.55 0 0 0 .54-2.35 15.41 15.41 0 0 0 .1-2.45 16.23 16.23 0 0 0-.32-2.41 15.71 15.71 0 0 0-.66-2.32 16.32 16.32 0 0 0-1-2.22 18.19 18.19 0 0 0-2.79-3.91 17.5 17.5 0 0 0-1.79-1.65 16.77 16.77 0 0 0-2-1.36 13.22 13.22 0 0 0-2.19-1 14 14 0 0 0-2.37-.63l-1.61-.17a4.63 4.63 0 0 0-.91.05c-.43 0-.89 0-1.32.11l-1.26.38a4.11 4.11 0 0 0-.85.31l-1.4.78c-1.34.75-2.61 1.68-3.89 2.51z" stroke="#15d5ee" stroke-linecap="round" stroke-linejoin="round" stroke-width=".75" fill="none"/></g><g opacity=".88"><path d="M85.36 185.36a10.44 10.44 0 0 1 1.68-.58 15.33 15.33 0 0 1 2-.28c.61 0 1.26.08 1.87.11a8.83 8.83 0 0 1 1.51.32 9.22 9.22 0 0 1 1.47.44c.61.28 1.26.52 1.85.85s1.07.71 1.59 1.06a8.64 8.64 0 0 1 1.1.9 16.22 16.22 0 0 1 1.29 1.2 17.37 17.37 0 0 1 2.14 2.9 15.9 15.9 0 0 1 .84 1.44c.31.66.56 1.36.84 2a10.86 10.86 0 0 1 .39 1.38 12.18 12.18 0 0 1 .37 1.56c.09.73.14 1.46.2 2.19a9.92 9.92 0 0 1-.06 1.54 8.53 8.53 0 0 1-.18 1.52c-.15.62-.25 1.29-.45 1.9s-.56 1.24-.83 1.85a8 8 0 0 1-.89 1.34 6.7 6.7 0 0 1-1 1.18 7.71 7.71 0 0 1-1.26 1.09c-.52.32-.82.51-.44.29l2.27-1.31c.69-.4 1.42-.77 2.08-1.23a8.49 8.49 0 0 0 .83-.76 8.18 8.18 0 0 0 .8-.76c.33-.39.61-.85.9-1.27a4.12 4.12 0 0 0 .46-.74 13.42 13.42 0 0 0 .93-2.34 13.89 13.89 0 0 0 .48-2.46 15.15 15.15 0 0 0 0-2.52 15.53 15.53 0 0 0-.34-2.45 17.52 17.52 0 0 0-.68-2.35 16.93 16.93 0 0 0-1-2.26 17.34 17.34 0 0 0-1.34-2.13 16.19 16.19 0 0 0-1.6-1.91 17.14 17.14 0 0 0-1.86-1.65 15.53 15.53 0 0 0-2.1-1.34 14.17 14.17 0 0 0-2.35-1l-1.61-.41a3.87 3.87 0 0 0-.9-.09c-.49 0-1-.11-1.47-.1l-1.16.16a9.34 9.34 0 0 0-1.06.16c-.5.14-1 .36-1.47.54a19.62 19.62 0 0 0-2.2 1.14c-.71.35-1.64.88-1.64.88z" fill="#19181f"/><path d="M85.36 185.36a10.44 10.44 0 0 1 1.68-.58 15.33 15.33 0 0 1 2-.28c.61 0 1.26.08 1.87.11a8.83 8.83 0 0 1 1.51.32 9.22 9.22 0 0 1 1.47.44c.61.28 1.26.52 1.85.85s1.07.71 1.59 1.06a8.64 8.64 0 0 1 1.1.9 16.22 16.22 0 0 1 1.29 1.2 17.37 17.37 0 0 1 2.14 2.9 15.9 15.9 0 0 1 .84 1.44c.31.66.56 1.36.84 2a10.86 10.86 0 0 1 .39 1.38 12.18 12.18 0 0 1 .37 1.56c.09.73.14 1.46.2 2.19a9.92 9.92 0 0 1-.06 1.54 8.53 8.53 0 0 1-.18 1.52c-.15.62-.25 1.29-.45 1.9s-.56 1.24-.83 1.85a8 8 0 0 1-.89 1.34 6.7 6.7 0 0 1-1 1.18 7.71 7.71 0 0 1-1.26 1.09c-.52.32-.82.51-.44.29l2.27-1.31c.69-.4 1.42-.77 2.08-1.23a8.49 8.49 0 0 0 .83-.76 8.18 8.18 0 0 0 .8-.76c.33-.39.61-.85.9-1.27a4.12 4.12 0 0 0 .46-.74 13.42 13.42 0 0 0 .93-2.34 13.89 13.89 0 0 0 .48-2.46 15.15 15.15 0 0 0 0-2.52 15.53 15.53 0 0 0-.34-2.45 17.52 17.52 0 0 0-.68-2.35 16.93 16.93 0 0 0-1-2.26 17.34 17.34 0 0 0-1.34-2.13 16.19 16.19 0 0 0-1.6-1.91 17.14 17.14 0 0 0-1.86-1.65 15.53 15.53 0 0 0-2.1-1.34 14.17 14.17 0 0 0-2.35-1l-1.61-.41a3.87 3.87 0 0 0-.9-.09c-.49 0-1-.11-1.47-.1l-1.16.16a9.34 9.34 0 0 0-1.06.16c-.5.14-1 .36-1.47.54a19.62 19.62 0 0 0-2.2 1.14c-.71.35-1.64.88-1.64.88z" fill="url(#P)"/><path d="M85.36 185.36a10.44 10.44 0 0 1 1.68-.58 15.33 15.33 0 0 1 2-.28c.61 0 1.26.08 1.87.11a8.83 8.83 0 0 1 1.51.32 9.22 9.22 0 0 1 1.47.44c.61.28 1.26.52 1.85.85s1.07.71 1.59 1.06a8.64 8.64 0 0 1 1.1.9 16.22 16.22 0 0 1 1.29 1.2 17.37 17.37 0 0 1 2.14 2.9 15.9 15.9 0 0 1 .84 1.44c.31.66.56 1.36.84 2a10.86 10.86 0 0 1 .39 1.38 12.18 12.18 0 0 1 .37 1.56c.09.73.14 1.46.2 2.19a9.92 9.92 0 0 1-.06 1.54 8.53 8.53 0 0 1-.18 1.52c-.15.62-.25 1.29-.45 1.9s-.56 1.24-.83 1.85a8 8 0 0 1-.89 1.34 6.7 6.7 0 0 1-1 1.18 7.71 7.71 0 0 1-1.26 1.09c-.52.32-.82.51-.44.29l2.27-1.31c.69-.4 1.42-.77 2.08-1.23a8.49 8.49 0 0 0 .83-.76 8.18 8.18 0 0 0 .8-.76c.33-.39.61-.85.9-1.27a4.12 4.12 0 0 0 .46-.74 13.42 13.42 0 0 0 .93-2.34 13.89 13.89 0 0 0 .48-2.46 15.15 15.15 0 0 0 0-2.52 15.53 15.53 0 0 0-.34-2.45 17.52 17.52 0 0 0-.68-2.35 16.93 16.93 0 0 0-1-2.26 17.34 17.34 0 0 0-1.34-2.13 16.19 16.19 0 0 0-1.6-1.91 17.14 17.14 0 0 0-1.86-1.65 15.53 15.53 0 0 0-2.1-1.34 14.17 14.17 0 0 0-2.35-1l-1.61-.41a3.87 3.87 0 0 0-.9-.09c-.49 0-1-.11-1.47-.1l-1.16.16a9.34 9.34 0 0 0-1.06.16c-.5.14-1 .36-1.47.54a19.62 19.62 0 0 0-2.2 1.14c-.71.35-1.64.88-1.64.88z" stroke="#15d5ee" stroke-linecap="round" stroke-linejoin="round" stroke-width=".75" fill="none"/></g></g><g stroke-linecap="round" stroke-linejoin="round" fill="none"><g stroke="#ca2584" stroke-width=".5"><path d="M115.25 34.75l.23-.38h.09l.68-.33h.18l1.09-.3.3-.06.82-.15.63-.11h.43l1.49-.19h3.44l2-.12h1l2-.07h11.07l1 .06h.65l.79.07.88.06h.3l1.34.14 1 .11.42.07h.24l1.26.2.32.07 1.15.26.34.13.64.24.45.38m-.38-20.83l-1-.3-.79-.14-.67-.12-1.2-.15-.57-.07h-.16l-1.24-.11-1.08-.1-.82-.05-1.81-.11h-.11l-1.74-.07h-14.159999999999998l-1.82.09h-.11l-.67.05-1.15.08-.69.05-1.31.14h-.2l-.66.06-1 .15-.74.11-.85.19-.44.09" opacity=".36"/><path d="M84.77 42.67c4-2.28 16-4.93 24.53-5.42m72.62 5.75a8.71 8.71 0 0 0-4.45-2.9" opacity=".36"/></g><path d="M177.47 40.1a71 71 0 0 0-12.64-2.2c-4.74-.5-9.49-.83-14.25-1.09-4.27-.23-8.56-.34-12.84-.39s-8.58 0-12.86.09c-4.77.14-9.52.34-14.28.66l-1.3.08" stroke="#15d5ee" stroke-width=".5" stroke-dasharray="2" opacity=".88"/><g><g stroke="#ca2584" stroke-width=".5"><path opacity=".36" d="M144.78 29.16l-.45-.51-.08-.09-.22-.25-.35-.38-.29-.32-.05-.06-.09-.1-.78-.87-.03-.03-.73-.81-.04-.05-.12-.13-.16-.18-.1-.1-.44-.48-.2-.22-.62-.67-.27-.31-.4-.43-.15-.16-.08-.09-.21-.24-.04-.04-.04-.03-.46-.5-.38-.42-.46-.48-.15-.17-.25-.27-.44-.47-.16-.17-.23-.25-.44-.48-.06-.05-.03-.04-.5-.53-.17-.18-.07-.06-.03-.04-.09-.09-.11-.12-.11-.12-.1-.1-.01-.01-.42-.45-.17-.18-.67-.71-.51-.54-.11-.12-.22-.23-.63-.65-.06-.06-.15-.16-.09.01-.11.08-.01.13v.03l.09.26.21.36.26.35.09.13.48.6.59.68.68.76.16.18.01.02.06.06.07.08.12.13.12.13.06.07.06.07.08.09.05.05.13.15.01.01.61.66.35.38.49.52.37.4.48.52.39.41.08.09.38.41.42.46.42.44.48.51.35.37.04.04.52.55.23.24.69.71.06.07.71.7.09.08.09.09.48.46.5.45.08.07.51.42.44.31.03.02.35.22.34.16.03.01.26.1.27.07.04.01.2.03.24.03.23.02.22.01.18-.01.13-.06.06-.12-.01-.19-.01-.01-.11-.26-.23-.36-.04-.07-.31-.41-.47-.58-.08-.08-.17-.21-.32-.37-.39-.44-.26-.29-.64-.71-.07-.08-.29-.31-.48-.52-.07-.08-.72-.78-.18-.19-.6-.65-.03-.04-.26-.27-.56-.6-.31-.34-.49-.52-.27-.29-.09-.1-.43-.45-.39-.4-.37-.39-.36-.38-.04-.04-.01-.01-.07-.07-.24-.25-.02-.02-.67-.67-.63-.6-.57-.52-.51-.42-.11-.09-.33-.25-.4-.25-.05-.03-.3-.17-.32-.14-.29-.1-.17-.05-.11-.03-.27-.07-.28-.07-.25-.05-.23-.03-.08.02M121.47 15.4l.12.15.2.24.12.15.24.29.17.21.13.17.31.36.07.1.44.53.25.31.3.37.03.03.4.45.22.23.55.61.12.14.42.45.09.1.14.16.05.06.72.78v.01l.09.1.68.68.07.06.22.23.08.08.24.24.18.17.12.13.64.64.2.2.55.55h.01l.3.28.47.42.03.03.42.38.26.23.02.02.53.49.09.08.32.29.58.52.06.06.33.27.14.11.43.35.43.35.53.44M115.09 15.85l.13-.01.19-.02.87-.08.05-.01 1.14-.1.22-.01.94-.08.4-.03.75-.06h.04l1.11-.05h.54l.6-.01.43.02.69.03 1.09.13.64.13.42.09.83.25.2.07.98.44.24.14.7.41.91.64.87.71.36.33.33.29.16.15.83.82.35.35.14.15.13.13.01.01.14.15.05.05.08.09.02.01.12.13.14.15.04.04.1.11.14.15.05.05.09.1.03.03.12.12.05.06.41.43.23.24.65.71.12.14.57.65.14.16.03.04.59.74.21.32.28.41.13.27.2.4.04.18.1.41-.07.45-.01.05-.33.41-.55.32-.17.06-.56.19h-.03l-.85.18-.1.02-.33.04-.58.08h-.07l-1.02.1-.45.03-.19.01-.5.03-.93.05-.24.01h-.01l-.85.05-.32.01-.13.01-.81.03-.21.01h-.16l-.21.01h-.3l-.3.01h-.48l-.11-.01h-.32l-.25-.01h-.16999999999999998l-.1-.01-.27-.02h-.03l-.24-.02-.16-.01-.09-.01-.15-.01-.1-.01h-.02l-.19-.03-.1-.01-.08-.01-.11-.02-.46-.06-1.02-.23-.74-.25-.05-.01-.18-.06-.94-.43-.33-.2-.56-.33-.56-.39-.31-.22-.46-.38-.2-.15-.18-.15-.68-.62-.14-.11-.67-.66-.13-.12-.64-.65-.15-.16-.6-.62-.19-.2-.56-.58-.23-.24-.52-.55-.24-.26-.47-.53-.08-.09-.15-.17-.43-.53-.19-.23-.4-.57-.1-.14-.35-.65-.01-.03-.16-.56.01-.11.01-.18.02-.22.28-.41.43-.3M142.41 15.19l.7.01 1.51.08.48.04 1.09.07 1.41.11.19.02.12.01 1.48.12.23.02.49.04.85.08.13.01.46.05M150.81 30.25l-.23-.71-.02-.08-.04-.11-.13-.4-.17-.51-.13-.42-.05-.13-.17-.38-.39-.87-.03-.06-.16-.36-.04-.07-.22-.52-.16-.35-.28-.59-.01-.04-.06-.1-.31-.56-.15-.26-.18-.34-.22-.38-.12-.22-.01-.02-.02-.02-.52-.93-.17-.31-.15-.27-.13-.2-.12-.18-.12-.18-.21-.32-.01-.01-.3-.44-.4-.62-.03-.04-.19-.3-.49-.73-.14-.22-.14-.2-.03-.05-.26-.35-.16-.21-.1-.13-.15-.19-.11-.15-.37-.48-.09-.12-.01-.01-.14-.2-.36-.47-.07-.08-.13-.17h-.13l-.59-.02-1.28.04-.76.09-.36.04-.91.23-.68.34-.19.23-.21.26-.08.3-.08.3.05.71.03.1.19.7.11.24.03.07.01.02v.02l.22.51.26.52.15.28.06.12.4.71.13.24.32.53.22.37.04.06.57.97.08.14.13.2.38.62.23.34.4.59.25.33.14.18.28.38.58.65.16.19.8.74.03.02.18.14.75.55.13.08.91.51.32.13.85.35.5.15.78.24.5.11.19.04.69.15.87.14.59.09.16.02.88.1.47.06.66.06.56.05.34.03 1.37.09.21.01.6.04.99.06 1.45.09h.14l1.54.08.78.03.69.02.89-.01h.47l.47-.02.76-.05 1.06-.15.72-.21.13-.04.09-.05.53-.31.35-.47.01-.01.12-.6-.05-.47-.02-.21v-.02l-.24-.78-.06-.13-.31-.71-.25-.48-.22-.41-.18-.31-.27-.48-.08-.13-.56-.94-.09-.14-.44-.74-.03-.05-.27-.42-.31-.5-.5-.73-.11-.17-.27-.35-.39-.5-.21-.25-.5-.56-.54-.51-.25-.23-.02-.02-.47-.35-.39-.3-.37-.21-.63-.36-1.09-.47-.03-.01-1.23-.39-.51-.12M115.09 16.39l.33-.02.26-.01.6-.04.44-.02.97-.02.98-.03.91.02.91.01 1.43.11.22.02 1.47.24 1 .31.24.07 1.06.48.46.31.42.27.21.19.05.04.48.43.04.04.37.43.04.04.19.22.19.27.36.5.06.1.43.7.17.3.3.51.35.64.11.18.1.18.1.19.02.04.07.15.1.19.03.05.02.04.04.11.09.2.07.16.02.05.09.21.01.01.06.22.01.03.05.2.06.22.02.08v.03l.01.14.02.23v.12l.01.08v.1l.01.01-.06.23-.12.43-.38.55-.03.05-.52.39-.19.15-.35.15-.24.11-.15.06-.3.13-.02.01-.11.03-.37.11-.03.01-.41.12-.06.02-.33.1h-.02l-.15.03-.22.05-.27.05-.1.03-.36.07-.02.01-.34.07-.09.02h-.04l-.22.04-.23.04-.11.01-.33.06h-.01l-.3.05-.1.01-.18.03-.16.03-.09.01h-.01l-.13.02h-.03l-.09.02-1.69.21-.2.02-1.8.19h-.01l-.05.01-.77.07-.49.05-.19.01-.68.07-1.02.08-1.15.11-1.02.08-1.15.1-1.15.1-.98.08-.94.06-.45.03-.69.05-1.72.08-.28.01-1.88.04-.24-.01-1.06-.02-.45-.01-.87-.07-.73-.06-1.07-.18-.34-.06-.24-.07-.97-.29-.23-.1-.79-.36-.39-.25-.03-.02-.46-.29-.4-.34-.35-.29-.36-.4-.28-.3-.31-.4-.25-.33-.02-.01-.25-.39-.26-.39-.22-.33-.28-.46-.16-.26-.34-.53-.1-.18-.35-.61-.03-.05-.01-.02-.31-.64-.03-.06-.18-.54-.07-.2-.04-.32-.05-.39.12-.67.37-.6.55-.45.11-.1 1-.46 1.29-.41 1.55-.35.39-.06 1.37-.24 1.93-.26 1.73-.2.33-.04 2.15-.21 2.2-.21.94-.09M115.68 16.36l.04.15.18.66.09.34.01.04.11.44h.01l.14.32.21.5.11.25.25.56.08.19.28.63.04.11.03.06.17.38.07.11.09.16.02.03.16.26.29.47.03.05.41.67.08.13.32.52.05.08.06.1.06.11.13.21.25.3.22.28.32.39.02.03.29.36.27.34.07.09.29.35.18.23.28.34.2.2.09.09.13.12.46.45.09.09.41.4.02.01.11.11.22.21.01.01.59.58.16.15M151.54 17.19v1.03l-.01.4v1.93l-.02 1.33v1.33l-.01.55v.52l-.02.23v.03l.01.01-.02 1.33-.06.57-.01.41-.01.3v.06l-.04.16-.09.45-.11.55-.09.4-.05.26-.12.57-.02.12-.09.42.01.1-.07.17-.09.24-.07.15-.31.75M134.58 28.7l-.53-.44-.43-.35-.43-.35-.14-.11-.33-.27-.06-.06-.58-.52-.32-.29-.09-.08-.53-.49-.02-.02-.26-.23-.42-.38-.03-.03-.47-.42-.3-.28h-.01l-.55-.55-.2-.2-.64-.64-.12-.13-.18-.17-.24-.24-.08-.08-.22-.23-.07-.06-.68-.68-.09-.1v-.01l-.72-.78-.05-.06-.14-.16-.09-.1-.42-.45-.12-.14-.55-.61-.22-.23-.4-.45-.03-.03-.3-.37-.25-.31-.44-.53-.07-.1-.31-.36-.13-.17-.17-.21-.24-.29-.12-.15-.2-.24-.12-.15M115.22 31.47v-.99l-.01-.25v-.64l-.01-.65v-.65l-.01-.66v-.66l-.01-.46v-.21l-.01-.66v-1.01l-.01-.17.02-.17-.01-.24-.01-.13.03-.31.03-.37.04-.33.05-.48.01-.15.01-.07v-.02l.01-.1.05-.47.01-.11.05-.54.05-.17M151.15 35.08l-.45.26-1.04.32-.15.04-1.2.24-.49.09-.06.01-1.63.22-.45.06-.18.02-1.28.12-1.08.11-.33.02-.39.02-1.79.12-.34.02-.31.01M116.73 29.99l-.13-.21-.28-.46-.04-.06-.07-.12-.02-.07-.02-.07-.11-.32-.02-.07-.17-.53-.06-.2-.06-.17-.07-.23-.11-.34-.09-.26-.02-.09-.04-.13-.03-.27-.01-.15v-.02l-.06-.61-.01-.02-.06-.65-.01-.11-.02-.28v-.03l-.02-.12-.02-.11-.02-.37-.01-.67-.01-.8v-.79l-.01-.8v-.8l-.01-.52v-.28l-.01-.8v-.8M131.65 14.96l.15.16.06.06.63.65.22.23.11.12.51.54.67.71.17.18.42.45.01.01.1.1.11.12.11.12.09.09.03.04.07.06.17.18.5.53.03.04.06.05.44.48.23.25.16.17.44.47.25.27.15.17.46.48.38.42.46.5.04.03.04.04.21.24.08.09.15.16.4.43.27.31.62.67.2.22.44.48.1.1.16.18.12.13.04.05.73.81.03.03.78.87.09.1.05.06.29.32.35.38.22.25.08.09.45.51M142.41 15.19l.13.17.07.08.36.47.14.2.01.01.09.12.37.48.11.15.15.19.1.13.16.21.26.35.03.05.14.2.14.22.49.73.19.3.03.04.4.62.3.44.01.01.21.32.12.18.12.18.13.2.15.27.17.31.52.93.02.02.01.02.12.22.22.38.18.34.15.26.31.56.06.1.01.04.04.08-.16.33-.3.63-.01.01-.1.22-.07.13-.12.26-.23.35-.06.1-.17.26-.51.77-.12.19-.34.52-.22.33-.06.11-.46.69-.19.23-.02.02-.77.91-.04.04-.4.46-.34.39-.09.11-.66.78M123.88 29.02l-.16-.15-.59-.58-.01-.01-.22-.21-.11-.11-.02-.01-.41-.4-.09-.09-.46-.45-.13-.12-.09-.09-.2-.2-.28-.34-.18-.23-.29-.35-.07-.09-.27-.34-.29-.36-.02-.03-.32-.39-.22-.28-.25-.3-.13-.21-.06-.11-.06-.1-.05-.08-.32-.52-.08-.13-.41-.67-.03-.05-.29-.47-.16-.26-.02-.03-.09-.16-.07-.11-.17-.38-.03-.06-.04-.11-.28-.63-.08-.19-.25-.56-.11-.25-.21-.5-.14-.32h-.01l-.11-.44-.01-.04-.09-.34-.18-.66-.04-.15M149.9 16.02l.07.17.13.33.13.47.01.02.25.96.02.1.24.89.05.18.17.63.04.18.06.21.01.08.01.12.04.26.03.32.09.7.01.11v.02l.02.16.06.48.07.51.03.26.06.58v.71l-.01.08-.02.35-.03.95.03.03.02.48v.8400000000000001l-.01 1.29v.04l-.01 1v1.09l-.01.59v1.3599999999999999l-.01.17v1.17l-.01.67-.06.26M150.47 20.09l-.01.04-.33 1-.04.12-.29.88-.01.04-.05.16-.03.08-.13.39-.07.14-.09.19-.19.4-.29.59-.24.51-.07.14.24.51.16.35.22.52.04.07.16.36.03.06.39.87.17.38.05.13.13.42.17.51.13.4.04.11.02.08.2.61-.02.09M172 33.48l-1.19.03h-.27l-1.1-.03-.91-.02-1.53-.09-.63-.04-1.72-.15-.56-.04-1.78-.18-.58-.06-1.13-.11-.64-.07-.64-.07-1.73-.18-.68-.07-1.71-.19-.66-.07-.66-.08-.74-.09-.91-.12h-.01l-1.62-.24-.35-.05-.22-.03-1.02-.18-.46-.09-.57-.1-.51-.12-1.37-.31-.13-.04-1.42-.43-.1-.03-1.22-.5-.18-.08-1-.61-.11-.07-.85-.76-.04-.05-.3-.41-.28-.36-.19-.37-.25-.52-.15-.46-.13-.42-.02-.05-.18-.96-.01-.05-.07-.63-.03-.31-.03-.43-.04-.57-.04-.49-.02-.27-.02-.23-.03-.97v-.06l.01-.23.03-.65.04-.23.12-.64.08-.2.03-.09.21-.51.13-.18.21-.28.16-.23.04-.03.71-.55 1.01-.44 1.15-.25.17-.04 1.59-.14.8-.02 1.02-.01 1.14.03.87.03.83.06.29.02.2.01.84.06.15.01.46.04M177.69 26.81l.09.89.06.97-.02.93-.13.88-.06.16M150.25 31.56l.31-.75.07-.15.09-.24.04-.18.11-.51.02-.12.12-.57.05-.26.09-.4.11-.55.09-.45.04-.16v-.06l.01-.3.01-.41.03-.57v-.03l.03-.95.01-.35v-.04l.01-.23.01-.36v-.16l-.06-.58-.03-.26-.07-.51-.06-.48-.02-.16v-.02l-.01-.11-.09-.7-.03-.32-.04-.26-.01-.12-.01-.08-.06-.21-.04-.18-.17-.63-.05-.18-.24-.89-.02-.1-.25-.96-.01-.02-.13-.47-.13-.33-.07-.17M116.49 17.5l1.15-.14h.06l1.89-.17.11-.01 1.86-.09.36.01 1.27.01 1.35.15.07.03.97.27.53.3.23.13.39.39.14.15.02.03.18.35.13.25.07.29.1.41.02.16.02.31.02.28v.02l-.01.65-.01.12-.04.54-.02.26-.02.39-.03.41-.1.8-.02.09-.15.68-.28.76-.42.73-.32.36-.29.33-.82.65-.23.13-.85.47-1.37.55-.46.14-.11.04-.89.27-.17.06-.29.07-1.06.26-.46.12-.04.01-.76.16-1.27.27-.11.02-.1.02-1.35.25-.46.09-.16.03-.88.15-1.41.23-.13.02-1.53.24-.34.06-.37.06-.83.12-1.55.24h-.03l-1.51.23-.05.01-.85.13-.64.1-1.55.22-.18.03-1.02.14-.36.05-.92.12-.64.08-1.55.18-.02.01-2.02.18-1.85.1h-.21l-1.41-.01-1.36-.13-.83-.22-.23-.06-.79-.41-.57-.52-.38-.61-.22-.68-.11-.74-.03-.78v-1.61l.05-.79.12-.79.24-.77.39-.74.58-.71.77-.63.04-.04 1.09-.62 1.4-.56.03-.01 1.02-.32.61-.19 1.9-.48 1.83-.38.26-.06 2.24-.41 2.35-.39.17-.03 2.26-.35 2.46-.37.89-.13M115.5 20.8l-.05.17-.05.54-.01.11-.05.47-.01.1v.02l-.01.07-.01.15-.05.48-.04.33-.03.37-.03.31.01.13.02.24.01.11.02.12v.03l.02.28.01.11.06.65.01.02.06.61v.02l.01.15.03.27.04.13.02.09.09.26.11.34.07.23.06.17.06.2.17.53.02.07.11.32.02.07.02.07.07.12.04.06.28.46.13.21M123.92 18.36l.7-.17.07-.02 1.36-.3 1.17-.19.37-.02.59-.04.7.08.43.25.16.4-.03.4v.13l-.22.62-.36.71-.46.77-.22.35-.31.46-.26.39-.3.44-.57.83-.28.41-.3.41-.61.81-.66.8-.23.23-.22.23-.29.31-.82.75-.92.72-.42.27-.46.3-.17.12-1.17.63-.03.02-.48.22-.84.4-1.04.43-.38.16-1.01.38-.52.19-.17.06M109.26 33.4l-.06.02-1.73.53-1.71.52-1.64.48-.43.11-1.11.3-1.4.34-1.23.22-1.01.1-.24-.02-.53-.04-.47-.23-.22-.38v-.51l.18-.62.32-.71.42-.73.02-.04.23-.37.28-.46.55-.84.55-.85.57-.84.62-.84.67-.82.75-.81.84-.78.09-.07.88-.68 1.1-.72 1.25-.68 1.39-.63.95-.39M143.19 32.61l.66-.78.09-.11.34-.39.4-.46.04-.04.77-.91.02-.02.19-.23.46-.69.06-.11.22-.33.34-.52.12-.19.51-.77.17-.26.06-.1.23-.35.12-.26.07-.13.1-.22.01-.01.3-.63.23-.47.24-.51.29-.59.19-.4.09-.19.07-.14.13-.39.03-.08.05-.16.01-.04.29-.88.04-.12.33-1 .01-.04M151.78 34.41l-.09-.01-1.48-.29-.83-.15-.73-.15-.68-.14-.84-.16-.03-.01-1.51-.32-.63-.14-.86-.21-.91-.22-.27-.06-.29-.08-.92-.26-.5-.15-.15-.04-1.23-.42-.41-.15-.89-.39-.5-.23-.68-.43-.39-.25-.24-.23-.37-.38-.13-.13-.44-.81-.06-.32-.04-.17-.08-.37.04-.91.01-.05.13-.59.06-.29.11-.3.23-.67.2-.46.22-.52.27-.58.19-.4.23-.49.08-.18.15-.32.37-.73.11-.23.45-.75.1-.17.52-.71.11-.14.6-.63.14-.13.69-.51.19-.15.88-.43.17-.09 1.25-.37.09-.01 1.38-.18 1.18-.03.5-.01 1.66.08.19.01 1.51.15.48.05.71.09.35.05M121.56 32.44l.04-.07.4-.66.01-.01.24-.37.19-.29.48-.69.55-.72.5-.63.09-.1.02-.03.59-.68.08-.1.73-.81.77-.84v-.01l.8-.84.57-.6.26-.27.76-.79.08-.08.86-.88.86-.89.32-.33.36-.36.16-.17.8-.81.02-.02.74-.73.68-.66.22-.2.26-.24.01-.01.11-.1.48-.41.37-.25.22-.07.1.1-.01.23-.09.34-.09.22M132.09 32.93l-.11-.06-.91-.63-.28-.25-.28-.25-.19-.16-.55-.7-.33-.73-.07-.78.04-.24v-.03l.1-.55.35-.86.5-.88.16-.24.26-.36.15-.23.06-.08.41-.53.31-.39.78-.94.04-.04.78-.9.65-.75.04-.05.13-.14.68-.77.15-.15.77-.81.06-.06.86-.81.57-.46.31-.25.17-.11.75-.49.96-.45.91-.27.09-.03 1.07-.11 1.11.05.6.1.56.09 1.19.31.65.21"/></g><path d="M111.67 16.65l.68-.27.82-.21 1-.16.92-.12m41.11.75l-.82-.19-1.38-.3-1.48-.2-.94-.1m-36.46.54h-.43l-2.14.17-.85.07-1.33.12-1.26.12m68.61 9.92v-.1l-.1-1-.13-1-.21-.95-.31-.91-.45-.87-.63-.81-.83-.75-1.09-.66-1.37-.57-1.62-.5-1.83-.42-2-.37-2.15-.33-2.27-.29-2.34-.27-2.39-.2-1.75-.19-.64-.07-2.35-.24-1.66-.15m20.4 17.34h.34l1.57-.16 1.3-.29 1-.46.71-.58.49-.71.23-.63m-61.15-13.15l-1.07.12-2.34.31-2.42.35-1.57.24m7.4-1l-.07.15-.12.28-.11.39-.23.83-.23.82-.23.82m8.42-2.44l-.74.19-1.62.45-1.7.5-1.74.52-1.75.51-1.74.53-1.7.54-1.66.56-1.59.58-.54.22m.12 10.44l1.67-.52 1.7-.54 1.66-.54 1.43-.5.26-.69.11-.31.15-.4.15-.42.16-.31.4-.77.18-.35.22-.42.41-.78.5-.79.19-.29.2-.33.13-.2.53-.83.32-.5.24-.34.12-.16.21-.28.31-.41.63-.86.63-.85.16-.23.54-.64.72-.88.59-.71.13-.16m27.86 16l2.23.43 2.29.42 2.23.38 2.16.31 2 .21 1.9.11h1.72l1.52-.19 1.28-.38 1.07-.53.9-.67.74-.79.15-.2.48-.67.54-.94.48-1 .45-1 .45-1 .4-1 .32-1 .18-.95v-.94l-.2-.86-.47-.82-.77-.75-1.12-.67-1.41-.62-1.68-.56-1.89-.51-2.06-.48-2.18-.45-2.26-.43-2.3-.42-2.3-.43-2.27-.39-2.2-.36-1-.14m-.68 2.95l.31-.95.18-1 .15-.81v-.18m-32.11 20.88h.2l.35-.23.49-.4.6-.54.7-.67.77-.77.84-.84.87-.89.89-.92.9-.91.88-.92.87-.9.77-.82.07-.08.81-.87.76-.85.7-.83.64-.78.56-.75.49-.72.43-.68.39-.65.35-.63.2-.39.11-.23.3-.6.28-.59.29-.59.24-.52.23-.52.08-.22m0 0l-.16.18-.72.76-.22.24-.65.68-.87.92-.87.92-.8.83h-.06l-.71.78-.17.17-.83.83-.87.9-.48.49-.07.08-.22.22-.09.08-.84.86-.85.85-.45.45-.39.39-.77.76-.79.78-.44.43-.35.35-.39.36-.45.43-.33.57-.34.63-.33.62-.32.62-.32.63-.3.61-.27.56-.21.49-.14.4v.28l.01.16m13.06-5.06l1-.8.45-.36.48-.39.07-.07.93-.87.94-.88.44-.41.51-.48.32-.3.58-.62.87-.93.3-.33.26-.27.31-.34.77-.82.09-.12.79-1 .15-.18.09-.12.59-.65.79-1 .41-.51.33-.47.7-1 .69-1 .56-.8.13-.17m-13.53 14.88l.95.56 1.14.6 1.22.59 1.26.59 1.26.59 1.27.57 1.25.52 1.24.45 1.22.36 1.19.23 1.14.09 1.11-.09 1-.29 1-.45 1-.61.92-.74.89-.83.63-.66.24-.24.86-1 .85-1 .85-1 .82-1 .74-1 .65-.94.51-.92.33-.88.14-.85-.11-.8-.38-.75-.61-.7-.82-.66-1-.63-1.11-.6-1.18-.44-1.27-.56-1.28-.55-1.29-.55-1.27-.52-1.26-.48-.58-.19" stroke="#5fffc8"/><path d="M140 36.76l-2.76.11-3.2.05h-3.22l-3.14-.09-3-.15-2.68-.24-.9-.1m-5.91-4.87v3.2800000000000002l.32.39.87.37 1.4.35 1.76.29" stroke="#15d5ee" stroke-width=".75" opacity=".88"/></g><g opacity=".88" stroke="#15d5ee" stroke-width=".75"><path d="M109.43 48.34c-5.54-.23-16-1.63-20.25-2.92-1.67-.5-3.8-1-4.41-2.75l-.77-37.51c6.05-6.81 98.47-6 98.61.22l-.69 37.62c-.67 1-2.93 2-4.53 2.45M178 7c1.61-.36 3.29-.58 4.59-1.66M84 5.16c.47 1.29 2.78 1.54 4 1.78 1.86.36 3.73.63 5.62.86 3.23.41 6.49.65 9.74.87 1.89.13 3.77.22 5.66.33M109.43 48.34l-.13-11.09-.31-28.25M178.01 7.04l-.54 33.06-.08 5.35" opacity=".88"/></g><g stroke="#15d5ee" stroke-width=".75"><path d="M115.1 17.66v-3.23c11-5 25.4-4.66 36.49-.14v2.9M115.08 14.43c0 2 36.49 1.85 36.48-.14" opacity=".88"/></g></g><g opacity=".88"><path d="M224.41 314.81s11.33 2.33 14.36 3a36 36 0 0 0 4.82.93 11.63 11.63 0 0 0 6.26-1.08 9.15 9.15 0 0 0 4.34-4.69 11.89 11.89 0 0 0 .81-3.87c0-.45.05-.9.08-1.36l.14-2.75.22-4 .27-5.18.33-6.19.38-7.12.41-7.87.45-8.51.48-9.07.5-9.4.52-9.74.52-9.85.52-9.88.52-9.82.51-9.55.48-9.2.47-8.76.43-8.09.39-7.43.35-6.55.29-5.58.24-4.5.17-3.25.1-1.91a12.31 12.31 0 0 0 0-1.92 8.28 8.28 0 0 0-3-5.46 8.1 8.1 0 0 0-2.79-1.49 10.47 10.47 0 0 0-1.66-.28l-6.94-.81-9.46-1.1c-1.63-.19-3.28-.34-4.91-.57-1-.14-1.24-1.58-1.36-2.39a13.39 13.39 0 0 1 0-3.1 16.65 16.65 0 0 1 .58-3.12 6.3 6.3 0 0 1 1.43-2.79c.47-.44.9-.35 1.46-.28l2.86.31 9.14 1 8 .89a26.08 26.08 0 0 1 4.47.75 20.78 20.78 0 0 1 5.9 2.85 18.54 18.54 0 0 1 4.48 4.4 20.47 20.47 0 0 1 3 5.77 20.91 20.91 0 0 1 .93 6.62v1.11l-.12 2.08-.2 3.4-.27 4.61-.33 5.66-.38 6.66-.44 7.47-.47 8.17-.51 8.8-.54 9.23-.55 9.56-.57 9.82-.57 9.85-.58 9.88-.56 9.7-.54 9.42-.53 9.05-.49 8.5-.46 7.85-.41 7.11-.38 6.15-.3 5.18-.23 4.06-.17 2.76c0 .47-.05.94-.08 1.41a25.19 25.19 0 0 1-.55 3.77 21.25 21.25 0 0 1-2.53 6.16 13.65 13.65 0 0 1-.84 1.2 12.42 12.42 0 0 1-.9 1.16c-.4.45-.78.92-1.22 1.33l-1.35 1.21s-.81.6-1.22.89-.73.52-1.12.75-1 .58-1.5.83-1.18.51-1.77.76a21.81 21.81 0 0 1-6.34 1.39 23.29 23.29 0 0 1-6.45-.41c-1.56-.28-3.11-.67-4.66-1l-9.24-2.12-6-1.38s-.62-1.92.71-5.79l3.17-4.25z" fill="#19181f" opacity=".77"/><path d="M224.41 314.81s11.33 2.33 14.36 3a36 36 0 0 0 4.82.93 11.63 11.63 0 0 0 6.26-1.08 9.15 9.15 0 0 0 4.34-4.69 11.89 11.89 0 0 0 .81-3.87c0-.45.05-.9.08-1.36l.14-2.75.22-4 .27-5.18.33-6.19.38-7.12.41-7.87.45-8.51.48-9.07.5-9.4.52-9.74.52-9.85.52-9.88.52-9.82.51-9.55.48-9.2.47-8.76.43-8.09.39-7.43.35-6.55.29-5.58.24-4.5.17-3.25.1-1.91a12.31 12.31 0 0 0 0-1.92 8.28 8.28 0 0 0-3-5.46 8.1 8.1 0 0 0-2.79-1.49 10.47 10.47 0 0 0-1.66-.28l-6.94-.81-9.46-1.1c-1.63-.19-3.28-.34-4.91-.57-1-.14-1.24-1.58-1.36-2.39a13.39 13.39 0 0 1 0-3.1 16.65 16.65 0 0 1 .58-3.12 6.3 6.3 0 0 1 1.43-2.79c.47-.44.9-.35 1.46-.28l2.86.31 9.14 1 8 .89a26.08 26.08 0 0 1 4.47.75 20.78 20.78 0 0 1 5.9 2.85 18.54 18.54 0 0 1 4.48 4.4 20.47 20.47 0 0 1 3 5.77 20.91 20.91 0 0 1 .93 6.62v1.11l-.12 2.08-.2 3.4-.27 4.61-.33 5.66-.38 6.66-.44 7.47-.47 8.17-.51 8.8-.54 9.23-.55 9.56-.57 9.82-.57 9.85-.58 9.88-.56 9.7-.54 9.42-.53 9.05-.49 8.5-.46 7.85-.41 7.11-.38 6.15-.3 5.18-.23 4.06-.17 2.76c0 .47-.05.94-.08 1.41a25.19 25.19 0 0 1-.55 3.77 21.25 21.25 0 0 1-2.53 6.16 13.65 13.65 0 0 1-.84 1.2 12.42 12.42 0 0 1-.9 1.16c-.4.45-.78.92-1.22 1.33l-1.35 1.21s-.81.6-1.22.89-.73.52-1.12.75-1 .58-1.5.83-1.18.51-1.77.76a21.81 21.81 0 0 1-6.34 1.39 23.29 23.29 0 0 1-6.45-.41c-1.56-.28-3.11-.67-4.66-1l-9.24-2.12-6-1.38s-.62-1.92.71-5.79l3.17-4.25z" opacity=".77" fill="url(#Q)"/><path d="M224.41 314.81s11.33 2.33 14.36 3a36 36 0 0 0 4.82.93 11.63 11.63 0 0 0 6.26-1.08 9.15 9.15 0 0 0 4.34-4.69 11.89 11.89 0 0 0 .81-3.87c0-.45.05-.9.08-1.36l.14-2.75.22-4 .27-5.18.33-6.19.38-7.12.41-7.87.45-8.51.48-9.07.5-9.4.52-9.74.52-9.85.52-9.88.52-9.82.51-9.55.48-9.2.47-8.76.43-8.09.39-7.43.35-6.55.29-5.58.24-4.5.17-3.25.1-1.91a12.31 12.31 0 0 0 0-1.92 8.28 8.28 0 0 0-3-5.46 8.1 8.1 0 0 0-2.79-1.49 10.47 10.47 0 0 0-1.66-.28l-6.94-.81-9.46-1.1c-1.63-.19-3.28-.34-4.91-.57-1-.14-1.24-1.58-1.36-2.39a13.39 13.39 0 0 1 0-3.1 16.65 16.65 0 0 1 .58-3.12 6.3 6.3 0 0 1 1.43-2.79c.47-.44.9-.35 1.46-.28l2.86.31 9.14 1 8 .89a26.08 26.08 0 0 1 4.47.75 20.78 20.78 0 0 1 5.9 2.85 18.54 18.54 0 0 1 4.48 4.4 20.47 20.47 0 0 1 3 5.77 20.91 20.91 0 0 1 .93 6.62v1.11l-.12 2.08-.2 3.4-.27 4.61-.33 5.66-.38 6.66-.44 7.47-.47 8.17-.51 8.8-.54 9.23-.55 9.56-.57 9.82-.57 9.85-.58 9.88-.56 9.7-.54 9.42-.53 9.05-.49 8.5-.46 7.85-.41 7.11-.38 6.15-.3 5.18-.23 4.06-.17 2.76c0 .47-.05.94-.08 1.41a25.19 25.19 0 0 1-.55 3.77 21.25 21.25 0 0 1-2.53 6.16 13.65 13.65 0 0 1-.84 1.2 12.42 12.42 0 0 1-.9 1.16c-.4.45-.78.92-1.22 1.33l-1.35 1.21s-.81.6-1.22.89-.73.52-1.12.75-1 .58-1.5.83-1.18.51-1.77.76a21.81 21.81 0 0 1-6.34 1.39 23.29 23.29 0 0 1-6.45-.41c-1.56-.28-3.11-.67-4.66-1l-9.24-2.12-6-1.38s-.62-1.92.71-5.79l3.17-4.25z" stroke="#1950c8" stroke-linecap="round" stroke-linejoin="round" stroke-width=".75" fill="none"/></g><g><g opacity=".88"><path d="M93.35 262.79a4.78 4.78 0 0 0-3.19.1c-.33.15-43.47 29-43.73 29.16-1.7 1.11-2.2 2.93-1.82 5.17a8.39 8.39 0 0 0 3.69 5.53 6 6 0 0 0 3 1 4.74 4.74 0 0 0 2.93-1c.86-.6 42.12-29.39 42.36-29.59a4.46 4.46 0 0 0 1.53-2.83 7.11 7.11 0 0 0-2.12-5.92 7 7 0 0 0-2.63-1.62" fill="#19181f"/><path d="M93.35 262.79a4.78 4.78 0 0 0-3.19.1c-.33.15-43.47 29-43.73 29.16-1.7 1.11-2.2 2.93-1.82 5.17a8.39 8.39 0 0 0 3.69 5.53 6 6 0 0 0 3 1 4.74 4.74 0 0 0 2.93-1c.86-.6 42.12-29.39 42.36-29.59a4.46 4.46 0 0 0 1.53-2.83 7.11 7.11 0 0 0-2.12-5.92 7 7 0 0 0-2.63-1.62" fill="url(#R)"/><path d="M93.35 262.79a4.78 4.78 0 0 0-3.19.1c-.33.15-43.47 29-43.73 29.16-1.7 1.11-2.2 2.93-1.82 5.17a8.39 8.39 0 0 0 3.69 5.53 6 6 0 0 0 3 1 4.74 4.74 0 0 0 2.93-1c.86-.6 42.12-29.39 42.36-29.59a4.46 4.46 0 0 0 1.53-2.83 7.11 7.11 0 0 0-2.12-5.92 7 7 0 0 0-2.63-1.62" stroke="#1950c8" stroke-linecap="round" stroke-linejoin="round" stroke-width=".75" fill="none"/></g><g opacity=".88"><path d="M88.67 193.38c5.81-2.87 11.6 7.2 6.3 10.84-.33.23-44.19 24.6-44.19 24.6-6.05 3.42-12.81-7.06-7.63-11.32.5-.41 44.3-23.5 45.52-24.12z" fill="#19181f"/><path d="M88.67 193.38c5.81-2.87 11.6 7.2 6.3 10.84-.33.23-44.19 24.6-44.19 24.6-6.05 3.42-12.81-7.06-7.63-11.32.5-.41 44.3-23.5 45.52-24.12z" fill="url(#S)"/><path d="M88.67 193.38c5.81-2.87 11.6 7.2 6.3 10.84-.33.23-44.19 24.6-44.19 24.6-6.05 3.42-12.81-7.06-7.63-11.32.5-.41 44.3-23.5 45.52-24.12z" stroke="#e7276d" stroke-linecap="round" stroke-linejoin="round" stroke-width=".75" fill="none"/></g><path d="M42.37 225.39c-1-2.22-1.47-5 .1-7.16s4.6-2.1 6.69-.69a8.49 8.49 0 0 1 3.68 6.33c.2 2.49-1.09 5.18-3.76 5.6s-4.91-1.27-6.25-3.3c-.16-.25-.31-.52-.46-.78" stroke="#e7276d" stroke-linecap="round" stroke-linejoin="round" stroke-width=".75" opacity=".88" fill="url(#f)"/><path d="M51.33 303.75a6 6 0 0 1-3-1 8.39 8.39 0 0 1-3.69-5.53c-.38-2.24.12-4.06 1.82-5.17 5.55-3.42 12.66 7.1 7.57 10.84a4.41 4.41 0 0 1-2.7.86z" stroke="#1950c8" stroke-linecap="round" stroke-linejoin="round" stroke-width=".75" opacity=".88" fill="url(#T)"/></g></g></svg>