<svg xmlns="http://www.w3.org/2000/svg" xmlns:xlink="http://www.w3.org/1999/xlink" width="290.71" height="195.15" viewBox="0 0 290.71 195.15"><defs><linearGradient id="c" x1="-7384.17" y1="-8149.12" x2="-7351.56" y2="-8214.59" gradientTransform="translate(7446.19 8225.36)" gradientUnits="userSpaceOnUse"><stop offset="0" stop-color="#5fffc8" stop-opacity=".8"/><stop offset=".9" stop-color="#6dab8d" stop-opacity="0"/></linearGradient><linearGradient id="a" x1="105.45" y1="22.06" x2="128.33" y2="-2.92" gradientUnits="userSpaceOnUse"><stop offset="0" stop-color="#15d5ee" stop-opacity=".8"/><stop offset=".9" stop-color="#39b54a" stop-opacity="0"/></linearGradient><radialGradient id="d" cx="96.33" cy="121.37" r="82.99" xlink:href="#a"/><linearGradient id="b" x1="157.44" y1="50.85" x2="190.57" y2="50.85" gradientUnits="userSpaceOnUse"><stop offset="0" stop-color="#15d5ee" stop-opacity=".8"/><stop offset=".11" stop-color="#15d5ee" stop-opacity=".76"/><stop offset=".28" stop-color="#15d5ee" stop-opacity=".66"/><stop offset=".49" stop-color="#15d5ee" stop-opacity=".49"/><stop offset=".75" stop-color="#15d5ee" stop-opacity=".26"/><stop offset="1" stop-color="#15d5ee" stop-opacity="0"/></linearGradient><linearGradient id="e" x1="230.57" y1="120.43" x2="221.99" y2="86.28" gradientTransform="translate(249.03 -146.14) rotate(72.07)" xlink:href="#b"/><linearGradient id="f" x1="205.92" y1="143.86" x2="205.92" y2="73.18" xlink:href="#b"/><linearGradient id="g" x1="221.32" y1="42.36" x2="210.51" y2="76.6" xlink:href="#b"/><linearGradient id="h" x1="152.55" y1="17.47" x2="245.83" y2="126.25" xlink:href="#b"/><linearGradient id="i" x1="155.08" y1="101.52" x2="167.16" y2="55.03" xlink:href="#b"/><linearGradient id="j" x1="173.67" y1="60.83" x2="178.06" y2="49.43" gradientUnits="userSpaceOnUse"><stop offset="0" stop-color="#19181f"/><stop offset="1" stop-color="#19181f" stop-opacity="0"/></linearGradient></defs><title>pump-centr-on_1</title><g stroke="#0970b7" stroke-linecap="round" stroke-linejoin="round" fill="none"><path d="M8.36 113.47a17 17 0 0 0-5.6 1.92c-.71.46-1.62 1.16-1.63 2.09s.85 1.58 1.55 2a69.49 69.49 0 0 0 6.32 3.17l7.09 3.49 27.91 13.7 55.79 27.45 27.76 13.71 13.92 6.85c4.31 2.12 8.63 4.72 13.34 5.83a42 42 0 0 0 14.48.67c5-.6 9.8-2.31 14.59-3.67l29.76-8.45 59.93-17c2.46-.7 4.9-1.42 7.37-2.09a34.48 34.48 0 0 0 5.89-1.87c1.17-.57 2.83-1.54 2.77-3-.08-1.86-2.36-2.94-3.81-3.56" opacity=".75"/><path d="M285.79 154.62c-4.56-2-9.26-3.64-13.88-5.45l-14.27-5.59-58.17-22.77-57.79-22.63c-4.6-1.8-9.18-3.83-13.87-5.42a34.62 34.62 0 0 0-14.25-1.18c-4.85.46-9.66 1.78-14.42 2.78l-15 3.16-61 12.85-14.72 3.1" stroke-dasharray="0,3" opacity=".75"/><path d="M8.16 107.51a17.07 17.07 0 0 0-5.61 1.89c-.7.45-1.63 1.14-1.63 2.08s.87 1.55 1.56 2c2 1.24 4.32 2.12 6.45 3.16l7.15 3.46 27.82 13.44 55.62 26.93 27.82 13.47 13.9 6.73c4.32 2.09 8.67 4.68 13.36 5.8a42.34 42.34 0 0 0 14.63.71c4.92-.58 9.71-2.23 14.46-3.56l29.82-8.33 59.67-16.66c2.44-.69 4.88-1.38 7.33-2a44.89 44.89 0 0 0 6.24-1.89c1.21-.54 3-1.48 3-3 0-1.89-2.36-3-3.79-3.62" opacity=".75"/><path d="M286 148.06c-4.62-2-9.38-3.63-14.06-5.43l-14.34-5.52-58-22.33-57.7-22.24c-4.62-1.78-9.21-3.73-13.9-5.34a34.31 34.31 0 0 0-14-1.3c-5 .43-10 1.76-14.87 2.77l-15.4 3.19q-30.45 6.28-60.89 12.6l-14.68 3.05" stroke-dasharray="0,3" opacity=".75"/><path d="M8 101.53a16.6 16.6 0 0 0-5.78 2c-.71.47-1.59 1.18-1.45 2.14s1.09 1.5 1.8 1.89c4.37 2.38 9 4.31 13.53 6.45l28.09 13.38 56 26.66 27.81 13.26 13.64 6.49c4.32 2.06 8.65 4.57 13.36 5.6a43.23 43.23 0 0 0 14.57.57c4.95-.63 9.79-2.26 14.58-3.58l29.85-8.19 59.48-16.35c2.45-.67 4.9-1.36 7.35-2a40.31 40.31 0 0 0 6.29-1.89c1.13-.52 2.8-1.42 2.89-2.84.12-1.94-2.48-3.09-3.93-3.69" opacity=".75"/><path d="M286.06 141.41c-9.36-3.84-19-7.19-28.42-10.77l-58.35-22.1-57.69-21.85-7.24-2.69c-2.42-.92-4.83-2-7.32-2.71a36.87 36.87 0 0 0-13.88-.9c-4.9.48-9.76 1.77-14.58 2.75l-14.94 3-60.94 12.39-14.7 3" stroke-dasharray="0,3" opacity=".75"/><path d="M7.76 95.54a16.74 16.74 0 0 0-5.76 1.94c-.73.52-1.62 1.16-1.49 2.12s1.1 1.47 1.81 1.85c4.39 2.35 9.08 4.26 13.59 6.37l27.78 13 56 26.23 27.65 13 13.71 6.42c4.48 2.1 9 4.7 13.86 5.76a43.92 43.92 0 0 0 14.73.57c4.93-.63 9.74-2.22 14.53-3.51l29.83-8.09 59.65-16.12c2.45-.66 4.89-1.33 7.34-2a40.53 40.53 0 0 0 6.23-1.84c1.17-.52 3-1.47 3-3 0-1.9-2.67-3-4.1-3.54" opacity=".75"/><path d="M286.11 134.75c-9.56-3.8-19.29-7.19-28.93-10.78l-57.61-21.45-57.96-21.52c-4.72-1.76-9.43-3.82-14.25-5.27a37.56 37.56 0 0 0-14.28-1c-4.91.48-9.79 1.76-14.62 2.72l-15 3-61 12.2-14.74 3" stroke-dasharray="0,3" opacity=".75"/></g><path d="M146.51 35.69l4.55 1.46 2-2.27-21.83-29.12-18.47-5.39-2 2.24 2.69 3.54-8.9 10-7.28-2.28c-5.68-4.87-14.87-7.87-14.87-7.87l-8.51-2.65c-40.89-3.87-59.47 54.86-23.27 72.84l8.26 3.38s7.41 2.36 13.12 1.92l27.87 11.29a65.71 65.71 0 0 0 12 3.84h.29c2.47-.15 5.24 0 7.66-.46a35.65 35.65 0 0 0 7.62-2.82 33.15 33.15 0 0 0 9.73-7.74 36.14 36.14 0 0 0 4.27-5.08c1.16-1.92 2.21-3.92 3.32-5.87a32.51 32.51 0 0 0 2.42-6.21 31 31 0 0 0 1.66-6.08c.25-2.34.49-4.68.74-7a28.65 28.65 0 0 0-.46-6.19 30.28 30.28 0 0 0-3.82-12.45l.22.11z" fill="#19181f" opacity=".5"/><g stroke="#cb2283" stroke-linecap="round" stroke-linejoin="round" stroke-width=".5" fill="none"><g opacity=".5"><path d="M73.89 3.35c7.2 2.36 12.53 4.79 17.13 11a35.87 35.87 0 0 1 6.79 23.06c-.81 15.1-8.91 31.21-23.17 37.88-8.27 3.87-15.55 3.21-24 .9M97.27 13.88c9.41 12.71 11.49 26.87 5.88 41.84-4.82 12.85-16.89 25.07-31.15 25.77M80.48 8.72c8.87 6.47 13.65 13.7 14.72 24.83a41.11 41.11 0 0 1-8.62 28.52c-6.58 8.24-16.93 14.64-27.87 13.17-10.46-1.41-18.46-9.88-21.38-19.72-5.84-19.69 7-46 28.43-49.13 8.8-1.28 22.68 3 29 9.24 7.24 7.07 9.83 17.56 8.87 27.37a41.48 41.48 0 0 1-17.78 30.66c-11.4 7.75-22.22 4.46-34-.3" opacity=".5"/></g><g opacity=".5"><path d="M134.05 58.25c2.57.53 1.19 6 .54 7.67a11.12 11.12 0 0 1-2.44 3.72c-1.14 1.17-1.83 1.15-3.39.7M81.78 9l5.8 1.88a12 12 0 0 1 3.66 2.12 27.68 27.68 0 0 1 4.1 3.09 57.18 57.18 0 0 1 3.91 5.25 14.47 14.47 0 0 1 1.75 3.75 40.63 40.63 0 0 1 2 5.19 34.14 34.14 0 0 1 .85 10.65 47.74 47.74 0 0 1-1.74 10.07c-.57 1.77-1 3.69-1.73 5.39a44.71 44.71 0 0 1-2.3 4 38.28 38.28 0 0 1-15 15.09 27.46 27.46 0 0 1-11.3 3 18.12 18.12 0 0 1-5.15 0c-2.17-.55-4.32-1.18-6.48-1.77M131.64 54.43l3.55 1.23M120.42 66.34a11.71 11.71 0 0 1 3.09-9.93c2.5-2.55 6.69-3.67 9.55-1 1.07 1 1.35 2.72 2.53 3.34a34.07 34.07 0 0 0 4.65 1.63l11.62 4.07 9.86 3.44c3.08 1.08 7.08 1.66 8 5.31a8.3 8.3 0 0 1-3.49 8.8c-3.06 1.84-6.55-.3-9.56-1.4l-22.06-8.07c-2.51-.92-6.48-1.58-7.85-4.14-1.66-3.09-.31-7.21 2.29-9.3 3.08-2.47 6.85-.65 7.55 3 .63 3.28-1.29 7.35-4.59 8.4-1.37.43-2.63 1.35-4.08 1.63-2 .4-2.9-1.28-3.54-3a11.23 11.23 0 0 1 1.53-10.22c2-2.78 5.86-4.93 9.22-3.28s4.26 5.88 3.66 9.26a10.85 10.85 0 0 1-5.68 7.89 6.49 6.49 0 0 1-5.45.17 8.54 8.54 0 0 0-2.09-.89 6.14 6.14 0 0 1-3-1.49 7.08 7.08 0 0 1-2.17-4.24M149.14 49.14a28.65 28.65 0 0 1 .46 6.19c-.25 2.34-.49 4.68-.74 7a31 31 0 0 1-1.66 6.08 32.51 32.51 0 0 1-2.42 6.21c-1.11 2-2.16 4-3.32 5.87a36.14 36.14 0 0 1-4.27 5.08 33.15 33.15 0 0 1-9.73 7.74 35.65 35.65 0 0 1-7.62 2.82c-2.42.51-5.19.31-7.66.46M127.62 72.94l-3.52-1.3M166.43 69.58c-3.07-1-5.84 2.21-6.8 4.73-1.16 3-.51 6.2 2.15 8.1" opacity=".5"/></g><g opacity=".5"><path opacity=".5" d="M116.2 3.06l13.83 4.06.95.27 18.57 24.79M147.59 34.44l-4.85-1.54-2.08-.66-5.85-1.86-1.2-.38-.83-.27-1.94-2.55-2.7-3.55-.08-.11-5.23-6.88-8.62-11.34M149.55 32.18l-4.8-1.51-5.92-1.86-4.11-1.3M153.02 34.88l-4.56-1.44-2.14-.68-4.77-1.51-.72-.23-6.07-1.92-.29-.09-.49-.65-.18-.24-2.71-3.57-.04-.06-7-9.23-6.9-9.09-1.71-2.26-2.68-3.53M116.2 3.06l2.77 3.65 5.83 7.7 8.09 10.68.02.03 1.79 2.36.01.04-.6.69-.13.15-1.2 1.37-.71.82-.03.03-1.4 1.6-1.23 1.41-.56.63-3.63 4.15-2.08 2.39-.12.14M137.72 45.81l-.16-.05-2.17-.73-3.84-1.28-4.83-1.62-3.7-1.23-.19-.24-.5-4.18-3-7.94-3.09-4.21-1.68-2.29-.4-.3-4.84-3.57-.99-.74-3.81-1.24M146.51 35.69l-2.29-.73-3.75-1.2-5.59-1.79-2.31-.73-.03-.02-.5-.64-3.01-3.97-.19-.25-1.31-1.71-1.05-1.39-.25-.33-4.15-5.45-8.63-11.33M149.55 32.18l-1.09 1.26-.1.12-.77.88M114.21 5.3l1.18-1.32.05-.07.76-.85M128.97 9.68l.79-.9 1.22-1.39M145.54 36.8l-.11.14-4.83 5.56-1.51 1.74-1.37 1.57M104.52 16.19l3.7 1.16 10.96 3.43 3.83 1.24 1.69 1.26 3.02 2.25 1.12.83.43.33 2.8 3.86.48.66.02.03.48.66 1 1.38.98 2.64 2.02 5.41.49 4.24.18.24M134.47 29.01l-.86.99-1.06 1.21-.01.01"/></g></g><path d="M60.14 76.71c-31.44-16.25-9.52-72.14 21.64-67.71l45.46 14.21c-35.24-2.21-54.66 53.41-22.85 71.39zm22.26-70.71l-8.51-2.65c-40.89-3.87-59.47 54.86-23.27 72.84l8.26 3.38c-34.03-18.25-13.76-76.91 23.52-73.57z" opacity=".75" fill="url(#c)"/><path d="M104.55 16.16l8.9-10 .76-.85 14.79 4.37-9.76 11.06zm6.21-13.55l18.45 5.44 2-2.29-18.45-5.38-2 2.23 2.69 3.54z" opacity=".75" fill="url(#a)"/><g stroke="#15d5ee" stroke-linecap="round" stroke-linejoin="round" stroke-width=".75" fill="none"><path opacity=".75" d="M119.21 20.74l9.76-11.06M104.55 16.16l8.9-10.01.76-.85 14.76 4.38 18.62 24.76-1.08 1.25-.97 1.11M151.06 37.15l-2.7-3.59-19.15-25.51-18.45-5.44M146.51 35.69l4.55 1.46 1.96-2.27-21.79-29.12-18.47-5.38-2 2.23 2.69 3.54"/></g><g stroke="#5fffc8" stroke-linecap="round" stroke-linejoin="round" fill="none"><path d="M58.88 79.57c-34.03-18.25-13.76-76.91 23.52-73.57m14.87 7.9c-5.68-4.9-14.87-7.9-14.87-7.9l-8.51-2.65c-40.89-3.87-59.47 54.86-23.27 72.84l8.26 3.38s7.41 2.36 13.12 1.92M104.39 94.6c-31.81-17.98-12.39-73.6 22.85-71.35m21.9 25.89c-1-12.35-9.55-23.38-21.9-25.89l-45.46-14.25c-31.16-4.43-53.08 51.46-21.64 67.71l39.73 16.07a65.71 65.71 0 0 0 12 3.84h.29"/></g><g opacity=".5"><path d="M156.24 108.9v5.43l-8.73 11.31-35.19-14.76-.46-47.66c.16-10.39 10-22.64 22.13-19.14l32.56 10.84 3.53 1.21a15 15 0 0 1 9.59 13.77c0 16.07-.18 32.14-.27 48.2z" fill="#19181f"/><path d="M156.24 108.9v5.43l-8.73 11.31-35.19-14.76-.46-47.66c.16-10.39 10-22.64 22.13-19.14l32.56 10.84 3.53 1.21a15 15 0 0 1 9.59 13.77c0 16.07-.18 32.14-.27 48.2z" fill="url(#d)"/></g><g opacity=".5" stroke="#cb2283" stroke-linecap="round" stroke-linejoin="round" stroke-width=".5" fill="none"><path opacity=".5" d="M179.4 118.1l-15.25-6.06M166.5 55.62a11.11 11.11 0 0 1 3.58.51M166.55 54.92l3.53 1.21a15 15 0 0 1 9.59 13.77c0 16.07-.18 32.14-.27 48.2l-8.4-7.17c0-13.09.15-26.4.15-39.26-.06-.71 0-4.74-1.89-5.81a6.56 6.56 0 0 0-2.77-.84M166.45 65c-5.29-.37-10.19 6-10.19 10.65v24.65M143.66 103.91l-.07-28.15v-1.68l-.01-.82v-2.19l-.01-1.8v-3.08l-.01-1.65v-2.5500000000000003l-.01-.35v-.06l-.01-3.41v-.73l-.93-4.11-.1-.47-1.91-3.66-.13-.25-2.79-2.88-.11-.12-3.58-1.87M156.24 108.91l-8.76-3.49-3.82-1.51"/></g><g stroke="#15d5ee" stroke-linecap="round" stroke-linejoin="round" stroke-width=".75" fill="none"><path opacity=".75" d="M164.15 112.04l-7.91-3.14M147.51 125.64l-.08-49.1c.19-1.91 1.41-11.84 9.71-17.4 1.6-1.07 5.14-3.44 9.36-3.52M156.24 100.3v14l-8.73 11.31-35.19-14.76-.46-47.66c.16-10.39 10-22.64 22.13-19.14l32.56 10.84"/></g><path d="M190.22 45.92c12.78-7.67 30.58-7.05 42.36 2 21.94 16.84 22.11 49.24 7.45 71.17-16 24-50.53 31.23-69.24 6.21l-5.89-11.13a50.63 50.63 0 0 1-2.3-8.17c-3.36-17.38 2.57-36.23 14.34-49.25a57.46 57.46 0 0 1 13.28-10.83z" fill="#19181f" opacity=".75"/><g opacity=".75"><path d="M190.12 57.84c-1 9.76-9 20.21-17.51 24.54l-1.71-.5-3.37-1.22c-1.34-1.5-1.07-7.36-1.07-7.36v-16.98l.07-19.11c-5.25-1-9-2.69-9-4.68v-8.51c.4-2.44 11-5.2 24.23-4.62 9.51.41 17.48 3.66 17.64 6 0 1.35-.08 8.55-.08 8.55-1.48 1.42-4.85 2.66-9.17 3.47z" fill="#19181f"/><path d="M190.12 57.84c-1 9.76-9 20.21-17.51 24.54l-1.71-.5-3.37-1.22c-1.34-1.5-1.07-7.36-1.07-7.36v-16.98l.07-19.11c-5.25-1-9-2.69-9-4.68v-8.51c.4-2.44 11-5.2 24.23-4.62 9.51.41 17.48 3.66 17.64 6 0 1.35-.08 8.55-.08 8.55-1.48 1.42-4.85 2.66-9.17 3.47z" fill="url(#b)" opacity=".75"/></g><g opacity=".75" transform="translate(62.41 281.92) rotate(-72.07)"><ellipse cx="224.95" cy="98.07" rx="20.5" ry="15.11" fill="#19181f"/><ellipse cx="224.95" cy="98.07" rx="20.5" ry="15.11" fill="url(#e)"/></g><path d="M246 64.11l.32-.06h1l3.48 1.1.93.3.79.63.6.91.36 1.13.1 1.27-.16 1.33-.42 1.28-.65 1.18-.82 1-1 .71-1 .39h-.08zm-72.9 60.63v-.44l-3.38-9.14-3.34-1.33-2.33.54a6.57 6.57 0 0 0-4.2 4.83c-.47 2.19.21 4.54 2.34 5.51a25.47 25.47 0 0 0 4 1.5l1.13-.09 5.74-1.38m73-17.5l.66-.16 1-.41.95-.72.83-1 .63-1.17.42-1.29.16-1.31-.1-1.25-.37-1.11-.59-.88-.59-.45zm-75.16-25.36v.45a36.34 36.34 0 0 0-1.51 5.19 36.77 36.77 0 0 0-.74 5.4l-3.59.79-1.13.07c-1.22-.35-2.38-.8-3.56-1.25a4.2 4.2 0 0 1-2.45-1.92c-1.09-2-.54-4.71.7-6.5a6.06 6.06 0 0 1 3.11-2.22l5.81-1.23z" fill="#19181f" opacity=".75"/><g stroke="#dce2aa" stroke-linecap="round" stroke-linejoin="round" fill="none"><path d="M213.6 111.03l-.78-.26-1.23-.4-7.66-2.52M235.06 92.05l11.33 3.41-.82 1.28-.86 1.24-.9 1.2-.93 1.16-.96 1.12-1 1.07-1.03 1.03-1.06.97-1.09.92-1.11.87-1.13.81-1.16.76-1.17.7-1.19.63-1.21.58-1.22.52-1.22.45-1.24.39-1.25.32-1.24.26-1.25.19-1.25.12-1.24.06-1.24-.01-1.23-.08-1.22-.15-1.21-.21-1.19-.28-1.17-.35-1.16-.42-1.13-.48-1.11-.54-1.08-.62-1.06-.67-.67-.48-.02-.02-.33-.24-.99-.79-2.8-.91M211.37 107.45l-1.2.18-1.24.12-1.24.05h-.32M219.37 123.74l-.97-.33-.61-.21-1.76-.59-9.78-3.33-1.14-.4-1.12-.47-1.09-.52-1.07-.59-1.03-.66-1.01-.71-.98-.78-.94-.83-.06-.05M199.68 96.63l2.03.64.13 1.53.19 1.52.24 1.48.3 1.47.35 1.43.41 1.4.45 1.37.51 1.33.56 1.3.61 1.25.66 1.2.7 1.16.74 1.12.79 1.06.83 1 .87.96.91.9.95.84.88.7.1.08 1.01.72 1.04.66 1.07.59 1.1.54 1.12.46 1.14.4 1.16.34 1.18.27 1.2.2 1.2.13 1.22.07h1.23l1.23-.06 1.23-.14 1.23-.2 1.24-.26 1.23-.34-13.2-4.42-1.22.32-1.23.26-1.23.19-1.22.13-1.23.06h-.6M212.78 98.59l-.17.14-1.12.86-1.14.8-1.16.75-1.19.69-1.19.63-1.22.57-1.23.51-1.24.44-.35.11.15.61 12.09 3.94 1.26-.39 1.25-.45 1.24-.52 1.22-.58 1.21-.65 1.2-.7 1.17-.76 1.15-.82 1.13-.87 1.1-.93 1.07-.98 1.05-1.03 1.01-1.08.98-1.13.94-1.17.91-1.21.87-1.25.83-1.29.79-1.33.75-1.36.7-1.39.66-1.41.61-1.45.56-1.46.51-1.49.47-1.5.41-1.52.37-1.53.31-1.54.26-1.54.21-1.55.16-1.55.1-1.55.05-1.55-.01-1.54-.06-1.52-13.42-3.63.07 1.5v.45M214.94 87.15l-.25.81-.51 1.47-.56 1.45-.61 1.43-.66 1.41-.69 1.38-.75 1.34-.79 1.32 13.22 4.16.79-1.33.75-1.37.71-1.4.67-1.43.61-1.45.57-1.47.52-1.49.46-1.52.42-1.52.37-1.54.31-1.55.26-1.55.21-1.56.15-1.55.1-1.56.04-1.55-.01-1.54-.06-1.54-.12-1.52-.17-1.5-.23-1.48-.28-1.47-.33-1.44-.39-1.41-.44-1.38-.49-1.36-.54-1.31-.59-1.29-.64-1.23-.68-1.2-.74-1.16-.78-1.11-.82-1.06-.87-1.01-.9-.96-.95-.9-13.22-3.46-.12-.03.94.89.9.95.87.99.82 1.05.78 1.1.73 1.14.69 1.18.64 1.23.59 1.26.54 1.3.49 1.34.44 1.36.39 1.4.34 1.42.28 1.44.23 1.47.01.05M226.24 90.56l-13.26-4.01M181.5 59.13l13.16 3.7 1.31-.3 1.31-.22 1.31-.16 1.3-.08h.19l1.1-.02 1.28.06 1.27.12 1.26.19 1.24.26 1.22.33M211.84 79.39l.32 1.31.28 1.43.23 1.46.18 1.47.12 1.5M181.5 59.13l1.3-.29 1.3-.22 1.3-.15 1.29-.08 1.29-.01 1.27.05 1.27.13 1.25.19 1.23.26 1.21.33 9.66 2.68.62.17 1.24.35.64.17 1.08.3 1.2.4 1.17.46 1.15.53 1.12.59 1.09.65 1.05.72 1.02.78.99.83.95.89.91.94.87 1 .82 1.05.78 1.09.74 1.14.69 1.19.64 1.23.59 1.27.55 1.3.49 1.34.44 1.38.39 1.4.33 1.43.29 1.45.22 1.48.18 1.5.12 1.51M200.08 62.07l.89.59 1.01.76.99.83.94.88.91.93.87.99.82 1.03.78 1.08.74 1.13.68 1.18.64 1.21.6 1.25.54 1.29.08.22M201.85 84.88l2.79.85-.81 1.35-.77 1.39-.72 1.42-.68 1.45-.63 1.48-.58 1.5-.53 1.52-.47 1.54-.43 1.55-.36 1.57-.32 1.57-.26 1.58-.2 1.57-.15 1.58-.09 1.57-.04 1.57.03 1.55.07 1.54.14 1.52.19 1.5.24 1.48.3 1.45.36 1.43.4 1.39.46 1.36.51 1.32.57 1.28.6 1.24.66 1.19.71 1.15.75 1.1.79 1.05.83 1 .88.94.91.88.94.83-.15-.06-12.88-4.6-.94-.81-.91-.88-.87-.93-.83-.98-.79-1.04-.75-1.09-.7-1.13-.66-1.18-.61-1.23-.56-1.26-.51-1.31-.46-1.34-.32-1.05M206.39 75.37l.41.27 1 .75.98.8 13.26 3.89-.97-.82-1.01-.76-1.05-.7-1.07-.63-1.11-.58-1.13-.51-1.17-.45-1.18-.38-1.2-.32-1.23-.24-1.24-.18-1.26-.12-1.27-.04-.76.02-.52.01-1.28.09-1.3.17-1.29.23-1.3.31-1.29.37-1.28.44-1.28.5-1.27.58-1.26.63-1.24.71-1.22.76-1.2.83-1.19.89-1.15.94-1.13 1-1.1 1.06-1.06 1.11-1.03 1.16-1 1.2-.96 1.26-.92 1.29-.87 1.34-12.99-4.15.87-1.31.91-1.28.95-1.23.98-1.19 1.03-1.14 1.05-1.09 1.09-1.04 1.12-.98 1.14-.93 1.17-.87 1.2-.82 1.21-.75 1.23-.69 1.25-.62 1.26-.57 1.27-.49 1.27-.43 1.29-.36 1.28-.3 1.29-.23 1.28-.16 1.28-.09 1.27-.02 1.27.04 1.25.12 1.23.18 1.22.24 1.2.32 11.16 3.24.62.18.64.18.81.24M179.24 91.93l-.15.25-.77 1.37-.72 1.41-.67 1.44-.63 1.46-.57 1.49-.53 1.51-.47 1.52-.42 1.54-.36 1.55-.31 1.56-.25 1.56-.2 1.56-.13 1.56-.09 1.56-.02 1.55.03 1.53.08 1.53 12.94 4.55-.09-1.55-.02-1.56.03-1.57.09-1.58.14-1.58.21-1.58.25-1.59.32-1.58.37-1.57.42-1.56.48-1.55.53-1.53.58-1.51.64-1.48.68-1.46.73-1.43.77-1.4.83-1.37.86-1.32.91-1.29.94-1.24.98-1.2 1.02-1.15 1.05-1.1 1.08-1.05 1.11-.99 1.14-.94 1.17-.88 1.18-.82 1.2-.76 1.23-.7 1.23-.63 1.25-.57 1.26-.51 1.27-.43 1.27-.37-10.89-3.2"/><path d="M246.39 95.46a43 43 0 0 1-4.68 6.23 38.13 38.13 0 0 1-5.61 5 27.21 27.21 0 0 1-14.2 5.36 22.35 22.35 0 0 1-8.66-1.16m-.7-.25a22 22 0 0 0 7.59 1.23 24.46 24.46 0 0 0 7.72-1.42 31.67 31.67 0 0 0 12.54-8.35c1-1 1.92-2.13 2.8-3.26s1.7-2.38 2.49-3.61m-33.47 15.27a8.64 8.64 0 0 0 1.81.56c.63.15 1.27.27 1.91.36a21.11 21.11 0 0 0 3.89.21 24.2 24.2 0 0 0 7.43-1.45 32.44 32.44 0 0 0 12.46-8.32c1-1 1.9-2.12 2.77-3.23a43.59 43.59 0 0 0 2.52-3.63m-39.61 11.51a26.34 26.34 0 0 0 3.6 2.51 15.85 15.85 0 0 0 4.09 1.72 23.5 23.5 0 0 0 4.58.64 24.25 24.25 0 0 0 4.66-.33 26.63 26.63 0 0 0 8.42-3 32.3 32.3 0 0 0 7.18-5.32 45.29 45.29 0 0 0 6.38-8m-32.39 15.55a7.9 7.9 0 0 0 1.72.44c.6.11 1.21.21 1.82.27a22.38 22.38 0 0 0 3.84.06 26.07 26.07 0 0 0 7.29-1.65 32 32 0 0 0 12-8.33 46.25 46.25 0 0 0 5-6.56m-32 15.62a7.88 7.88 0 0 0 1.72.43 16.34 16.34 0 0 0 1.83.23 23.73 23.73 0 0 0 3.77 0 26.25 26.25 0 0 0 7.1-1.59 32.52 32.52 0 0 0 11.86-8.28 45.23 45.23 0 0 0 5-6.53m-31.65 15.68a5.19 5.19 0 0 0 1.65.41c.6.08 1.21.15 1.82.19a22.73 22.73 0 0 0 3.69 0 26.26 26.26 0 0 0 7.14-1.74 33.07 33.07 0 0 0 11.72-8.26 44.76 44.76 0 0 0 4.92-6.46m-31.27 15.73a4.92 4.92 0 0 0 1.61.38c.59.07 1.19.13 1.78.17a22.12 22.12 0 0 0 3.73-.08 24.42 24.42 0 0 0 7-1.8 32.59 32.59 0 0 0 6.26-3.51 36.9 36.9 0 0 0 5.29-4.7 44.39 44.39 0 0 0 4.86-6.4m-35.37 12.8a23.74 23.74 0 0 0 3.24 2.3 7.45 7.45 0 0 0 1.71.87 10 10 0 0 0 2 .26 25.23 25.23 0 0 0 8.34-.82 31.28 31.28 0 0 0 13.72-8.41 41.88 41.88 0 0 0 5.67-7.25m-30.19 16a24.32 24.32 0 0 0 13.79-1.92 33.11 33.11 0 0 0 11-8.06 41.86 41.86 0 0 0 4.7-6.23m-29.81 16a32.93 32.93 0 0 0 3.57.24 23 23 0 0 0 3.61-.33 26.62 26.62 0 0 0 6.52-2 34.17 34.17 0 0 0 10.81-8 41.48 41.48 0 0 0 4.6-6.12m-29.44 16.07a24.36 24.36 0 0 0 13.64-2.28 34.67 34.67 0 0 0 10.59-8 43.18 43.18 0 0 0 4.5-6m-29.05 16.1a24.15 24.15 0 0 0 13.37-2.38 30.69 30.69 0 0 0 5.61-3.44 39.87 39.87 0 0 0 4.83-4.4 43.93 43.93 0 0 0 4.54-6m-28.68 16a18.09 18.09 0 0 0 3.45.07 21.4 21.4 0 0 0 3.47-.45 27.68 27.68 0 0 0 6.24-2.12 34.2 34.2 0 0 0 10.37-7.89 45.18 45.18 0 0 0 4.45-6m-21.21 15.71a27.45 27.45 0 0 0 9.41-4.14 34.18 34.18 0 0 0 7.63-6.92 50 50 0 0 0 3.43-4.77m-14.87 13.32c1.13-.6 2.24-1.23 3.31-1.94a37.71 37.71 0 0 0 3.09-2.37 36 36 0 0 0 5.33-5.63c.89-1.16 1.7-2.37 2.48-3.59m-1.9 1.63c.41-.61.81-1.22 1.21-1.84m-30.47 14.24a28.57 28.57 0 0 0 3.53 2.46 23.73 23.73 0 0 0 4 1.8m-8.18-4.49a29 29 0 0 0 3.51 2.45 25.18 25.18 0 0 0 4 1.81m-8.24-4.48a27.2 27.2 0 0 0 3.49 2.43 24.94 24.94 0 0 0 4.05 1.82m-7.41-3.82a22.87 22.87 0 0 0 6.71 3.59m-6.58-3.21a23.15 23.15 0 0 0 5.89 3m-5.8-2.67a24.14 24.14 0 0 0 5.1 2.44m-5-2.18c.69.39 1.39.76 2.11 1.1s1.46.59 2.2.86m-4.25-1.76a22 22 0 0 0 3.56 1.53m-3.5-1.38a25.47 25.47 0 0 0 2.81 1.15m-2.76-1c.68.29 1.37.55 2.07.81m3 .33a27.55 27.55 0 0 0 5.88-.28m-6.2.08a26.16 26.16 0 0 0 5.52-.3m-5.83.1a23.94 23.94 0 0 0 5.14-.33m-5.46.12a29.2 29.2 0 0 0 4.77-.34m-5.07.12a27.92 27.92 0 0 0 4.38-.35m-4.68.13a25.62 25.62 0 0 0 4-.35m-9.66-10.18a39.14 39.14 0 0 0 1.79 9.35 32.23 32.23 0 0 0 4 8.13 24.08 24.08 0 0 0 6.27 6.26c.62.41 1.26.8 1.91 1.16a16.27 16.27 0 0 0 2.1 1 25.92 25.92 0 0 0 4.4 1.24 22.07 22.07 0 0 0 5.26.27 27.75 27.75 0 0 0 5.27-1m-13.92-.21a22.86 22.86 0 0 0 5.12.93 24.6 24.6 0 0 0 5.21-.29 26.78 26.78 0 0 0 2.89-.66m-13.79-.18a23 23 0 0 0 5 .9 24.48 24.48 0 0 0 5.2-.3 25.9 25.9 0 0 0 2.87-.66m-30.33-26.21a41.24 41.24 0 0 0 1.68 9 31.18 31.18 0 0 0 3.89 8.1 25 25 0 0 0 6 6.21 22.09 22.09 0 0 0 3.69 2.18 17.09 17.09 0 0 0 4.21 1.22 21.5 21.5 0 0 0 5.13.19 26.15 26.15 0 0 0 5-.92m-13 .06a19.36 19.36 0 0 0 6 .69 26.37 26.37 0 0 0 6.24-1m-12.64.13a23 23 0 0 0 6 .61 27.1 27.1 0 0 0 5.93-1m-12.28.21a22.15 22.15 0 0 0 5.8.51 26.45 26.45 0 0 0 5.78-1m-11.89.3a20.64 20.64 0 0 0 5.6.42 26.47 26.47 0 0 0 5.59-1m-11.52.37a25 25 0 0 0 5.46.35 27.23 27.23 0 0 0 5.37-1m-11.19.42a23.44 23.44 0 0 0 5.29.29 26.3 26.3 0 0 0 5.2-1m-10.79.49a21.67 21.67 0 0 0 5.09.2 26.77 26.77 0 0 0 5-.92m-10.41.54a25.38 25.38 0 0 0 4.93.12 26.84 26.84 0 0 0 4.78-.89m-10.07.58a23.87 23.87 0 0 0 4.78.06 27.84 27.84 0 0 0 4.6-.87m-9.68.62a24.18 24.18 0 0 0 9-.86m-9.29.67a23.83 23.83 0 0 0 8.6-.9m-8.94.69a26.1 26.1 0 0 0 8.25-.92m-8.56.71a25.2 25.2 0 0 0 7.87-.94m-8.16.73a23.93 23.93 0 0 0 7.47-1m-7.79.73a27.51 27.51 0 0 0 7.11-1m-7.42.73a25.92 25.92 0 0 0 6.73-1m-19.21-22.5a37 37 0 0 0 3.43 13.39 27.61 27.61 0 0 0 3.53 5.57 25.5 25.5 0 0 0 4.61 4.38 20.39 20.39 0 0 0 3.2 1.92c1.17.55 2.38 1 3.59 1.42m-19-26.72a37.11 37.11 0 0 0 3.41 13.46 26.45 26.45 0 0 0 8 9.89 21.9 21.9 0 0 0 3 1.87 27 27 0 0 0 3.34 1.39m-18.21-24.48a35.73 35.73 0 0 0 3.66 12.1 25.43 25.43 0 0 0 7.74 9.08 24.08 24.08 0 0 0 6.05 3.06m-17.86-22.55a34.79 34.79 0 0 0 3.91 11.15 25.45 25.45 0 0 0 7.56 8.36 22.48 22.48 0 0 0 5.69 2.8m-17.5-20.69a33 33 0 0 0 1.67 5.39 30.26 30.26 0 0 0 2.46 4.85 23.1 23.1 0 0 0 12.68 10.22m-17.06-18.95a32.59 32.59 0 0 0 4.25 9.36 24.32 24.32 0 0 0 7 6.93 25.42 25.42 0 0 0 5.11 2.42m-16.55-17.3a29.51 29.51 0 0 0 4.32 8.52 28.81 28.81 0 0 0 3.1 3.52 22.54 22.54 0 0 0 8.44 5m-16-15.75a26.61 26.61 0 0 0 10.83 13.49 24.69 24.69 0 0 0 4.48 2m-15.41-14.3a28.84 28.84 0 0 0 4.35 7 22 22 0 0 0 6.14 5.18 28.07 28.07 0 0 0 4.23 1.88m-14.78-13a25.15 25.15 0 0 0 10.14 11 23.89 23.89 0 0 0 3.95 1.73m-14.11-11.7a26.37 26.37 0 0 0 4.13 5.61 24.45 24.45 0 0 0 5.59 4.27 22.79 22.79 0 0 0 3.7 1.59m-13.43-10.55a24.23 24.23 0 0 0 9.23 8.83 24.6 24.6 0 0 0 3.51 1.48m-12.73-9.47a24.19 24.19 0 0 0 3.9 4.49 22.15 22.15 0 0 0 4.84 3.38 30.59 30.59 0 0 0 3.3 1.37m-12-8.48a23.55 23.55 0 0 0 8.33 7 27 27 0 0 0 3 1.23m-11.3-7.58a22.69 22.69 0 0 0 10.6 7.48m-10.57-6.73a22.71 22.71 0 0 0 9.89 6.5m-9.84-5.95a25.49 25.49 0 0 0 4.17 3.38 23.65 23.65 0 0 0 5 2.34m-9.12-5.24a15.34 15.34 0 0 0 1.85 1.55 21.32 21.32 0 0 0 2.09 1.42 23.7 23.7 0 0 0 4.5 2m8.74-10.63a29.82 29.82 0 0 0 9.25-4.56 36.92 36.92 0 0 0 7.4-7.08 46 46 0 0 0 8.84-18.93 44.88 44.88 0 0 0 1-10.71l-.06-1.32m-27.14 42.36a32.29 32.29 0 0 0 4.87-1.89 33.74 33.74 0 0 0 4.39-2.66 37.46 37.46 0 0 0 7.45-7.06 44.18 44.18 0 0 0 5.39-8.79 45 45 0 0 0 3.39-10.1 44.19 44.19 0 0 0 1-10.7v-1.32m-27.13 42.33a31.26 31.26 0 0 0 4.87-1.89 33.56 33.56 0 0 0 4.38-2.65 37.14 37.14 0 0 0 7.38-7.06 44.18 44.18 0 0 0 5.44-8.82 46.41 46.41 0 0 0 4.35-20.79v-1.32m-27.16 42.32a29.46 29.46 0 0 0 9.25-4.54 36.56 36.56 0 0 0 7.42-7.12 43.49 43.49 0 0 0 5.42-8.8 46.36 46.36 0 0 0 4.36-20.7c0-.44 0-.88-.05-1.32m-15.76 36.1a41 41 0 0 0 9.66-12.11 43.91 43.91 0 0 0 3.13-7.33 46.69 46.69 0 0 0 1.83-7.75c.21-1.51.36-3 .45-4.54v-4.57m-14 34.56a43.27 43.27 0 0 0 4.83-5.56 44.59 44.59 0 0 0 3.8-6.33 46.23 46.23 0 0 0 4.7-22.86m-12.3 32.77a42.29 42.29 0 0 0 7.53-11.46 47.14 47.14 0 0 0 3.8-13.57 47.73 47.73 0 0 0 .26-7.93m-10.69 30.76a44.26 44.26 0 0 0 6.45-10.86 45.11 45.11 0 0 0 3.27-12.6 52.73 52.73 0 0 0 .21-7.54m-9 28.63a46.15 46.15 0 0 0 5.45-10.33 47.09 47.09 0 0 0 2.68-11.64 48.62 48.62 0 0 0 .15-6.83m-7.44 26.3a48 48 0 0 0 4.48-9.67 46.74 46.74 0 0 0 2.2-10.63 49.64 49.64 0 0 0 .09-6.22m-6 23.81c.39-.67.7-1.38 1-2.07s.68-1.49 1-2.24a40.36 40.36 0 0 0 1.56-4.53 47.66 47.66 0 0 0 1.71-9.63 53.67 53.67 0 0 0 0-5.53m-4.75 21.18a46.4 46.4 0 0 0 4-16.54c.1-1.61 0-3.22 0-4.83m-3.61 18.49a45 45 0 0 0 2-7.1 43.65 43.65 0 0 0 1-7.32v-4.21m-2.69 15.78a46.43 46.43 0 0 0 2-12.31c0-1.22 0-2.44-.05-3.66m-1.95 13.13a46.44 46.44 0 0 0 1.32-10.3c0-1 0-2-.07-3m-1.43 10.57a34.22 34.22 0 0 0 .67-5.33 49.54 49.54 0 0 0 0-5.45m-1 8.13a48.19 48.19 0 0 0 .32-8.32m-.77 5.84a57.77 57.77 0 0 0 .07-6m-.65 3.71c0-1.3 0-2.6-.05-3.9m-.63 1.77c0-.65 0-1.3-.07-2m-15.81 45.31a31.25 31.25 0 0 0 11-5.86m-11.66 5.63a30.74 30.74 0 0 0 11-5.85m-11.66 5.62a31.12 31.12 0 0 0 11-5.84m-11.65 5.62a31.07 31.07 0 0 0 11-5.84m-11.65 5.61a31 31 0 0 0 11-5.83m-11.65 5.61a30.73 30.73 0 0 0 10.95-5.83m-11.64 5.6a31.07 31.07 0 0 0 10.75-5.85m-11.63 5.6a31.23 31.23 0 0 0 10.94-5.82m-11.63 5.59a31 31 0 0 0 10.93-5.81m-11.61 5.59a31.06 31.06 0 0 0 10.93-5.8m-11.62 5.58a31.14 31.14 0 0 0 10.93-5.8m-11.61 5.57a31.16 31.16 0 0 0 10.92-5.79m-11.63 5.54a31.41 31.41 0 0 0 10.92-5.79m-11.61 5.57a30.56 30.56 0 0 0 10.92-5.78m-11.28 5.46a30.77 30.77 0 0 0 10.59-5.68m-10.69 5.28a28 28 0 0 0 5.27-2.28 28.79 28.79 0 0 0 4.73-3.22m10.57 3.33a51.33 51.33 0 0 0 2.47-4.56q1.11-2.4 2-4.91a45.48 45.48 0 0 0 2-21 36.86 36.86 0 0 0-2.94-10 29.35 29.35 0 0 0-5.69-8.29c-.31-.31-.63-.6-.95-.9m2.38 49.49a48.88 48.88 0 0 0 2.47-4.56q1.11-2.4 2-4.91a44.1 44.1 0 0 0 2.27-10.41 43.4 43.4 0 0 0-.23-10.62 36.55 36.55 0 0 0-2.94-10 29.41 29.41 0 0 0-5.7-8.31c-.3-.3-.63-.6-.94-.9m2.39 49.46a51.27 51.27 0 0 0 2.46-4.55c.74-1.59 1.39-3.21 2-4.86a44.13 44.13 0 0 0 2.27-10.4 42.58 42.58 0 0 0-.25-10.66 36.35 36.35 0 0 0-3-10.05 29 29 0 0 0-5.67-8.24c-.31-.31-.63-.6-.94-.9m7.38 38.3a44.24 44.24 0 0 0 1.65-8 40.83 40.83 0 0 0 .17-8.27 41.65 41.65 0 0 0-1.43-8.06 31.85 31.85 0 0 0-3-7.25 28.72 28.72 0 0 0-2.45-3.65 32.27 32.27 0 0 0-3-3.21m7.88 36.43a44.17 44.17 0 0 0 1.3-7.75 43 43 0 0 0-.08-7.94 35.94 35.94 0 0 0-4.57-14.41 28.22 28.22 0 0 0-2.37-3.46 30.74 30.74 0 0 0-2.87-3.06m8.31 34.64a51.56 51.56 0 0 0 1-7.43 41.7 41.7 0 0 0-.3-7.49 35.24 35.24 0 0 0-4.68-13.8 28.31 28.31 0 0 0-5-6.11m8.64 33a43.63 43.63 0 0 0 .2-14.24 34.77 34.77 0 0 0-4.72-13.08 32.77 32.77 0 0 0-2.19-3.06 31.18 31.18 0 0 0-2.67-2.82m8.89 31.35a43.88 43.88 0 0 0-.25-13.82 33.63 33.63 0 0 0-4.74-12.22 31.16 31.16 0 0 0-2.1-2.88 32.53 32.53 0 0 0-2.51-2.61m9.08 29.82a44 44 0 0 0-.59-13.11 34 34 0 0 0-4.78-11.62 29.26 29.26 0 0 0-4.45-5.23m9.21 28.41a42 42 0 0 0-.93-12.6 36.31 36.31 0 0 0-1.83-5.81 33.65 33.65 0 0 0-2.81-5.22 28.59 28.59 0 0 0-4.31-5m9.3 27.11a41.52 41.52 0 0 0-1.16-12 32 32 0 0 0-4.69-10.57 30 30 0 0 0-4.15-4.77m9.33 25.9a38.42 38.42 0 0 0-1.38-11.44 32.29 32.29 0 0 0-4.62-10 32.71 32.71 0 0 0-4-4.61m9.31 24.83a41.51 41.51 0 0 0-1.58-11 31.16 31.16 0 0 0-4.59-9.56 30.48 30.48 0 0 0-3.87-4.44m9.33 23.78a40.48 40.48 0 0 0-1.73-10.54 32.93 32.93 0 0 0-4.52-9.17 29.38 29.38 0 0 0-3.78-4.25m9.29 22.85a38.14 38.14 0 0 0-1.85-10.11 33 33 0 0 0-4.45-8.81 28.82 28.82 0 0 0-3.69-4.12m9.24 22a40.47 40.47 0 0 0-2-9.74 31.14 31.14 0 0 0-4.42-8.5 29 29 0 0 0-3.57-4m9.19 21.24a34.11 34.11 0 0 0-6.41-17.6 29.91 29.91 0 0 0-3.41-3.77m9.12 20.55a34.57 34.57 0 0 0-6.42-17 31.42 31.42 0 0 0-3.4-3.71m9.04 19.9a37.94 37.94 0 0 0-2.18-8.85 28.1 28.1 0 0 0-4.24-7.65 34.5 34.5 0 0 0-3.32-3.62m13.63 52.35a49.12 49.12 0 0 0 2.77-5.15 47.93 47.93 0 0 0 2.11-5.57m-5.59 10.49a51.89 51.89 0 0 0 2.78-5.2 47.84 47.84 0 0 0 2.08-5.53m-5.56 10.51a51.89 51.89 0 0 0 2.78-5.2 47.69 47.69 0 0 0 2.08-5.52m-5.56 10.5a50.82 50.82 0 0 0 2.78-5.2 46.86 46.86 0 0 0 2.1-5.48m-5.56 10.49a49.08 49.08 0 0 0 2.78-5.21 46.71 46.71 0 0 0 2.08-5.5m-5.55 10.49a50.89 50.89 0 0 0 2.77-5.21 47.24 47.24 0 0 0 2.08-5.49m-5.6 10.48a51.89 51.89 0 0 0 2.78-5.2 49.07 49.07 0 0 0 2.07-5.49m-5.54 10.48a52.94 52.94 0 0 0 2.77-5.21 48.18 48.18 0 0 0 2.1-5.51m-5.54 10.5a51 51 0 0 0 2.75-5.16 47.07 47.07 0 0 0 2.09-5.52m-5.48 10.46a52 52 0 0 0 2.75-5.15 47.69 47.69 0 0 0 2.08-5.52m-5.52 10.45a54 54 0 0 0 2.69-5.15 46.86 46.86 0 0 0 2.08-5.51m-5.53 10.44a50.72 50.72 0 0 0 2.75-5.14 46.86 46.86 0 0 0 2.08-5.51m-5.52 10.43a48.67 48.67 0 0 0 2.75-5.14 46.06 46.06 0 0 0 2.09-5.48m-5.52 10.43a50.72 50.72 0 0 0 2.75-5.14 46.71 46.71 0 0 0 2.08-5.5m-5.51 10.4a49.59 49.59 0 0 0 2.74-5.14 45.91 45.91 0 0 0 2.08-5.49m-5.51 10.44a51.51 51.51 0 0 0 2.75-5.13 48.18 48.18 0 0 0 2.07-5.48m-5.51 10.4a50.57 50.57 0 0 0 2.75-5.13 48.18 48.18 0 0 0 2.07-5.48m1.65-18.86a31 31 0 0 0-.85-4.35 35 35 0 0 0-1.36-4.21 29.5 29.5 0 0 0-4.23-7.5 33.6 33.6 0 0 0-3.24-3.51m16.51 41a46.2 46.2 0 0 0-1.52-8.75m.81 8.45a46.18 46.18 0 0 0-1.51-8.66m.81 8.45a46.18 46.18 0 0 0-1.51-8.66m.81 8.45a46.1 46.1 0 0 0-1.52-8.65m.82 8.44a46.1 46.1 0 0 0-1.52-8.65m.82 8.44a45.85 45.85 0 0 0-1.52-8.61m.82 8.43a46.14 46.14 0 0 0-1.52-8.64m.82 8.43a45.87 45.87 0 0 0-1.51-8.62m.82 8.42a45.65 45.65 0 0 0-1.52-8.62m.82 8.41a45 45 0 0 0-1.52-8.62m.83 8.41a45.55 45.55 0 0 0-1.52-8.6m.83 8.4a44.82 44.82 0 0 0-1.53-8.6m.84 8.39a46.42 46.42 0 0 0-1.53-8.6m5.83.45a30.75 30.75 0 0 0-2.69-5.86 26.64 26.64 0 0 0-3.76-5 25.21 25.21 0 0 0-4.75-3.93 22.51 22.51 0 0 0-2.86-1.54 4.8 4.8 0 0 0-1.53-.44c-.55-.07-1.11-.12-1.66-.15a26.62 26.62 0 0 0-7.44.74m27.21 18.11a33.7 33.7 0 0 0-2.87-6.78 30.64 30.64 0 0 0-4.33-5.8 22.9 22.9 0 0 0-5.54-4.25 19.08 19.08 0 0 0-3.35-1.53 17.66 17.66 0 0 0-3.54-.65 25.73 25.73 0 0 0-8.29.67m19 23.92a48.29 48.29 0 0 0-1.14-7.16m13.69 11a41.49 41.49 0 0 0-.62-5 39.58 39.58 0 0 0-1.23-4.79 31 31 0 0 0-4.24-8.45 27.51 27.51 0 0 0-3-3.49 25.8 25.8 0 0 0-3.64-3 21.22 21.22 0 0 0-4.05-2.15 31 31 0 0 0-4.64-1.4 21.16 21.16 0 0 0-5.44-.47 28.5 28.5 0 0 0-5.44.75m12.07 0a25.37 25.37 0 0 0-6.3-1 28.14 28.14 0 0 0-6.47.78m12.07 0a24.9 24.9 0 0 0-6.3-1 28.2 28.2 0 0 0-6.47.77m12.07 0a25 25 0 0 0-6.31-1 27.62 27.62 0 0 0-6.46.76m12.07 0a25 25 0 0 0-6.3-1 28.2 28.2 0 0 0-6.47.77m12.07 0a25.43 25.43 0 0 0-6.3-1 28 28 0 0 0-6.46.76m12.06 0a25.29 25.29 0 0 0-6.35-1 27.75 27.75 0 0 0-6.41.77m12.06 0a24.76 24.76 0 0 0-6.34-1 28.23 28.23 0 0 0-6.41.76m12.05 0a24.7 24.7 0 0 0-6.34-1 27.59 27.59 0 0 0-6.4.76m12.05 0a25.28 25.28 0 0 0-6.34-1 28.07 28.07 0 0 0-6.4.76m12 0a25.13 25.13 0 0 0-6.33-1 28.07 28.07 0 0 0-6.4.76m12 0a25.13 25.13 0 0 0-6.33-1 28.06 28.06 0 0 0-6.4.75m12 0a24.76 24.76 0 0 0-6.34-1 27.49 27.49 0 0 0-6.39.75m12 0a24.78 24.78 0 0 0-6.34-1 28.05 28.05 0 0 0-6.39.76m12 0a25.21 25.21 0 0 0-6.34-1 28.68 28.68 0 0 0-6.39.75m12 0a25.51 25.51 0 0 0-6.31-1 28.22 28.22 0 0 0-6.41.75m12 0a25.21 25.21 0 0 0-6.34-1 27.87 27.87 0 0 0-6.37.75m12 0a25.13 25.13 0 0 0-6.33-1 28 28 0 0 0-6.38.75m39.85 21.91a30.9 30.9 0 0 0-4.32-8.77 27.65 27.65 0 0 0-3-3.56 25.72 25.72 0 0 0-3.68-3 24.5 24.5 0 0 0-4.76-2.42m10.24 14.54a27.83 27.83 0 0 0-9.08-12.53 26.62 26.62 0 0 0-3.72-2.33m22.15 28a38.4 38.4 0 0 0-3.43-13.65 29.2 29.2 0 0 0-3.54-5.68 26.82 26.82 0 0 0-4.67-4.55 23.48 23.48 0 0 0-7-3.57m4.36 12.76a28.59 28.59 0 0 0-7.43-11 24 24 0 0 0-3.07-2.35m17.66 16a28.48 28.48 0 0 0-9.85-13.47 25.28 25.28 0 0 0-4.14-2.36m8.93 13.73a28.3 28.3 0 0 0-8.2-11.71 27.21 27.21 0 0 0-3.26-2.28m13.56 14.66a28.49 28.49 0 0 0-3.64-6.82 25.51 25.51 0 0 0-5.23-5.5 25.87 25.87 0 0 0-3.58-2.29m21.82 27.82a38 38 0 0 0-3.42-13.63 27.7 27.7 0 0 0-8.22-10.24 23.22 23.22 0 0 0-6.58-3.44m8.45 24.43a44.83 44.83 0 0 0-1.52-8.59m4.14-.72a28.51 28.51 0 0 0-9.56-13.1 21.86 21.86 0 0 0-4-2.36m8.59 13.61a30.16 30.16 0 0 0-3.34-6.36 25.73 25.73 0 0 0-4.66-5.14 24.36 24.36 0 0 0-3.16-2.28m13.16 14.41a28 28 0 0 0-8.56-12 23.07 23.07 0 0 0-3.54-2.34m11.72 24.68a39.28 39.28 0 0 0-1.23-7.54m3.79-1.91a28.46 28.46 0 0 0-9.35-12.83 21.28 21.28 0 0 0-3.82-2.32m8.22 13.48a31.22 31.22 0 0 0-3.22-6.17 25.11 25.11 0 0 0-4.43-5.06 22.72 22.72 0 0 0-3.16-2.35m18.08 16.46a32.73 32.73 0 0 0-4-7.81 24.53 24.53 0 0 0-6.07-6c-.67-.45-1.35-.88-2-1.27a15.33 15.33 0 0 0-2.22-1.11m9.19 13.95a28.72 28.72 0 0 0-3.51-6.61 30.76 30.76 0 0 0-2.27-2.82 29.23 29.23 0 0 0-2.64-2.46 20.73 20.73 0 0 0-3.34-2.28m24.66 28.49a46.93 46.93 0 0 0-1.1-7.19 33.94 33.94 0 0 0-2.39-6.64 28.87 28.87 0 0 0-3.81-6 23.79 23.79 0 0 0-12.11-7.92m-.09 0a7.42 7.42 0 0 0-1.91-.42m15.33 17.18a30.79 30.79 0 0 0-4.42-8.66 26.28 26.28 0 0 0-6.64-6.37 18.47 18.47 0 0 0-2.24-1.31 8.62 8.62 0 0 0-2.43-1m.15 23.38a47.22 47.22 0 0 0-2.5 4.58 52 52 0 0 0-2 4.83 44.73 44.73 0 0 0-2.11 21.14 34 34 0 0 0 3 10 27.36 27.36 0 0 0 5.9 8.08l.95.83m-4-49.62a47.22 47.22 0 0 0-2.5 4.58 48.56 48.56 0 0 0-2 4.91 44.74 44.74 0 0 0-2.07 21.08 34 34 0 0 0 3 9.9 27 27 0 0 0 5.91 8.07c.31.29.63.55.95.83m-4-49.59a48.43 48.43 0 0 0-2.5 4.58 51 51 0 0 0-2 4.86 44.9 44.9 0 0 0-2.3 10.3 44 44 0 0 0 .21 10.76 33.74 33.74 0 0 0 3 9.91 27 27 0 0 0 5.92 8.1c.31.29.64.56 1 .83m-4-49.55a48.27 48.27 0 0 0-2.5 4.57 51 51 0 0 0-2 4.86 44.43 44.43 0 0 0-2.08 21 33.62 33.62 0 0 0 3 9.89 27 27 0 0 0 5.92 8.11c.31.28.64.55 1 .82m-4-49.51a48.3 48.3 0 0 0-2.48 4.52c-.74 1.6-1.42 3.23-2 4.9a44.69 44.69 0 0 0-2.08 21 33.84 33.84 0 0 0 3 9.89 26.91 26.91 0 0 0 5.92 8.1l.95.83m-5-47.84a48.68 48.68 0 0 0-4 9.2 47.19 47.19 0 0 0-1.93 10.06 38.75 38.75 0 0 0 .46 10.26 34.32 34.32 0 0 0 3.08 9.55 26.83 26.83 0 0 0 5.76 7.73c.29.27.6.53.91.79m-6-46a46.59 46.59 0 0 0-5 18.77 37.26 37.26 0 0 0 3.88 19 25.63 25.63 0 0 0 2.84 4.33 28.05 28.05 0 0 0 3.57 3.66m-7-43.9a32.33 32.33 0 0 0-1.63 4.16 45.77 45.77 0 0 0-1.26 4.44 45 45 0 0 0-1.16 9.32 36.15 36.15 0 0 0 4.11 18.08 27.87 27.87 0 0 0 2.71 4.09 28.87 28.87 0 0 0 3.51 3.57m-7.89-41.67a45.68 45.68 0 0 0-3.13 17.41 35.52 35.52 0 0 0 4.3 16.7 30.21 30.21 0 0 0 2.69 4 25.86 25.86 0 0 0 3.34 3.36m-8.75-39.25a45.18 45.18 0 0 0-2.2 16.52 35.07 35.07 0 0 0 4.58 15.57 26.3 26.3 0 0 0 2.59 3.69 26.78 26.78 0 0 0 3.2 3.19m-9.49-36.74a43.77 43.77 0 0 0-1.34 15.66 33.65 33.65 0 0 0 4.74 14.58 25.69 25.69 0 0 0 2.41 3.29 27.86 27.86 0 0 0 3 3m-10.12-34.09a44.35 44.35 0 0 0-.53 14.58 33.58 33.58 0 0 0 4.81 13.43 26.27 26.27 0 0 0 5.14 5.84m-10.57-31.43a42.69 42.69 0 0 0 .23 13.73 32.88 32.88 0 0 0 1.88 6.45 28.94 28.94 0 0 0 3 5.69 30.39 30.39 0 0 0 2.17 2.77 26.68 26.68 0 0 0 2.6 2.5m-10.86-28.67a40.41 40.41 0 0 0 .86 12.64 31.6 31.6 0 0 0 4.85 11 27 27 0 0 0 4.48 4.84m-11-26a39.36 39.36 0 0 0 1.38 11.43 30.27 30.27 0 0 0 4.78 10 27.69 27.69 0 0 0 4.17 4.42m-11-23.48a39.6 39.6 0 0 0 1.82 10.35 30 30 0 0 0 4.63 8.86 27.24 27.24 0 0 0 3.87 4m-10.82-21a32.28 32.28 0 0 0 6.62 17.19 27 27 0 0 0 3.52 3.57m-10.52-18.67a31.31 31.31 0 0 0 6.56 15.09 29.52 29.52 0 0 0 3.26 3.26m-10.1-16.5a30.45 30.45 0 0 0 6.43 13.31 26 26 0 0 0 3 2.95m-9.59-14.48a30.28 30.28 0 0 0 6.2 11.62 26.86 26.86 0 0 0 2.72 2.61m27.08-49.4a27.7 27.7 0 0 0-3.8-2.73 21.88 21.88 0 0 0-4.34-1.92 22.19 22.19 0 0 0-9.68-.91 27.38 27.38 0 0 0-9.16 2.81 35.78 35.78 0 0 0-7.87 5.5 44.13 44.13 0 0 0-6.94 8.42m40.38-11.59a29.4 29.4 0 0 0-3.88-2.77 17.49 17.49 0 0 0-4.31-1.89 24.07 24.07 0 0 0-4.76-.82 24.77 24.77 0 0 0-4.87.23 28 28 0 0 0-8.9 3 32.56 32.56 0 0 0-7.56 5.42 44.1 44.1 0 0 0-3.61 3.88 49.61 49.61 0 0 0-3.14 4.29m32.38-16.19a24.47 24.47 0 0 0-7.71-.86 26.59 26.59 0 0 0-7.58 1.62 33.79 33.79 0 0 0-12.51 8.45 46 46 0 0 0-5.28 6.76m32.38-16.18a24.77 24.77 0 0 0-15.36.79 33.74 33.74 0 0 0-12.42 8.4 46.17 46.17 0 0 0-5.29 6.77m32.36-16.16a23.83 23.83 0 0 0-7.79-.85 26.48 26.48 0 0 0-7.56 1.63 33.68 33.68 0 0 0-12.41 8.39 46.17 46.17 0 0 0-5.29 6.77m32.35-16.14a28.63 28.63 0 0 0-3.88-.77 23.22 23.22 0 0 0-3.91-.09 26.49 26.49 0 0 0-7.56 1.66 33.73 33.73 0 0 0-12.41 8.38 46.16 46.16 0 0 0-5.28 6.76m32.34-16.14a32 32 0 0 0-3.88-.76 23.22 23.22 0 0 0-3.91-.09 26.41 26.41 0 0 0-7.55 1.63 33.83 33.83 0 0 0-12.41 8.37 46 46 0 0 0-5.27 6.76m32.32-16.11a24.23 24.23 0 0 0-7.81-.85 26.39 26.39 0 0 0-7.49 1.61 33.75 33.75 0 0 0-12.49 8.44 46.33 46.33 0 0 0-5.22 6.7m32.31-16.09a24.48 24.48 0 0 0-15.29.76 33.6 33.6 0 0 0-12.44 8.43 46.4 46.4 0 0 0-5.22 6.69m32.22-16.07a23.06 23.06 0 0 0-7.79-.86 26.59 26.59 0 0 0-7.54 1.62 33.83 33.83 0 0 0-12.41 8.37 46 46 0 0 0-5.25 6.72m32.29-16.06a24.61 24.61 0 0 0-7.78-.85 26.94 26.94 0 0 0-7.52 1.64 33.55 33.55 0 0 0-12.43 8.39 45.62 45.62 0 0 0-5.23 6.69m32.27-16a27.76 27.76 0 0 0-3.82-.76 22.79 22.79 0 0 0-4-.09 26.25 26.25 0 0 0-7.52 1.61 33.58 33.58 0 0 0-12.43 8.37 47 47 0 0 0-5.23 6.69m32.27-16a24.73 24.73 0 0 0-15.3.76 33.4 33.4 0 0 0-12.42 8.36 46.31 46.31 0 0 0-5.16 6.6m32.26-16a24.57 24.57 0 0 0-7.72-.86 26.79 26.79 0 0 0-7.54 1.6 33.24 33.24 0 0 0-12.35 8.27 46.3 46.3 0 0 0-5.31 6.77m32.24-16a24.47 24.47 0 0 0-7.71-.86 26.5 26.5 0 0 0-7.56 1.6 33.32 33.32 0 0 0-12.31 8.28 46.21 46.21 0 0 0-5.31 6.76m32.23-16a28.46 28.46 0 0 0-3.76-.76 24.21 24.21 0 0 0-3.9-.11 27 27 0 0 0-7.53 1.58 33.27 33.27 0 0 0-12.41 8.29 45.69 45.69 0 0 0-5.32 6.82m32.22-16a23.82 23.82 0 0 0-7.66-.87 27.18 27.18 0 0 0-7.5 1.57 33 33 0 0 0-12.47 8.3 45.54 45.54 0 0 0-5.3 6.75m32.2-15.94a28.46 28.46 0 0 0-3.76-.76 24.71 24.71 0 0 0-3.94-.11 26.72 26.72 0 0 0-7.55 1.61 33.17 33.17 0 0 0-12.33 8.24 46 46 0 0 0-5.3 6.74m32.2-15.92a24.67 24.67 0 0 0-15.26.73 33.1 33.1 0 0 0-12.31 8.24 44.81 44.81 0 0 0-5.3 6.74m32.18-15.91a30.17 30.17 0 0 0-3.76-.76 24.71 24.71 0 0 0-3.94-.11 26.71 26.71 0 0 0-7.55 1.6 33.08 33.08 0 0 0-12.31 8.23 46.58 46.58 0 0 0-5.3 6.73m42.89-10.5a34.64 34.64 0 0 0-3-2.25m10 4.28a27.44 27.44 0 0 0-3-2.23 27.12 27.12 0 0 0-3.29-1.73m1.41 2.54a29.74 29.74 0 0 0-4-2.82m11 4.86a29.64 29.64 0 0 0-3.4-2.49 24.35 24.35 0 0 0-3.92-1.88m2.41 2.93a27.5 27.5 0 0 0-4.95-3.33m12 5.39a28 28 0 0 0-3.88-2.78 24.07 24.07 0 0 0-4.53-1.94m-3.52 1.25a31.17 31.17 0 0 0-2.69-2m9.64 4.07a25.86 25.86 0 0 0-5.95-3.81m1.06 2.34a28.28 28.28 0 0 0-3.65-2.62m10.62 4.62a24.73 24.73 0 0 0-7-4.23m2.08 2.8a26.17 26.17 0 0 0-4.59-3.13m-.21 1.75a27.89 27.89 0 0 0-2.39-1.82m9.32 3.85a24.21 24.21 0 0 0-5.62-3.65m.76 2.23a25.63 25.63 0 0 0-3.33-2.44m10.29 4.48a23.83 23.83 0 0 0-6.64-4.1m1.75 2.67a24.47 24.47 0 0 0-4.29-3m11.29 5a22.77 22.77 0 0 0-7.69-4.5m2.76 3.09a21.74 21.74 0 0 0-5.29-3.51m3.4 3.51a33.13 33.13 0 0 0-5 1.84 35.51 35.51 0 0 0-4.49 2.65 37.09 37.09 0 0 0-7.62 7.25 46 46 0 0 0-5.65 9.08 44.51 44.51 0 0 0-3.45 10.25 43.91 43.91 0 0 0-1 11c0 .47.05.93.08 1.4m26.4-43.61a32.3 32.3 0 0 0-5 1.83 35.78 35.78 0 0 0-4.55 2.69 37 37 0 0 0-7.61 7.17 45.8 45.8 0 0 0-5.65 9.08 46.16 46.16 0 0 0-4.41 21.2c0 .47.05.93.08 1.39m26.46-43.61a31 31 0 0 0-4.95 1.84 33.94 33.94 0 0 0-4.55 2.68 36.71 36.71 0 0 0-7.63 7.2 45.31 45.31 0 0 0-5.6 9 46 46 0 0 0-4.43 21.24c0 .46.05.93.08 1.39m26.38-43.56a33.43 33.43 0 0 0-5 1.84 34.46 34.46 0 0 0-4.54 2.68 36.71 36.71 0 0 0-7.63 7.2 45.12 45.12 0 0 0-5.59 9 46 46 0 0 0-4.43 21.23c0 .46.05.93.08 1.39m26.36-43.5a32.3 32.3 0 0 0-4.91 1.76 34.46 34.46 0 0 0-4.54 2.68 36.5 36.5 0 0 0-7.66 7.23 45.53 45.53 0 0 0-5.6 9 44.37 44.37 0 0 0-3.42 10.2 43.58 43.58 0 0 0-1 10.92c0 .46.05.92.07 1.39m26.4-43.42a31.8 31.8 0 0 0-4.94 1.83 35.23 35.23 0 0 0-4.52 2.66 36.67 36.67 0 0 0-7.61 7.16 44.47 44.47 0 0 0-5.63 9 45.85 45.85 0 0 0-4.41 21.18c0 .46.05.92.08 1.39m26.33-43.43a32.14 32.14 0 0 0-4.89 1.82 35.23 35.23 0 0 0-4.52 2.66 37 37 0 0 0-7.66 7.22 46.06 46.06 0 0 0-9 19.2 43.85 43.85 0 0 0-1 10.9c0 .46.06.92.08 1.39m26.32-43.4a32.18 32.18 0 0 0-4.94 1.83 33.05 33.05 0 0 0-4.52 2.66 36.84 36.84 0 0 0-7.58 7.12 45.79 45.79 0 0 0-9.08 19.22 43.17 43.17 0 0 0-1 10.93c0 .47 0 .93.08 1.39m26.3-43.35a31.49 31.49 0 0 0-4.89 1.8 33.25 33.25 0 0 0-4.5 2.63 37.09 37.09 0 0 0-7.62 7.13 45.78 45.78 0 0 0-9.11 19.28 43.73 43.73 0 0 0-.94 10.88c0 .47 0 .93.07 1.39m26.3-43.32a33.68 33.68 0 0 0-4.89 1.8 33.27 33.27 0 0 0-4.54 2.66 36.87 36.87 0 0 0-7.64 7.17 45.8 45.8 0 0 0-10 30.06c0 .47.06.93.08 1.39m26.3-43.25a31.55 31.55 0 0 0-5 1.84 33.92 33.92 0 0 0-4.47 2.62 37 37 0 0 0-7.63 7.13 44.71 44.71 0 0 0-5.6 9 45.7 45.7 0 0 0-4.38 21.07c0 .47.06.93.08 1.4m26.3-43.29a32.92 32.92 0 0 0-5 1.83 33.81 33.81 0 0 0-4.4 2.62 37.19 37.19 0 0 0-7.62 7.15 45.16 45.16 0 0 0-5.6 9 44.27 44.27 0 0 0-3.41 10.13 43.16 43.16 0 0 0-1 10.93c0 .46.05.92.07 1.39m26.25-43.22a31.18 31.18 0 0 0-5 1.84 35.37 35.37 0 0 0-4.44 2.56 36.77 36.77 0 0 0-7.6 7.14 45.12 45.12 0 0 0-5.59 9 44.52 44.52 0 0 0-3.41 10.12 43.38 43.38 0 0 0-.94 10.9c0 .46 0 .92.07 1.39m26.22-43.19a32.64 32.64 0 0 0-5 1.83 34.84 34.84 0 0 0-4.48 2.64 36.37 36.37 0 0 0-7.52 7.17 44.29 44.29 0 0 0-5.57 8.92 45.26 45.26 0 0 0-4.37 21c0 .46.05.93.08 1.39m26.22-43.14a30.2 30.2 0 0 0-5 1.83 33.14 33.14 0 0 0-4.49 2.63 36.49 36.49 0 0 0-7.55 7.08 45.36 45.36 0 0 0-10 30c0 .46.05.92.08 1.38m26.24-43.09a32.64 32.64 0 0 0-5 1.83 35 35 0 0 0-4.49 2.64 36.39 36.39 0 0 0-7.54 7.07 44.45 44.45 0 0 0-5.61 8.88 43.9 43.9 0 0 0-3.42 10.14 42.88 42.88 0 0 0-.94 10.89c0 .46 0 .92.07 1.37m23.68-42.28a30.73 30.73 0 0 0-8.52 4.84 41 41 0 0 0-6.87 7.16 43.51 43.51 0 0 0-5.08 8.7 49 49 0 0 0-3.07 9.76 40.45 40.45 0 0 0-.8 10.36l.07 1.23m12.41-35a39 39 0 0 0-4.75 5.51 41.52 41.52 0 0 0-3.81 6.38 51.2 51.2 0 0 0-2.72 7 44.6 44.6 0 0 0-1.57 7.41 45.78 45.78 0 0 0-.23 8.52m5.51-26.21a43 43 0 0 0-4.2 9.46 44.65 44.65 0 0 0-2 10.42 53.79 53.79 0 0 0 0 6.09m5.51-26.18a42.84 42.84 0 0 0-4.21 9.49 44.29 44.29 0 0 0-2 10.38 53.62 53.62 0 0 0 0 6.08" stroke-width=".25"/></g><g opacity=".75"><path d="M190.22 45.92c12.78-7.67 30.58-7.05 42.36 2 21.94 16.84 22.11 49.24 7.45 71.17-16 24-50.53 31.23-69.24 6.21l-5.89-11.13a50.63 50.63 0 0 1-2.3-8.17c-3.36-17.38 2.57-36.23 14.34-49.25a57.46 57.46 0 0 1 13.28-10.83z" opacity=".75" fill="url(#f)"/><path d="M190.22 45.92c12.78-7.67 30.58-7.05 42.36 2 21.94 16.84 22.11 49.24 7.45 71.17-16 24-50.53 31.23-69.24 6.21l-5.89-11.13a50.63 50.63 0 0 1-2.3-8.17c-3.36-17.38 2.57-36.23 14.34-49.25a57.46 57.46 0 0 1 13.28-10.83z" opacity=".75" fill="url(#g)"/></g><path d="M214.17 68.23c26.07-14.08 36.34 21.94 24.49 41.76-5.46 9.14-15.9 18-27.3 15.64s-16-13.66-15.63-24.12c.42-13.65 6.78-26.99 18.44-33.28z" opacity=".75" fill="url(#h)"/><g opacity=".75"><path d="M190.12 57.84c-1 9.76-9 20.21-17.51 24.54l-1.71-.5-3.37-1.22c-1.34-1.5-1.07-7.36-1.07-7.36v-16.98l.07-19.11c-5.25-1-9-2.69-9-4.68v-8.51c.4-2.44 11-5.2 24.23-4.62 9.51.41 17.48 3.66 17.64 6 0 1.35-.08 8.55-.08 8.55-1.48 1.42-4.85 2.66-9.17 3.47z" fill="#19181f"/><path d="M190.12 57.84c-1 9.76-9 20.21-17.51 24.54l-1.71-.5-3.37-1.22c-1.34-1.5-1.07-7.36-1.07-7.36v-16.98l.07-19.11c-5.25-1-9-2.69-9-4.68v-8.51c.4-2.44 11-5.2 24.23-4.62 9.51.41 17.48 3.66 17.64 6 0 1.35-.08 8.55-.08 8.55-1.48 1.42-4.85 2.66-9.17 3.47z" fill="url(#b)" opacity=".75"/></g><g opacity=".75"><path d="M166.51 56.32v17a58.37 58.37 0 0 0-4.12 14 75.38 75.38 0 0 0-.24 16.09c-1.38-.53-3.79-1-4.86-2a19.81 19.81 0 0 1-5.71-10.67l2.42-5.57c-1.14-10.21 2.1-18.33 10.57-24.28l2-4.57" fill="#19181f"/><path d="M166.51 56.32v17a58.37 58.37 0 0 0-4.12 14 75.38 75.38 0 0 0-.24 16.09c-1.38-.53-3.79-1-4.86-2a19.81 19.81 0 0 1-5.71-10.67l2.42-5.57c-1.14-10.21 2.1-18.33 10.57-24.28l2-4.57" opacity=".75" fill="url(#i)"/></g><path d="M227.27 96.21c-1.78 8.69-8.4 9.12-8.4 9.12s-2.17-2.64-1.2-7.49c1.62-8.08 8-9.73 8-9.73a10.27 10.27 0 0 1 1.6 8.1zM212.21 93.26l.49-.36.52-.12.48.14.37.38.19.56v.65l-.21.65-.37.54-.49.36-.52.12-.48-.14-.37-.38-.19-.55v-.66l.2-.65.38-.54m7.38-10.68l-.38.54-.21.65v.65l.19.56.36.38.48.15.52-.12.45-.39.37-.54.21-.64v-.66l-.19-.56-.36-.38-.48-.14-.52.11-.48.36m10.14-2.23l-.37.54-.21.64v.65l.19.56.35.38.47.14.51-.11.48-.35.37-.54.21-.65v-.58l-.18-.56-.36-.38-.47-.14-.51.11-.48.35m-.52 30.55l-.37.54-.21.64v.64l.19.54.35.37.47.13.51-.12.47-.36.37-.54.21-.64v-.64l-.19-.54-.35-.37-.47-.13-.51.12-.47.36m7.45-23.15l-.37.53-.21.64v.65l.18.55.35.37.47.14.5-.11.48-.36.36-.53.21-.64v-.64l-.18-.55-.35-.38-.46-.14-.51.12-.47.35m-.24 12.6l-.37.53-.2.64v.64l.18.55.35.36.46.14.51-.12.47-.36.36-.53.21-.64v-.64l-.18-.54-.35-.37-.46-.14-.51.12-.47.36m-16.77 12.62l-.48.36-.37.55-.21.64v.64l.19.55.36.37.47.13.52-.13.48-.36.37-.54.21-.64v-.64l-.19-.55-.36-.37-.47-.13-.52.12m-5.52-6.33l-.2-.55-.36-.37-.48-.14-.52.12-.53.27-.37.55-.21.65v.65l.19.55.37.37.48.14.52-.13.49-.36.37-.54.21-.65v-.65" fill="#19181f" opacity=".75"/><path d="M190.34 23.42s-.84 2.28-12.86 2.23c-11 0-10.81-3.12-10.81-3.12 3.21-3.01 21.8-2.97 23.67.89z" fill="#19181f" opacity=".75"/><g opacity=".75"><path d="M214.17 68.23c26.07-14.08 36.34 21.94 24.49 41.76-5.46 9.14-15.9 18-27.3 15.64s-16-13.66-15.63-24.12c.42-13.65 6.78-26.99 18.44-33.28z" fill="#19181f" opacity=".75"/><path d="M214.17 68.23c26.07-14.08 36.34 21.94 24.49 41.76-5.46 9.14-15.9 18-27.3 15.64s-16-13.66-15.63-24.12c.42-13.65 6.78-26.99 18.44-33.28z" stroke="#15d5ee" stroke-linecap="round" stroke-linejoin="round" fill="none"/><ellipse cx="224.95" cy="98.07" rx="20.5" ry="15.11" transform="matrix(.31 -.95 .95 .31 62.41 281.92)" fill="#19181f" stroke="#15d5ee" stroke-linecap="round" stroke-linejoin="round"/><path stroke="#15d5ee" stroke-linecap="round" stroke-linejoin="round" fill="none" d="M160.76 94.21l-.09-.04-9.14-3.46M162.27 81.77a41 41 0 0 1 4.2-11.47"/><path stroke="#15d5ee" stroke-linecap="round" stroke-linejoin="round" fill="none" d="M211.47 85.51l-2.3-.81-6.02-6.28 6.54 5.34.17.14 1.76 1.44-.15.17zM163.85 81.44c.26-1.21.59-2.52 1-3.91a42.73 42.73 0 0 1 1.58-4.23M220.26 76.59a19.39 19.39 0 0 0-10.4 7.31M209.17 84.7a29.59 29.59 0 0 0-4.77 14.83M164.9 114.17a47.65 47.65 0 0 1-2.94-21M161.76 103.21c-1.38-.53-3.45-.84-4.52-1.83a19.81 19.81 0 0 1-5.71-10.67l2.47-5.54c-1.14-10.21 2.1-18.33 10.57-24.28l2-4.57M204.53 100.82a17.76 17.76 0 0 0 4.3 11.36"/><path stroke="#15d5ee" stroke-linecap="round" stroke-linejoin="round" stroke-dasharray="0,1.5" fill="none" d="M246.53 65.83l3.21-.69 1.01-.04M199.42 29.92c-2.83 2.71-12.75 4.9-22.77 4.54-9.86-.35-18.3-2.35-19-4.93M199.32 29.24c-2.83 2.7-12.65 4.74-22.67 4.38-9.86-.36-18-1.91-19.07-5.62"/><path d="M162.66 106.18c-1.59-3.89-2-9.4-1.83-13.47M158.36 84.55c-.74-6.69 1.94-16.38 8.13-20.12" stroke="#15d5ee" stroke-linecap="round" stroke-linejoin="round" fill="none"/><path stroke="#15d5ee" stroke-linecap="round" stroke-linejoin="round" stroke-dasharray="0,1.5" fill="none" d="M225.39 88.31l1.07 1.56.7 2.07.21 2.35-.29 2.45-.77 2.4-1.2 2.19-1.55 1.83-1.8 1.34-1.92.76-.97.07"/><path stroke="#15d5ee" stroke-linecap="round" stroke-linejoin="round" fill="none" d="M195.9 23.26l.55.11.53.2.02.23-.32.14-.53.09-.66.04-.68-.02-.6-.08-.53-.2-.02-.23.32-.14.53-.09.66-.04.73-.01.32.04.23.07-.55-.11zM185.85 20.94l.32-.06h1.32l.59.08.43.12.21.1s-.14.21-.72.22"/><path d="M190.34 23.42l.16 1.46c-3.47 2.24-8.52 2.64-12.78 2.59-2 0-9.95-.3-11.3-3l.25-1.93c3.21-3.02 21.8-2.98 23.67.88z" stroke="#15d5ee" stroke-linecap="round" stroke-linejoin="round" fill="none"/><path stroke="#15d5ee" stroke-linecap="round" stroke-linejoin="round" stroke-dasharray="0,1.5" fill="none" d="M227.18 88.18l1.16.92.32.25.67 1.45.13.26.64 1.91.2 2.45-.24 1.95-.22.97-.6 1.85-1.2 2.2-1.53 1.89-1.74 1.69-.01.01-.71.26-1.3.49-1.05.39-.98-.12-.22-.03"/><path d="M222.94 76.46a14.15 14.15 0 0 1 5.06.69l4 1.42" stroke="#15d5ee" stroke-linecap="round" stroke-linejoin="round" fill="none"/><g stroke="#15d5ee" stroke-linecap="round" stroke-linejoin="round" fill="none"><path d="M162.86 93.48"/><path stroke-dasharray="0,1.464311122894287" d="M161.75 92.55l-.49-.66-.44-1.19-.14-1.34.15-1.4.44-1.38.7-1.25.91-1.04 1.06-.75 1.13-.43 5.11-1.08"/><path d="M170.9 81.88"/></g><path d="M166.67 22.53c-.27 3.12 9.1 3.14 11.07 3.16 4.19 0 9 .1 12.6-2.27" stroke="#15d5ee" stroke-linecap="round" stroke-linejoin="round" stroke-dasharray="0,1.5" fill="none"/><g stroke="#15d5ee" stroke-linecap="round" stroke-linejoin="round" fill="none"><path d="M165.19 125.94"/><path d="M164 125c-2.44-2.84-.1-8.3 3.38-9.29l1.6-.37" stroke-dasharray="0,1.5306283235549927"/><path d="M169.72 115.16"/></g><path stroke="#15d5ee" stroke-linecap="round" stroke-linejoin="round" fill="none" d="M249.06 97.51l.59.45.59.88.36 1.11.11 1.25-.16 1.32-.42 1.28-.63 1.17-.83.98-.95.72-1.01.41-.66.16M212.21 93.26l-.38.54-.2.65-.01.66.19.56.37.37.48.14.52-.12.49-.36.37-.54.21-.65.01-.65-.19-.56-.37-.38-.48-.14-.52.12-.49.36M219.59 82.58l-.38.54-.21.65-.01.65.19.56.36.38.48.15.52-.12.49-.36.37-.54.21-.64.01-.66-.19-.56-.36-.38-.48-.14-.52.11-.48.36M229.73 80.35l-.37.54-.21.64-.01.65.19.56.35.38.47.14.51-.11.48-.35.37-.54.21-.65.01-.64-.18-.56-.36-.38-.47-.14-.51.11-.48.35M229.21 110.9l-.37.54-.21.64v.64l.18.54.35.37.47.13.51-.12.47-.36.37-.54.21-.64.01-.64-.19-.54-.35-.37-.47-.13-.51.12-.47.36M236.66 87.75l-.37.53-.21.64-.01.65.18.55.35.37.47.14.5-.11.48-.36.36-.53.21-.64.01-.64-.18-.55-.35-.38-.46-.14-.51.11-.47.36M236.42 100.35l-.37.53-.2.64-.01.64.18.55.35.36.46.14.51-.12.47-.36.36-.53.21-.64.01-.64-.18-.54-.35-.37-.46-.14-.51.12-.47.36M170.79 125.3c18.71 25 53.23 17.75 69.24-6.21 14.66-21.93 14.49-54.33-7.45-71.17-11.78-9.05-29.58-9.67-42.36-2M219.61 112.95l-.48.36-.37.55-.21.64-.01.64.19.55.36.37.47.13.52-.13.48-.36.37-.54.21-.64.01-.64-.19-.55-.36-.37-.47-.13-.52.12M191.44 54.2l.37-.41.28-.5.17-.56.07-.57-.06-.54-.17-.49-.27-.39-.36-.28-.41-.13-.87-.28-4.01-1.28-.18.02-.26-.01-.51.14-.48.28-.41.4-.32.48-.2.55-.07.56.06.55.19.49.31.4.41.29 4.28 1.39.25.09.24.07.22.07.41.13h.03l.42-.01.45-.16.42-.3M189.71 54.54l-.36-.27-.28-.39-.16-.49-.06-.55.06-.57.18-.55.28-.5.37-.42.42-.29.45-.17.45-.01M173.1 124.74v-.44l-3.38-9.14-3.34-1.33-2.33.54a6.57 6.57 0 0 0-4.2 4.83c-.47 2.19.21 4.54 2.34 5.51a25.47 25.47 0 0 0 4 1.5l1.13-.09 5.74-1.38M164.92 22.78l-.34.14-.55.09-.65.04-.68-.02-.59-.08-.5-.2v-.23l.34-.13.54-.1.66-.04.67.02.59.08.51.2v.23"/><path stroke="#15d5ee" stroke-linecap="round" stroke-linejoin="round" fill="none" d="M185 28.79l-.34.14-.54.1-.67.04-.7-.02-.6-.08-.53-.21-.02-.24.34-.14.55-.1.67-.04.69.02.6.09.53.2.02.24zM195.61 26.88l-.33.14-.54.1-.66.04-.69-.02-.61-.08-.53-.21-.03-.24.34-.13.53-.1.66-.04.69.02.61.08.53.21.03.23zM245.95 64.11l.32-.06 1.01-.05 3.47 1.1.94.3.79.63.6.91.36 1.13.1 1.27-.16 1.33-.41 1.29-.65 1.18-.82.97-.96.71-1.01.39-.08.02"/><path stroke="#15d5ee" stroke-linecap="round" stroke-linejoin="round" fill="none" d="M167.99 28.24l.09-.16.35-.14.54-.09.67-.05.74-.01.32.05.23.07.52.21.01.23-.35.14-.55.1-.67.04-.69-.02-.6-.08-.42-.13-.21-.11.02-.05zM170.9 81.88v.45a36.34 36.34 0 0 0-1.51 5.19 36.77 36.77 0 0 0-.74 5.4l-3.59.79-1.13.07c-1.22-.35-2.38-.8-3.56-1.25a4.2 4.2 0 0 1-2.45-1.92c-1.09-2-.54-4.71.7-6.5a6.06 6.06 0 0 1 3.11-2.22l5.81-1.23zM214.09 106.62l-.01.65-.21.65-.37.54-.49.36-.52.13-.48-.14-.37-.37-.19-.55.01-.65.21-.65.37-.55.49-.36.52-.12.48.14.37.37.19.55"/><path stroke="#15d5ee" stroke-linecap="round" stroke-linejoin="round" fill="none" d="M163.26 25.68l-.09.16-.35.14-.54.09-.67.04-.73.02-.32-.05-.23-.07-.51-.2.01-.24.34-.13.55-.1.66-.04.69.02.59.08.42.13.18.15zM234.9 110.56l1.38 2.42-1.84-1.92"/><path stroke="#15d5ee" stroke-linecap="round" stroke-linejoin="round" fill="none" d="M211.12 113.81l-8.44 7.3 6.15-8.93 2.29 1.63zM206.56 100.66h-.03l-2 .16-8.8.69 8.67-1.98 2.21.81-.05.32z"/><path d="M228 77.15a10.61 10.61 0 0 0-1.92-.17c-9.28 0-17.89 9.24-19.24 20.65-.77 6.51 1 12.32 4.36 16.11a14.49 14.49 0 0 0 2 1.45l4 1.88" stroke="#15d5ee" stroke-linecap="round" stroke-linejoin="round" stroke-dasharray="0,1.5" fill="none"/><g opacity=".75"><path d="M190.15 54.67v3.16c-1 9.76-9 20.21-17.51 24.54l-1.71-.5-3.37-1.22c-1.34-1.5-1.07-7.36-1.07-7.36v-16.97l.05-19m23.66 12.8v-12.7" fill="url(#j)" opacity=".75"/><path d="M190.15 54.67v3.16c-1 9.76-9 20.21-17.51 24.54l-1.71-.5-3.37-1.22c-1.34-1.5-1.07-7.36-1.07-7.36v-16.97l.05-19m23.66 12.8v-12.7" stroke="#15d5ee" stroke-linecap="round" stroke-linejoin="round" fill="none"/></g><path stroke="#15d5ee" stroke-linecap="round" stroke-linejoin="round" fill="none" d="M223.11 77.2l-.17-.74-2.52-10.57-.16 10.7 2.85.61zM231.95 78.57l5.11-7.42-2.81 8.89M240.5 92.24l2.97-1.63-3.1.71"/><path stroke="#15d5ee" stroke-linecap="round" stroke-linejoin="round" fill="none" d="M222.1 117.82l-2.51 7.69.06-7.7 2.45.01z"/><ellipse cx="225.19" cy="98.15" rx="12.43" ry="9.21" transform="translate(62.5 282.2) rotate(-72.07)" stroke="#15d5ee" stroke-linecap="round" stroke-linejoin="round" fill="none"/><ellipse cx="225.19" cy="98.15" rx="10.39" ry="7.4" transform="translate(62.5 282.2) rotate(-72.07)" stroke="#15d5ee" stroke-linecap="round" stroke-linejoin="round" fill="none"/><path d="M199.38 33.91c-2.83 2.71-12.58 4.78-22.6 4.42-9.87-.36-19.2-2.66-19.2-5.8v-8.51c.4-2.44 11-5.2 24.23-4.62 9.51.41 17.48 3.66 17.64 6-.03 1.31-.07 8.51-.07 8.51zm-41.81-9.84c0 3.13 9.33 5.44 19.2 5.79s22.23-1.86 22.6-4.41" stroke="#15d5ee" stroke-linecap="round" stroke-linejoin="round" fill="none"/></g></svg>